<svg width="326" height="113" viewBox="0 0 326 113" fill="none" xmlns="http://www.w3.org/2000/svg">
<path fill-rule="evenodd" clip-rule="evenodd" d="M65.4868 83.9999C59.6499 94.1098 46.7224 97.5738 36.6124 91.7368C26.5025 85.8998 23.0386 72.9723 28.8756 62.8624C34.7125 52.7525 47.64 49.2886 57.75 55.1255C67.8599 60.9625 71.3238 73.89 65.4868 83.9999ZM38.7262 88.0757C46.8141 92.7452 57.1561 89.9741 61.8257 81.8862C66.4953 73.7982 63.7241 63.4562 55.6362 58.7867C47.5483 54.1171 37.2063 56.8882 32.5367 64.9762C27.8671 73.0641 30.6383 83.4061 38.7262 88.0757Z" fill="#482402"/>
<path fill-rule="evenodd" clip-rule="evenodd" d="M58.5301 79.9838C54.9112 86.252 46.8962 88.3996 40.628 84.7807C34.3599 81.1618 32.2122 73.1467 35.8312 66.8786C39.4501 60.6104 47.4651 58.4628 53.7333 62.0817C60.0014 65.7006 62.149 73.7157 58.5301 79.9838ZM42.7418 81.1196C46.9879 83.5711 52.4175 82.1162 54.869 77.8701C57.3205 73.6239 55.8657 68.1944 51.6195 65.7428C47.3734 63.2913 41.9438 64.7462 39.4923 68.9923C37.0408 73.2385 38.4956 78.668 42.7418 81.1196Z" fill="#482402"/>
<path fill-rule="evenodd" clip-rule="evenodd" d="M52.9657 63.4113C47.4319 60.2163 40.3558 62.1123 37.1608 67.6462C33.9658 73.18 35.8619 80.2561 41.3957 83.4511C46.9295 86.6461 54.0057 84.75 57.2006 79.2162C60.3956 73.6824 58.4996 66.6062 52.9657 63.4113ZM32.5362 64.9762C37.2058 56.8883 47.5478 54.1171 55.6357 58.7867C63.7236 63.4563 66.4948 73.7983 61.8252 81.8862C57.1556 89.9741 46.8136 92.7453 38.7257 88.0757C30.6378 83.4061 27.8666 73.0641 32.5362 64.9762Z" fill="#F6E6D2"/>
<path d="M82.015 38.4622C80.6428 40.8389 78.6174 42.6035 76.2965 43.6601C74.4989 44.4784 73.3905 47.4956 74.5795 49.0728C79.1201 55.0961 81.1969 62.6717 80.3709 70.1616C80.2404 71.3449 81.0371 72.4457 82.1501 72.8684C82.6753 73.0678 83.1915 73.3119 83.6938 73.6019C88.7488 76.5204 90.4807 82.9841 87.5623 88.0391C84.6438 93.0941 78.18 94.826 73.1251 91.9075L25.3474 64.3231C20.2924 61.4046 18.5605 54.9408 21.479 49.8859C24.3975 44.8309 30.8612 43.099 35.9162 46.0175C36.4185 46.3075 36.8879 46.6325 37.3233 46.9876C38.2458 47.7401 39.5975 47.8797 40.557 47.175C46.6305 42.7148 54.2295 40.7255 61.7162 41.6462C63.6766 41.8872 65.7353 39.4188 65.5452 37.4528C65.2998 34.9146 65.8152 32.2782 67.1875 29.9015C70.6897 23.8355 76.3324 25.4183 82.3984 28.9205C82.3984 28.9205 85.5172 32.3962 82.015 38.4622Z" fill="#E89B37"/>
<path d="M82.015 38.4622C80.6428 40.8389 78.6174 42.6035 76.2965 43.6601C74.4989 44.4784 73.3905 47.4956 74.5795 49.0728C79.1201 55.0961 81.1969 62.6717 80.3709 70.1616C80.2404 71.3449 81.0371 72.4457 82.1501 72.8684C82.6753 73.0678 83.1915 73.3119 83.6938 73.6019C88.7488 76.5204 90.4807 82.9841 87.5623 88.0391C84.6438 93.0941 78.18 94.826 73.1251 91.9075L25.3474 64.3231C20.2924 61.4046 18.5605 54.9408 21.479 49.8859C24.3975 44.8309 30.8612 43.099 35.9162 46.0175C36.4185 46.3075 36.8879 46.6325 37.3233 46.9876C38.2458 47.7401 39.5975 47.8797 40.557 47.175C46.6305 42.7148 54.2295 40.7255 61.7162 41.6462C63.6766 41.8872 65.7353 39.4188 65.5452 37.4528C65.2998 34.9146 65.8152 32.2782 67.1875 29.9015C70.6897 23.8355 76.3324 25.4183 82.3984 28.9205C82.3984 28.9205 85.5172 32.3962 82.015 38.4622Z" fill="url(#paint0_linear)"/>
<path d="M77.2592 68.3649C78.0852 60.875 76.0084 53.2994 71.4678 47.2761L70.3117 49.2785C72.0589 57.6095 70.6396 57.7663 69.937 64.1374C69.8065 65.3207 70.6032 66.4215 71.7161 66.8442C72.2414 67.0436 72.7576 67.2877 73.2599 67.5777C78.3148 70.4962 80.0468 76.9599 77.1283 82.0149C74.2098 87.0699 67.7461 88.8018 62.6911 85.8833L70.0134 90.1108C75.0683 93.0293 81.5321 91.2974 84.4506 86.2424C87.3691 81.1874 85.6371 74.7237 80.5821 71.8052C80.0798 71.5152 79.5636 71.2711 79.0384 71.0717C77.9254 70.649 77.1287 69.5482 77.2592 68.3649Z" fill="#E28432"/>
<path fill-rule="evenodd" clip-rule="evenodd" d="M74.544 39.8125C76.0899 39.1088 77.4355 37.9376 78.353 36.3484C80.6878 32.3044 79.3022 27.1334 75.2582 24.7986C71.2143 22.4639 66.0433 23.8494 63.7085 27.8934C62.791 29.4826 62.4495 31.2335 62.613 32.9241C62.8532 35.4084 61.7222 37.6321 60.4647 39.0549C59.2341 40.4472 56.9604 42.0769 54.0601 41.7202C47.6443 40.9313 41.1247 42.6377 35.9192 46.4606C33.1513 48.4933 29.6665 47.9 27.511 46.1416C27.2505 45.9291 26.9677 45.733 26.6623 45.5567C23.6293 43.8057 19.7511 44.8448 18 47.8778C16.2489 50.9108 17.2881 54.789 20.321 56.5401L75.2379 88.2464C78.2709 89.9975 82.1491 88.9583 83.9002 85.9253C85.6513 82.8923 84.6121 79.0141 81.5792 77.263C81.2738 77.0867 80.9626 76.9398 80.6483 76.8205C78.0478 75.8329 75.7915 73.1116 76.168 69.6982C76.8759 63.2787 75.094 56.7793 71.2028 51.6176C69.4438 49.2842 69.7182 46.5002 70.3087 44.7384C70.9122 42.9379 72.2724 40.8466 74.544 39.8125ZM76.2956 43.6601C78.6165 42.6035 80.6419 40.8389 82.0141 38.4621C85.5163 32.3962 83.4379 24.6397 77.372 21.1375C71.306 17.6353 63.5495 19.7137 60.0474 25.7796C58.6751 28.1564 58.1596 30.7927 58.4051 33.331C58.5952 35.297 56.5365 37.7654 54.5761 37.5243C47.0894 36.6037 39.4903 38.5929 33.4169 43.0532C32.4573 43.7579 31.1057 43.6183 30.1832 42.8658C29.7478 42.5106 29.2783 42.1856 28.776 41.8956C23.7211 38.9771 17.2573 40.7091 14.3389 45.7641C11.4204 50.819 13.1523 57.2828 18.2073 60.2012L73.1241 91.9075C78.1791 94.826 84.6429 93.094 87.5613 88.0391C90.4798 82.9841 88.7479 76.5204 83.6929 73.6019C83.1906 73.3119 82.6744 73.0678 82.1492 72.8683C81.0362 72.4457 80.2395 71.3449 80.37 70.1616C81.196 62.6717 79.1192 55.0961 74.5785 49.0728C73.3896 47.4956 74.4979 44.4784 76.2956 43.6601Z" fill="#482402"/>
<path fill-rule="evenodd" clip-rule="evenodd" d="M56.725 49.5487C56.4427 50.6814 55.2955 51.3708 54.1628 51.0884C52.9006 50.7738 50.5844 50.543 48.0394 50.9969C45.5186 51.4465 42.8918 52.5439 40.8067 54.767C40.0081 55.6185 38.6704 55.6614 37.8189 54.8628C36.9674 54.0642 36.9246 52.7265 37.7232 51.875C40.5791 48.83 44.1181 47.402 47.2972 46.8351C50.4521 46.2724 53.3699 46.5339 55.1853 46.9865C56.3181 47.2688 57.0074 48.416 56.725 49.5487Z" fill="#482402"/>
<path d="M104.318 67.1444C104.779 67.2762 105.372 67.375 106.096 67.4409C106.821 67.4738 107.513 67.4903 108.171 67.4903C109.489 67.4903 110.576 67.2268 111.432 66.6998C112.322 66.1398 112.767 65.2834 112.767 64.1305C112.767 63.0435 112.404 62.2694 111.68 61.8082C110.955 61.3471 109.851 61.1165 108.369 61.1165H104.318V67.1444ZM104.318 55.0886H107.924C109.341 55.0886 110.362 54.8251 110.988 54.298C111.647 53.771 111.976 52.9969 111.976 51.9758C111.976 51.0864 111.597 50.3782 110.84 49.8512C110.115 49.3242 109.011 49.0607 107.529 49.0607C107.035 49.0607 106.459 49.0771 105.8 49.1101C105.174 49.143 104.68 49.1924 104.318 49.2583V55.0886ZM107.529 74.1111C106.969 74.1111 106.31 74.0947 105.553 74.0617C104.795 74.0288 104.005 73.9629 103.181 73.8641C102.391 73.7653 101.6 73.6335 100.809 73.4688C100.019 73.3371 99.2943 73.1394 98.6355 72.8759C96.8238 72.1842 95.918 70.9819 95.918 69.269V46.1949C95.918 45.5032 96.0991 44.9762 96.4615 44.6138C96.8567 44.2186 97.3838 43.9056 98.0426 43.6751C99.1625 43.2798 100.562 42.9998 102.242 42.8351C103.922 42.6375 105.652 42.5387 107.43 42.5387C111.647 42.5387 114.891 43.2468 117.164 44.6632C119.437 46.0796 120.573 48.2701 120.573 51.2347C120.573 52.7169 120.145 54.0016 119.289 55.0886C118.432 56.1427 117.279 56.9167 115.83 57.4108C117.477 57.872 118.844 58.7119 119.931 59.9307C121.051 61.1495 121.611 62.6811 121.611 64.5257C121.611 67.7868 120.392 70.2078 117.954 71.7889C115.55 73.3371 112.075 74.1111 107.529 74.1111Z" fill="black"/>
<path d="M136.144 67.9844C136.704 67.9844 137.313 67.935 137.972 67.8362C138.664 67.7044 139.174 67.5397 139.504 67.3421V63.3893L135.946 63.6858C135.024 63.7517 134.266 63.9493 133.674 64.2787C133.081 64.6081 132.784 65.1022 132.784 65.761C132.784 66.4198 133.031 66.9633 133.525 67.3915C134.052 67.7868 134.925 67.9844 136.144 67.9844ZM135.749 48.5666C137.527 48.5666 139.141 48.7477 140.591 49.1101C142.073 49.4724 143.325 50.0324 144.346 50.79C145.4 51.5147 146.207 52.4534 146.767 53.6063C147.327 54.7263 147.607 56.0603 147.607 57.6085V68.6761C147.607 69.5325 147.36 70.2407 146.866 70.8007C146.405 71.3277 145.845 71.7889 145.186 72.1842C143.045 73.4688 140.031 74.1111 136.144 74.1111C134.398 74.1111 132.817 73.9464 131.401 73.617C130.017 73.2876 128.815 72.7936 127.794 72.1348C126.806 71.476 126.032 70.636 125.472 69.6149C124.945 68.5938 124.681 67.4079 124.681 66.0574C124.681 63.7846 125.356 62.0388 126.707 60.8201C128.057 59.6013 130.149 58.8437 132.982 58.5472L139.454 57.8555V57.5096C139.454 56.5544 139.026 55.8791 138.17 55.4839C137.346 55.0556 136.144 54.8415 134.563 54.8415C133.311 54.8415 132.092 54.9733 130.907 55.2368C129.721 55.5003 128.65 55.8297 127.695 56.225C127.267 55.9285 126.904 55.4839 126.608 54.891C126.312 54.2651 126.163 53.6228 126.163 52.964C126.163 52.1076 126.361 51.4323 126.756 50.9382C127.184 50.4112 127.827 49.9665 128.683 49.6042C129.638 49.2418 130.758 48.9783 132.043 48.8136C133.361 48.6489 134.596 48.5666 135.749 48.5666Z" fill="black"/>
<path d="M152.842 41.1552C153.171 41.0564 153.698 40.9576 154.423 40.8587C155.147 40.727 155.889 40.6611 156.646 40.6611C157.371 40.6611 158.013 40.7105 158.573 40.8093C159.166 40.9081 159.66 41.1058 160.055 41.4022C160.451 41.6987 160.747 42.1104 160.945 42.6375C161.142 43.1316 161.241 43.7904 161.241 44.6138V49.4559C162.065 49.1265 162.839 48.896 163.563 48.7642C164.321 48.6325 165.145 48.5666 166.034 48.5666C167.615 48.5666 169.114 48.8466 170.53 49.4065C171.947 49.9665 173.198 50.79 174.285 51.877C175.372 52.9311 176.229 54.2486 176.854 55.8297C177.48 57.4108 177.793 59.239 177.793 61.3141C177.793 63.4552 177.464 65.3328 176.805 66.9468C176.179 68.5279 175.29 69.8455 174.137 70.8995C172.984 71.9536 171.568 72.7606 169.888 73.3206C168.241 73.8476 166.413 74.1111 164.403 74.1111C162.229 74.1111 160.385 73.8476 158.87 73.3206C157.354 72.8265 156.07 72.2006 155.016 71.443C153.566 70.4219 152.842 69.1043 152.842 67.4903V41.1552ZM164.403 67.4903C165.919 67.4903 167.088 66.9797 167.911 65.9586C168.768 64.9046 169.196 63.3564 169.196 61.3141C169.196 59.239 168.768 57.6908 167.911 56.6697C167.055 55.6486 165.902 55.138 164.453 55.138C163.794 55.138 163.218 55.2039 162.723 55.3356C162.262 55.4674 161.752 55.665 161.192 55.9285V66.6998C161.554 66.9303 161.982 67.128 162.476 67.2927C163.003 67.4244 163.646 67.4903 164.403 67.4903Z" fill="black"/>
<path d="M185.014 67.1938C184.652 66.3704 184.257 65.448 183.829 64.4269C183.433 63.4058 183.005 62.2365 182.544 60.9189C182.116 59.6013 181.655 58.1026 181.16 56.4226C180.699 54.7098 180.205 52.7499 179.678 50.5429C180.139 50.0818 180.749 49.6865 181.506 49.3571C182.297 48.9948 183.153 48.8136 184.076 48.8136C185.228 48.8136 186.184 49.0607 186.941 49.5548C187.699 50.0159 188.259 50.9053 188.621 52.2229L192.525 65.8104H192.722C193.117 64.6904 193.496 63.4717 193.859 62.1541C194.254 60.8365 194.633 59.486 194.995 58.1025C195.357 56.6862 195.687 55.2862 195.983 53.9028C196.313 52.4864 196.593 51.1029 196.823 49.7524C198.009 49.1265 199.31 48.8136 200.726 48.8136C201.879 48.8136 202.835 49.0607 203.592 49.5548C204.35 50.0489 204.729 50.9053 204.729 52.124C204.729 53.0134 204.613 54.051 204.383 55.2368C204.152 56.3897 203.839 57.6249 203.444 58.9425C203.082 60.2601 202.637 61.6271 202.11 63.0435C201.616 64.4269 201.089 65.7939 200.529 67.1444C199.969 68.495 199.392 69.7796 198.799 70.9984C198.207 72.1842 197.63 73.2547 197.07 74.2099C196.148 75.824 195.291 77.1416 194.501 78.1627C193.71 79.1838 192.953 79.9744 192.228 80.5343C191.503 81.1272 190.779 81.5225 190.054 81.7201C189.329 81.9507 188.572 82.066 187.781 82.066C186.398 82.066 185.278 81.6543 184.421 80.8308C183.565 80.0073 183.054 78.9368 182.89 77.6192C183.944 76.7957 184.998 75.8734 186.052 74.8523C187.106 73.8641 188.061 72.843 188.918 71.7889C188.358 71.6242 187.748 71.2454 187.09 70.6525C186.464 70.0266 185.772 68.8738 185.014 67.1938Z" fill="black"/>
<path d="M217.614 61.413C216.164 60.9189 214.847 60.4248 213.661 59.9307C212.475 59.4037 211.454 58.7778 210.597 58.0531C209.741 57.3285 209.066 56.472 208.572 55.4839C208.111 54.4627 207.88 53.2275 207.88 51.7782C207.88 48.9783 208.951 46.7384 211.092 45.0585C213.266 43.3786 216.296 42.5387 220.183 42.5387C221.599 42.5387 222.917 42.6375 224.136 42.8351C225.354 43.0327 226.392 43.3457 227.248 43.7739C228.138 44.1692 228.829 44.6962 229.324 45.355C229.818 45.9808 230.065 46.722 230.065 47.5784C230.065 48.4348 229.867 49.176 229.472 49.8018C229.077 50.3947 228.599 50.9053 228.039 51.3335C227.314 50.8723 226.343 50.4771 225.124 50.1477C223.905 49.7853 222.571 49.6042 221.122 49.6042C219.639 49.6042 218.552 49.8183 217.861 50.2465C217.169 50.6418 216.823 51.1523 216.823 51.7782C216.823 52.2723 217.037 52.684 217.465 53.0134C217.894 53.3099 218.536 53.5898 219.392 53.8534L222.011 54.6933C225.107 55.6815 227.479 56.9497 229.126 58.4978C230.806 60.013 231.646 62.0882 231.646 64.7234C231.646 67.5232 230.542 69.7961 228.335 71.5419C226.128 73.2547 222.884 74.1111 218.602 74.1111C217.087 74.1111 215.67 73.9794 214.353 73.7159C213.068 73.4853 211.932 73.1394 210.943 72.6783C209.988 72.1842 209.23 71.5913 208.671 70.8995C208.143 70.1749 207.88 69.3514 207.88 68.4291C207.88 67.4738 208.16 66.6668 208.72 66.008C209.28 65.3163 209.889 64.7893 210.548 64.4269C211.47 65.1516 212.59 65.7774 213.908 66.3045C215.258 66.8315 216.724 67.095 218.305 67.095C219.919 67.095 221.056 66.848 221.715 66.3539C222.373 65.8598 222.703 65.2834 222.703 64.6246C222.703 63.9658 222.439 63.4717 221.912 63.1423C221.385 62.78 220.644 62.4341 219.689 62.1047L217.614 61.413Z" fill="black"/>
<path d="M248.89 72.5794C248.429 72.9747 247.803 73.2876 247.013 73.5182C246.222 73.7817 245.284 73.9135 244.197 73.9135C242.846 73.9135 241.677 73.7159 240.688 73.3206C239.7 72.9582 239.041 72.4312 238.712 71.7395C238.35 70.9489 237.922 69.6972 237.427 67.9844C236.966 66.2715 236.505 64.394 236.044 62.3517C235.583 60.3095 235.138 58.2343 234.71 56.1262C234.315 54.0181 234.002 52.157 233.771 50.5429C234.232 50.0818 234.842 49.6865 235.599 49.3571C236.39 48.9948 237.246 48.8136 238.169 48.8136C239.321 48.8136 240.26 49.0771 240.985 49.6042C241.743 50.0983 242.204 50.9712 242.368 52.2229C242.698 54.7263 242.978 56.8014 243.208 58.4484C243.439 60.0624 243.62 61.3965 243.752 62.4506C243.917 63.4717 244.032 64.2622 244.098 64.8222C244.197 65.3492 244.279 65.7774 244.345 66.1068H244.542C244.641 65.5798 244.806 64.8222 245.036 63.834C245.3 62.8129 245.596 61.66 245.926 60.3754C246.255 59.0907 246.601 57.7073 246.963 56.225C247.326 54.7098 247.688 53.211 248.05 51.7288C248.709 51.3664 249.352 51.0864 249.977 50.8888C250.636 50.6912 251.443 50.5924 252.398 50.5924C253.551 50.5924 254.54 50.7735 255.363 51.1359C256.186 51.4982 256.714 52.0582 256.944 52.8158C257.339 54.2651 257.718 55.6815 258.081 57.065C258.443 58.4155 258.772 59.6836 259.069 60.8695C259.365 62.0223 259.629 63.0599 259.859 63.9822C260.09 64.8716 260.255 65.5798 260.353 66.1068H260.6C260.963 63.5705 261.309 60.9353 261.638 58.2014C262 55.4674 262.33 52.684 262.626 49.8512C263.219 49.4889 263.845 49.2254 264.504 49.0607C265.162 48.896 265.821 48.8136 266.48 48.8136C267.633 48.8136 268.588 49.0607 269.346 49.5548C270.103 50.0489 270.482 50.9053 270.482 52.124C270.482 52.6511 270.4 53.4416 270.235 54.4957C270.07 55.5497 269.856 56.7356 269.593 58.0531C269.329 59.3707 269.016 60.7542 268.654 62.2035C268.325 63.6528 267.979 65.0528 267.616 66.4033C267.287 67.7538 266.958 68.9726 266.628 70.0596C266.332 71.1466 266.068 71.9865 265.838 72.5794C265.377 72.9747 264.668 73.2876 263.713 73.5182C262.758 73.7817 261.737 73.9135 260.65 73.9135C257.883 73.9135 256.252 73.2218 255.758 71.8383C255.561 71.2454 255.314 70.5043 255.017 69.6149C254.721 68.6926 254.408 67.6879 254.078 66.6009C253.749 65.5139 253.436 64.394 253.14 63.2411C252.843 62.0553 252.596 60.9189 252.398 59.8319C252.168 60.9848 251.888 62.187 251.558 63.4387C251.229 64.6575 250.883 65.8598 250.521 67.0456C250.191 68.1985 249.879 69.269 249.582 70.2572C249.286 71.2125 249.055 71.9865 248.89 72.5794Z" fill="black"/>
<path d="M284.565 67.9844C285.125 67.9844 285.734 67.935 286.393 67.8362C287.084 67.7044 287.595 67.5397 287.924 67.3421V63.3893L284.367 63.6858C283.445 63.7517 282.687 63.9493 282.094 64.2787C281.501 64.6081 281.205 65.1022 281.205 65.761C281.205 66.4198 281.452 66.9633 281.946 67.3915C282.473 67.7868 283.346 67.9844 284.565 67.9844ZM284.169 48.5666C285.948 48.5666 287.562 48.7477 289.011 49.1101C290.494 49.4724 291.745 50.0324 292.767 50.79C293.821 51.5147 294.628 52.4534 295.188 53.6063C295.748 54.7263 296.028 56.0603 296.028 57.6085V68.6761C296.028 69.5325 295.78 70.2407 295.286 70.8007C294.825 71.3277 294.265 71.7889 293.606 72.1842C291.465 73.4688 288.451 74.1111 284.565 74.1111C282.819 74.1111 281.238 73.9464 279.821 73.617C278.438 73.2876 277.236 72.7936 276.214 72.1348C275.226 71.476 274.452 70.636 273.892 69.6149C273.365 68.5938 273.102 67.4079 273.102 66.0574C273.102 63.7846 273.777 62.0388 275.127 60.8201C276.478 59.6013 278.57 58.8437 281.402 58.5472L287.875 57.8555V57.5096C287.875 56.5544 287.447 55.8791 286.59 55.4839C285.767 55.0556 284.565 54.8415 282.984 54.8415C281.732 54.8415 280.513 54.9733 279.327 55.2368C278.141 55.5003 277.071 55.8297 276.116 56.225C275.687 55.9285 275.325 55.4839 275.029 54.891C274.732 54.2651 274.584 53.6228 274.584 52.964C274.584 52.1076 274.782 51.4323 275.177 50.9382C275.605 50.4112 276.247 49.9665 277.104 49.6042C278.059 49.2418 279.179 48.9783 280.464 48.8136C281.781 48.6489 283.016 48.5666 284.169 48.5666Z" fill="black"/>
<path d="M312.182 48.5666C314.158 48.5666 315.986 48.8301 317.666 49.3571C319.379 49.8512 320.845 50.6253 322.063 51.6794C323.282 52.7334 324.237 54.0675 324.929 55.6815C325.621 57.2626 325.967 59.1566 325.967 61.3636C325.967 63.4717 325.67 65.3163 325.077 66.8974C324.485 68.4785 323.645 69.8125 322.558 70.8995C321.471 71.9536 320.153 72.7441 318.605 73.2712C317.09 73.7982 315.393 74.0617 313.516 74.0617C312.099 74.0617 310.782 73.8476 309.563 73.4194V81.6213C309.234 81.7201 308.707 81.819 307.982 81.9178C307.257 82.0495 306.516 82.1154 305.758 82.1154C305.034 82.1154 304.375 82.066 303.782 81.9672C303.222 81.8684 302.744 81.6707 302.349 81.3743C301.954 81.0778 301.658 80.6661 301.46 80.1391C301.262 79.645 301.163 78.9862 301.163 78.1627V54.4463C301.163 53.5569 301.345 52.8322 301.707 52.2723C302.102 51.7123 302.629 51.2017 303.288 50.7406C304.309 50.0818 305.577 49.5548 307.092 49.1595C308.608 48.7642 310.304 48.5666 312.182 48.5666ZM312.28 67.4409C315.673 67.4409 317.37 65.4151 317.37 61.3636C317.37 59.2554 316.941 57.6908 316.085 56.6697C315.261 55.6486 314.059 55.138 312.478 55.138C311.852 55.138 311.292 55.2203 310.798 55.385C310.304 55.5168 309.876 55.6815 309.514 55.8791V66.7492C309.909 66.9468 310.337 67.1115 310.798 67.2433C311.259 67.375 311.753 67.4409 312.28 67.4409Z" fill="black"/>
<defs>
<linearGradient id="paint0_linear" x1="24.9086" y1="43.9396" x2="88.5325" y2="80.9303" gradientUnits="userSpaceOnUse">
<stop stop-color="#EFC443"/>
<stop offset="1" stop-color="#E69536"/>
</linearGradient>
</defs>
</svg>
