<svg width="98" height="99" viewBox="0 0 98 99" fill="none" xmlns="http://www.w3.org/2000/svg">
<circle cx="53" cy="53.5" r="42.5" fill="#F0B90B" stroke="white" stroke-width="5"/>
<circle cx="21" cy="21.5" r="19.5" fill="#F0B90B" stroke="white" stroke-width="3"/>
<path d="M14.0889 22.5L11.2536 25.3551L8.39844 22.5L11.2536 19.6449L14.0889 22.5ZM20.9999 15.589L25.8833 20.4724L28.7385 17.6172L23.8557 12.7536L20.9999 9.8985L13.2812 17.6166L16.1363 20.4717L20.9999 15.589ZM30.7463 19.6449L27.911 22.5L30.7661 25.3551L33.6014 22.5L30.7463 19.6449ZM20.9999 29.411L16.1172 24.5276L13.2818 27.3828L20.9999 35.1015L28.7378 27.3636L25.8827 24.5283L20.9999 29.411ZM20.9999 25.3551L23.8551 22.5L20.9999 19.6449L18.1448 22.5L20.9999 25.3551Z" fill="#FFFDFA"/>
<path fill-rule="evenodd" clip-rule="evenodd" d="M37.8834 44.478L53.0147 29.3467L59.0481 35.3801L43.9168 50.5115L37.8834 44.478ZM37.894 62.5596L62.0759 38.3785L68.1093 44.4119L43.9274 68.593L37.894 62.5596ZM71.1191 47.4388L46.938 71.6199L52.9714 77.6534L77.1525 53.4714L71.1191 47.438V47.4388ZM28.8467 53.5123L34.8801 47.4788L40.9135 53.5123L34.8801 59.5457L28.8467 53.5123Z" fill="#FFFDFA"/>
</svg>
