<svg width="98" height="99" viewBox="0 0 98 99" fill="none" xmlns="http://www.w3.org/2000/svg">
<circle cx="53" cy="53.5" r="42.5" fill="#F5F3F3" stroke="white" stroke-width="5"/>
<path d="M52.3525 69.841V84.992L70.9995 58.809L52.3525 69.841Z" fill="#2F3030"/>
<path d="M52.3525 46.462V65.964L70.9995 54.931L52.3525 46.462Z" fill="#191326"/>
<path d="M52.3525 24.008V46.462L70.9995 54.931L52.3525 24.008Z" fill="#2F3030"/>
<path d="M52.3521 69.841V84.992L33.7051 58.808L52.3521 69.841Z" fill="#828384"/>
<path d="M52.3521 46.462V65.964L33.7051 54.931L52.3521 46.462Z" fill="#343535"/>
<path d="M52.3521 24.008V46.462L33.7051 54.931L52.3521 24.008Z" fill="#828384"/>
<circle cx="21" cy="21.5" r="19.5" fill="#F0B90B" stroke="white" stroke-width="3"/>
<path fill-rule="evenodd" clip-rule="evenodd" d="M12.966 17.469L21.0082 9.42682L24.215 12.6335L16.1727 20.6758L12.966 17.469ZM12.9717 27.0792L25.8242 14.2271L29.0309 17.4339L16.1784 30.286L12.9717 27.0792ZM30.6306 19.0427L17.7785 31.8947L20.9852 35.1015L33.8373 22.249L30.6306 19.0422V19.0427ZM8.16309 22.2707L11.3698 19.0639L14.5765 22.2707L11.3698 25.4774L8.16309 22.2707Z" fill="#FFFDFA"/>
</svg>
