<svg width="99" height="99" viewBox="0 0 99 99" fill="none" xmlns="http://www.w3.org/2000/svg">
<circle cx="53.0039" cy="53.5" r="42.5" fill="#F0B90B" stroke="white" stroke-width="5"/>
<path d="M38.7469 54.5L32.8978 60.39L27.0078 54.5L32.8978 48.61L38.7469 54.5ZM53.0039 40.243L63.078 50.3172L68.968 44.4272L58.8952 34.3939L53.0039 28.5039L37.0806 44.4259L42.9706 50.3158L53.0039 40.243ZM73.11 48.61L67.2608 54.5L73.1508 60.39L78.9999 54.5L73.11 48.61ZM53.0039 68.757L42.9311 58.6828L37.0819 64.5728L53.0039 80.4961L68.9667 64.5333L63.0767 58.6842L53.0039 68.757ZM53.0039 60.39L58.8939 54.5L53.0039 48.61L47.1139 54.5L53.0039 60.39Z" fill="#FFFDFA"/>
<circle cx="21.0039" cy="21.5" r="19.5" fill="#F5F3F3" stroke="white" stroke-width="3"/>
<path d="M20.8535 28.3431V35.1015L29.1713 23.4221L20.8535 28.3431Z" fill="#2F3030"/>
<path d="M20.8535 17.9146V26.6137L29.1713 21.6923L20.8535 17.9146Z" fill="#191326"/>
<path d="M20.8535 7.89856V17.9145L29.1713 21.6923L20.8535 7.89856Z" fill="#2F3030"/>
<path d="M20.853 28.3431V35.1015L12.5352 23.4217L20.853 28.3431Z" fill="#828384"/>
<path d="M20.853 17.9146V26.6137L12.5352 21.6923L20.853 17.9146Z" fill="#343535"/>
<path d="M20.853 7.89859V17.9146L12.5352 21.6923L20.853 7.89859Z" fill="#828384"/>
</svg>
