<svg width="98" height="98" viewBox="0 0 98 98" fill="none" xmlns="http://www.w3.org/2000/svg">
<circle cx="53" cy="53" r="42.5" fill="white" stroke="white" stroke-width="5"/>
<path fill-rule="evenodd" clip-rule="evenodd" d="M53.7483 19.0001C59.7108 18.9969 65.5678 20.5716 70.7246 23.5644C75.7182 26.4808 79.8823 30.626 82.8214 35.6061C88.9749 46.0405 89.064 58.9727 83.0554 69.4911C77.0465 80.0096 65.8617 86.5011 53.7483 86.5C42.5543 86.5186 32.1377 80.9757 25.8868 71.8067L40.8015 57.0683L56.3358 72.4375V46.7974L66.6985 57.0683L84.6875 39.2705C84.2147 38.2614 83.6893 37.2776 83.1133 36.3228C82.7761 35.748 82.4201 35.1918 82.064 34.6542L66.6985 49.8379L51.1642 34.4688V60.1089L40.8015 49.8379L23.2496 67.2034C19.1553 58.555 18.9003 48.5192 22.6527 39.6137C26.0887 31.5277 32.5267 25.0895 40.6125 21.6534C44.7669 19.8905 49.2354 18.9879 53.7483 19.0001Z" fill="url(#paint0_radial)"/>
<circle cx="21" cy="21" r="19.5" fill="#1BA27A" stroke="white" stroke-width="3"/>
<path d="M29 11H13V15.4538H19.0686V22H22.9314V15.4538H29V11Z" fill="white"/>
<path fill-rule="evenodd" clip-rule="evenodd" d="M21.0001 18C27.6275 18 33 19.2115 33 20.7061C33 22.0291 28.7904 23.1303 23.2274 23.3657V33H18.6865V23.3619C13.166 23.119 9 22.0224 9 20.7061C9 19.2115 14.3729 18 21.0001 18ZM10.3129 20.3563C10.3129 21.5154 15.098 22.455 21.0001 22.455C26.9022 22.455 31.6871 21.5154 31.6871 20.3563C31.6871 19.1973 26.9022 18.2576 21.0001 18.2576C15.0978 18.2576 10.3129 19.1973 10.3129 20.3563Z" fill="white"/>
<defs>
<radialGradient id="paint0_radial" cx="0" cy="0" r="1" gradientUnits="userSpaceOnUse" gradientTransform="translate(53.75 19) rotate(90) scale(67.5)">
<stop stop-color="#6CF2DD"/>
<stop offset="1" stop-color="#50D3B4"/>
</radialGradient>
</defs>
</svg>
