<svg width="98" height="103" viewBox="0 0 98 103" fill="none" xmlns="http://www.w3.org/2000/svg">
<circle cx="53" cy="53" r="42.5" fill="white" stroke="white" stroke-width="5"/>
<path d="M22.8916 53.6103C22.8916 70.2354 36.3689 83.7128 52.9941 83.7128C69.6192 83.7128 83.0966 70.2354 83.0966 53.6103C83.0966 36.9851 69.6192 23.5078 52.9941 23.5078C36.3689 23.5078 22.8916 36.9851 22.8916 53.6103Z" fill="#FF263D"/>
<path d="M72.2081 47.6954C71.9612 47.2133 71.3262 46.0139 70.1739 44.6969C68.7981 43.1213 67.7045 42.5333 67.3753 42.3687C67.046 42.2041 65.8466 41.5926 64.9882 41.6632C64.9059 41.6749 64.5179 41.7102 64.0123 41.6632C63.6948 41.6397 63.4008 41.6279 63.389 41.5691C63.3773 41.475 64.1063 41.428 65.0706 41.0988C65.9407 40.8048 66.5874 40.4168 66.9284 40.2169C67.3518 39.9582 67.6928 39.7112 67.9632 39.5113C67.7986 39.4996 67.5634 39.4761 67.2812 39.4173C67.0695 39.382 66.4228 39.2644 65.5997 38.9469C65.3057 38.8293 64.9294 38.6765 64.5061 38.4413C64.4003 38.5118 64.2474 38.5941 64.0593 38.6765C63.2715 39.0292 62.4013 39.0998 62.3543 38.9704C62.319 38.8764 62.7423 38.747 63.8594 38.112C65.1411 37.3947 65.6938 36.9479 65.976 36.701C66.2817 36.4423 66.5051 36.2071 66.658 36.0542C66.3758 36.113 65.9877 36.1954 65.5056 36.2659C65.2352 36.3012 64.1299 36.4423 62.3543 36.3012C60.7198 36.1601 60.2612 35.9249 59.9437 35.6545C59.6968 35.4428 59.4969 35.2664 59.4734 35.0077C59.4028 34.1258 61.4371 33.1616 63.0598 32.8323C63.389 32.7618 63.6713 32.7383 63.8594 32.7148C63.4949 32.6089 62.9775 32.4796 62.3308 32.3855C61.8016 32.315 60.6022 32.1856 58.6855 32.5031C57.8154 32.6442 54.8169 33.1381 51.983 34.8549C51.6303 35.0665 50.8895 35.5369 50.8072 35.4428C50.7484 35.3722 51.1011 35.0312 51.9242 34.1493C52.7121 33.3027 53.2412 32.703 53.7233 32.0915C54.276 31.386 54.8051 30.704 54.664 30.5276C54.5347 30.3748 53.9703 30.8451 52.7238 31.2332C51.9713 31.4683 51.889 31.386 50.6896 31.68C49.6195 31.9387 49.0904 32.0563 48.5142 32.3267C47.2207 32.9147 46.4564 33.7966 46.28 34.0082C45.4452 34.996 45.1041 36.0072 44.9513 36.5952C44.5044 36.5128 43.9753 36.3835 43.3874 36.1483C42.4467 35.772 41.7294 35.2782 41.2355 34.8784C41.1062 35.2429 40.9651 35.8308 41.0591 36.5246C41.0826 36.7363 41.2473 37.9709 42.2115 38.7C42.8229 39.1703 43.4697 39.2056 43.4462 39.3232C43.4226 39.4525 42.5878 39.3114 41.7059 39.4173C40.236 39.5819 39.2012 40.3462 38.3546 40.9812C37.2258 41.816 36.5202 42.6862 36.0264 43.3329C34.2038 45.7435 33.122 48.1658 32.4047 49.9178C31.2288 52.7987 30.4057 54.833 29.8177 57.8315C29.3356 60.2773 28.7594 63.4404 29.6061 66.8269C30.0647 68.6378 30.7584 69.8137 31.3699 70.8602C31.3699 70.8602 31.9461 71.8362 33.0514 72.8004C33.6041 73.2943 33.9921 73.4942 34.4389 73.4824C34.9681 73.4589 35.3091 73.1061 35.3561 73.0708C35.6971 72.7181 35.6618 72.2948 35.7442 71.0719C35.8617 69.1905 35.6383 74.7641 35.8617 69.6608C36.0029 66.4977 36.0616 64.922 36.0734 64.8044C36.1557 61.0651 36.532 57.8903 36.7554 56.1265C36.92 54.7389 37.0494 54.2921 37.261 52.5636C37.4139 51.2936 37.4845 50.447 37.7314 49.0594C37.8255 48.5303 37.9313 47.9188 38.1194 47.178C38.3428 46.2491 38.7191 44.9909 39.3423 43.5093C39.3306 43.7327 39.2953 44.062 39.2248 44.45C39.1424 44.8616 39.0601 45.132 39.1072 45.1555C39.1542 45.1791 39.2953 44.9086 39.6598 44.45C39.8597 44.2031 39.9773 44.0385 40.0126 44.062C40.0596 44.0855 39.8715 44.497 39.2718 45.7905C39.0013 46.3784 38.8602 46.6724 38.8367 46.7312C38.5427 47.5308 38.5427 48.1187 38.484 48.8125C38.4134 49.6591 38.3076 49.7415 38.0136 51.2466C37.6373 53.1985 37.4609 54.7624 37.2258 57.0084C37.0847 58.3371 37.0023 59.3954 36.9553 60.0304C36.8612 61.1592 36.8024 62.147 36.7554 62.9348C36.9788 63.3228 37.2493 63.7344 37.5785 64.1459C38.3428 65.1337 39.166 65.8392 39.848 66.3448C40.1067 66.9563 40.4477 67.6736 40.9063 68.4261C41.3296 69.1081 41.7647 69.6843 42.1645 70.1547C42.0821 69.7078 42.0233 69.1552 42.0469 68.5084C42.0704 67.9323 42.1527 67.4266 42.2468 67.0151C42.282 67.2855 42.3526 67.5795 42.4467 67.897C42.4819 68.0146 42.529 68.1322 42.5642 68.2498C43.0934 68.6378 43.2345 68.6966 43.2698 68.6613C43.3051 68.626 43.1757 68.4614 43.0346 68.0734C42.9758 67.9205 42.917 67.7676 42.9405 67.7441C42.9993 67.7088 43.6343 68.6731 44.0929 69.5432C44.9748 71.2365 44.9513 72.4711 45.1865 72.4594C45.4451 72.4476 45.6686 70.8837 45.6921 69.6608C45.7038 69.1434 45.6686 68.6495 45.7509 68.626C45.8214 68.6143 46.0213 68.9788 46.0213 69.3668C46.0213 69.5785 45.9508 69.6843 46.0213 69.8372C46.0919 69.9901 46.2565 70.0606 46.3741 70.1076C46.3741 69.8137 46.3859 69.5079 46.4211 69.1669C46.5034 68.3673 46.7033 67.6971 46.9032 67.1679C46.7504 67.0974 46.5387 66.9916 46.28 66.8387C44.3281 65.6628 43.5873 63.6403 43.1875 62.5703C42.3526 60.3008 42.4819 58.2548 42.6583 57.1024C42.5878 56.9849 42.4937 56.8085 42.4231 56.5968C42.1292 55.7267 42.3761 54.8565 42.4584 54.8565C42.5172 54.8565 42.4231 55.3386 42.6113 55.9736C42.7054 56.2793 42.917 56.8202 43.6696 57.5375C45.1394 58.9368 46.9268 59.4424 46.9385 59.4542C50.1369 60.3714 53.0766 58.6899 53.6293 58.3606C53.7939 58.4547 54.0291 58.6076 54.323 58.7839C55.0168 59.2073 55.8399 59.7011 56.0868 59.8422C57.8389 60.8417 60.0848 60.7594 60.4964 60.7359C61.4253 60.6889 62.1191 60.6536 62.8481 60.1597C63.6242 59.6423 63.9887 58.9133 64.1534 58.5135C64.1769 58.6546 64.2004 58.831 64.1651 59.0309C64.0593 59.6894 63.5302 60.0539 63.4008 60.1362C63.3538 60.3831 63.2832 60.7241 63.1539 61.1239C62.9305 61.8059 62.6247 62.3939 61.9662 63.4169C61.2489 64.5222 60.8844 65.0631 60.3788 65.6393C59.8261 66.2508 58.9677 67.0856 57.686 67.8617C57.6743 68.4379 57.6272 69.0846 57.5214 69.7901C57.3098 71.2012 56.8982 72.3771 56.5102 73.2943C56.6395 73.1767 56.7806 73.0473 56.91 72.8945C57.8389 71.8597 58.1446 70.6485 58.2622 69.8019C58.4621 70.1547 58.6267 70.4369 58.7443 70.625C59.1912 71.3423 59.4734 71.8009 59.9672 72.2595C60.1789 72.4594 60.367 72.6005 60.4846 72.6828C60.4376 72.4947 60.3906 72.3065 60.3553 72.0949C60.1201 70.7308 60.4023 69.5315 60.708 68.6966C60.708 69.2492 60.7198 69.8137 60.7433 70.4016C60.7668 71.0601 60.8139 71.7068 60.8609 72.3183C61.2019 71.9067 61.5782 71.4481 61.931 70.9072C62.3308 70.3193 62.6482 69.7431 62.9187 69.2257C63.4243 69.0141 63.9887 68.7319 64.5767 68.3321C66.1288 67.2738 66.9402 66.0273 67.2224 65.5687C67.8103 64.5928 68.0338 63.7932 68.3513 62.6173C69.0921 59.854 69.045 57.6198 69.0333 57.1612C68.9862 55.7619 68.7393 54.5978 68.2337 52.2461C67.8809 50.5646 67.6457 49.9178 67.4693 49.4828C66.8814 48.0129 66.1053 46.8841 66.1759 46.837C66.2464 46.79 67.1283 48.2011 67.3282 48.107C67.5046 48.0129 66.9637 46.6371 66.9755 46.6371C66.9872 46.6371 67.728 48.3069 68.4218 50.7527C68.5982 51.3759 68.9745 52.7987 69.7505 57.6904C70.0798 59.7834 70.2444 60.8417 70.3385 61.6296C70.3385 61.6296 70.75 65.3924 70.7853 70.4839C70.7853 70.8132 70.7853 71.4011 70.8324 72.2242C70.8676 72.8827 70.9382 73.8116 70.9382 73.8116C70.9617 73.894 71.0087 74.0233 71.1146 74.1409C71.3027 74.329 71.5732 74.3408 71.7025 74.3525C72.5962 74.3761 73.5251 73.6823 73.5251 73.6705C74.2777 73.1061 75.5711 72.1301 76.406 70.1664C76.6294 69.6373 76.7705 69.0729 77.0527 67.9323C77.4173 66.4624 77.6289 65.1807 77.6995 64.6633C78.0287 62.1705 77.3232 59.5718 76.7588 57.5728C75.9592 54.9036 74.701 52.5048 72.2081 47.6954Z" fill="#F6EDEB"/>
<path d="M32.9336 72.2485C33.3099 72.4602 33.8155 72.6483 34.2506 72.472C34.862 72.225 35.0855 71.3549 35.2854 68.8385C35.497 66.1693 35.3912 65.3461 35.5793 63.4882C35.7557 61.7715 36.1202 59.7725 36.2849 59.7842C36.5906 59.8195 36.2849 65.6871 35.8145 70.3083C35.7204 71.1785 35.6381 71.9075 35.5793 72.4249C35.5441 72.5308 35.3912 72.9188 34.9914 73.1305C34.4858 73.4009 33.9684 73.1893 33.8155 73.1305C33.2276 72.8953 32.9924 72.3779 32.9336 72.2485Z" fill="#C4B6B3"/>
<path d="M73.7952 73.188C73.7364 73.0234 73.0074 73.3997 72.3254 73.0705C72.0314 72.9293 71.4317 72.506 71.0907 70.3659C70.8555 68.9196 70.9378 67.9084 70.9731 67.0147C71.0672 64.3337 70.7027 61.8408 70.5615 61.8408C70.3734 61.8408 70.0089 66.3209 70.5615 71.4242C70.6674 72.3884 70.785 73.1998 70.8908 73.8113C71.1495 73.9171 71.5493 74.0347 72.0432 74.0229C73.0074 73.9641 73.854 73.3762 73.7952 73.188Z" fill="#C4B6B3"/>
<path d="M67.6219 49.7883C67.5984 49.7883 67.5984 49.8706 67.6807 51.2816C67.716 51.8578 67.7395 52.6221 67.7395 53.6099C67.7395 54.1155 67.7395 55.6088 67.7395 55.6088C67.6454 55.3384 68.1628 56.0792 68.1511 56.3732C68.1511 56.5378 68.0335 56.7612 67.5631 57.0199C67.5396 57.4902 67.4808 58.2193 67.2692 59.0777C67.0693 59.9125 66.9282 60.0301 66.3873 61.547C65.7405 63.3461 65.8111 63.5225 65.4466 63.8988C65.0115 64.3456 64.3765 64.5102 63.0948 64.8395C61.2252 65.3216 60.7195 65.1099 60.0375 65.7214C59.6965 66.0389 59.6025 66.2858 59.038 66.7209C58.4031 67.203 58.1561 67.156 57.8034 67.4264C56.992 68.0614 57.3918 69.0256 56.8627 71.0128C56.4394 72.6003 55.7926 73.4116 55.9808 73.541C56.1807 73.6821 57.1802 73.0353 57.7446 72.0711C57.968 71.6831 58.0621 71.3656 58.3325 71.3068C58.4736 71.2833 58.6382 71.3303 59.3908 71.9535C60.0728 72.5179 60.2139 72.7061 60.4609 72.6943C60.5902 72.6826 60.7195 72.612 61.1429 72.0241C61.625 71.3656 61.9895 70.86 62.3305 70.0368C62.4716 69.6958 62.5657 69.4019 62.6245 69.1902C62.9184 69.0256 63.2242 68.8492 63.5416 68.6611C64.1061 68.3201 64.6234 67.9673 65.0938 67.6263C65.5171 67.3441 66.1168 66.8855 66.693 66.1682C67.4926 65.157 67.7983 64.1692 68.1511 63.0286C68.6214 61.4882 68.7508 60.2653 68.786 59.9713C69.2564 55.2208 67.7865 49.753 67.6219 49.7883Z" fill="#C4B6B3"/>
<path d="M40.6707 43.3218C40.7178 43.3453 40.5414 43.898 40.3297 44.3448C40.318 44.3683 40.3062 44.3918 40.2827 44.4389C39.9652 45.1091 39.8829 45.215 39.9299 45.262C40.0357 45.3796 40.5884 45.0503 40.6119 45.0856C40.6354 45.1209 40.1533 45.3325 39.8123 45.7323C39.4713 46.1439 39.4125 46.6142 39.3655 46.9082C38.9892 49.9773 38.9775 50.6358 38.9775 50.6475C38.9422 54.281 38.7776 54.4809 38.9422 56.2917C39.0245 57.1854 39.1421 57.9144 39.2361 58.4083C39.5889 58.8199 39.8946 59.1609 40.1181 59.4078C40.9177 60.278 41.4821 60.9012 42.2934 61.6185C42.4228 61.736 42.6109 61.8301 42.7991 62.0653C43.046 62.3828 43.093 62.6297 43.3282 63.2176C43.3282 63.2176 43.387 63.3705 43.681 63.982C44.363 65.4165 46.6442 65.8046 46.8911 67.1921C46.9734 67.6742 46.6795 67.5684 46.5971 68.6972C46.5148 69.6967 46.7147 70.2259 46.3267 70.755C46.115 71.049 45.9974 70.9784 45.7623 71.2842C45.2214 72.0015 45.4918 72.9069 45.3742 72.9304C45.2331 72.9539 44.704 71.5899 44.0808 69.5791C43.9632 69.2029 43.681 68.2974 43.2812 68.2857C43.0578 68.2857 42.9519 68.5561 42.752 68.5209C42.3875 68.4503 42.3169 67.4273 42.2464 67.4273C42.1523 67.4391 42.411 69.685 42.1288 69.7555C42.023 69.779 41.9289 69.4968 41.4233 68.7208C41.0352 68.1328 40.9764 68.1211 40.7178 67.686C40.3062 67.004 40.3297 66.8393 40.071 66.416C39.6947 65.8281 39.3185 65.6635 38.7776 65.2049C38.5424 65.0167 37.1078 63.8173 36.7433 62.2887C36.5904 61.642 36.7315 61.3245 36.9314 60.0428C37.2372 58.0908 37.002 58.326 37.3077 55.9507C37.5429 54.1281 37.731 53.5872 38.2719 50.33C38.2837 50.236 38.3895 49.6245 38.5424 48.8014C38.7188 47.8372 38.8011 47.3551 38.8599 47.1552C39.1186 46.1557 39.4831 45.4384 39.9182 44.5682C40.1768 44.1096 40.6002 43.2983 40.6707 43.3218Z" fill="#C4B6B3"/>
<path d="M56.6043 54.2331C55.0874 53.1748 53.4765 53.116 51.7949 53.7627C51.7244 53.5275 51.9243 53.504 52.0536 53.4099C52.7474 52.9631 53.4765 52.6103 54.3466 52.6926C55.3814 52.7867 56.2045 53.2218 56.7454 54.1155C56.6984 54.1507 56.6513 54.186 56.6043 54.2331Z" fill="#D6C8C5"/>
<path d="M56.7448 54.0922C57.6855 55.0917 57.6385 55.4679 56.4861 56.244C54.4401 57.608 53.1937 57.5728 51.23 55.1152C50.9713 54.6448 51.1124 54.245 51.4534 53.8687C51.618 53.7276 51.7826 53.6101 51.959 53.4925C53.2525 52.9163 54.5695 52.8457 55.8747 53.4219C56.2275 53.563 56.592 53.7041 56.7448 54.0922Z" fill="#160909"/>
<path d="M51.4541 54.4335C51.8421 53.9279 52.3595 53.6575 52.9827 53.5634C54.2174 53.3635 55.3933 53.4458 56.4398 54.2219C56.7456 54.457 57.0631 54.704 57.0983 55.1391C56.9807 55.433 56.7338 55.5271 56.4634 55.5976C54.9582 55.9622 53.5001 55.7505 52.1126 55.1155C51.8069 54.9862 51.5247 54.8098 51.4541 54.4335Z" fill="#4A3132"/>
<path d="M51.4541 54.4336C51.9832 55.0215 52.6888 55.2097 53.4178 55.3861C54.4526 55.6448 55.4874 55.6918 56.5339 55.3978C56.7456 55.339 56.9337 55.2567 57.1101 55.1391C57.1571 55.633 56.7103 55.7271 56.4398 55.9387C55.9577 56.315 55.4403 56.656 54.8406 56.8324C54.2174 57.0205 53.6765 56.9618 53.1709 56.5267C52.7828 56.1857 52.336 55.9152 51.9597 55.5742C51.6305 55.2685 51.4659 54.8804 51.4541 54.4336Z" fill="#391E1D"/>
<path d="M68.1178 56.3697C68.1793 55.671 66.9495 54.992 65.3709 54.8531C63.7924 54.7142 62.4628 55.168 62.4014 55.8667C62.3399 56.5654 63.5697 57.2444 65.1483 57.3833C66.7268 57.5223 68.0564 57.0684 68.1178 56.3697Z" fill="#F68085"/>
<path d="M45.2682 53.0523C45.3297 52.3536 44.0999 51.6746 42.5213 51.5357C40.9428 51.3968 39.6132 51.8506 39.5518 52.5493C39.4903 53.248 40.7201 53.9271 42.2987 54.066C43.8772 54.2049 45.2067 53.7511 45.2682 53.0523Z" fill="#F68085"/>
<path d="M41.9055 49.7294C41.929 49.8823 42.0819 50.0117 42.2347 50.0587C42.5287 50.1528 42.7992 49.9293 43.0931 49.7647C43.4459 49.5648 43.8339 49.4825 44.5982 49.3179C45.0216 49.2356 45.7153 49.0827 46.5384 49.2591C46.9735 49.3532 48.2552 49.6119 48.5374 50.435C48.6315 50.7054 48.608 51.0111 48.8902 51.2934C48.9372 51.3404 49.1959 51.5991 49.4193 51.5285C49.7016 51.4462 49.7839 50.8818 49.7486 50.4938C49.6663 49.8 49.1019 49.3414 48.8667 49.165C47.973 48.4713 46.9735 48.4242 45.7859 48.3889C45.7859 48.3889 43.54 48.3184 42.2818 49.2356C42.1407 49.3179 41.8702 49.506 41.9055 49.7294Z" fill="#000813"/>
<path d="M59.3908 51.317C59.9788 50.6938 60.7901 50.6115 61.4251 50.5527C61.6485 50.5292 62.5657 50.4586 63.6358 50.8467C63.7533 50.8937 64.1296 51.0936 64.8704 51.4934C64.8704 51.4934 65.7759 51.9873 66.5167 52.7634C66.5872 52.8339 66.7166 52.9868 66.693 53.1514C66.6813 53.2455 66.6107 53.3513 66.5167 53.3866C66.305 53.4806 66.011 53.2337 65.8346 53.0926C65.8346 53.0926 65.7876 53.0573 64.4589 52.2342C64.1061 52.0226 63.4946 51.6345 62.6598 51.5052C62.1894 51.4346 61.4839 51.317 60.8372 51.6815C60.4844 51.8814 60.0964 52.1049 59.8377 52.5399C59.7436 52.6928 59.6613 52.8809 59.4496 52.9515C59.2615 53.0103 59.0028 52.9515 58.8852 52.7986C58.65 52.4811 58.9793 51.7521 59.3908 51.317Z" fill="#000813"/>
<path d="M60.6259 46.7784C60.6141 46.8019 60.6141 46.8725 60.5671 46.9078C60.0144 47.4016 59.4735 47.9073 58.8973 48.3776C58.7092 48.5305 58.6269 48.3776 58.6504 48.1777C58.7092 47.7191 59.9086 46.4962 60.3437 46.4609C60.5318 46.4492 60.6376 46.5432 60.6259 46.7784Z" fill="#130F0C"/>
<path d="M50.1608 47.1671C50.2784 47.0966 50.1726 46.6145 49.8904 46.2852C49.7963 46.1676 49.761 46.1794 49.5376 45.9912C48.9849 45.5444 48.9497 45.3327 48.5969 45.1916C48.5381 45.1681 48.1618 45.0388 48.0325 45.1916C47.9502 45.2975 48.0325 45.4974 48.0677 45.5444C48.4087 45.7678 48.6557 45.9795 48.8321 46.1323C49.0555 46.3322 49.2671 46.5439 49.6317 46.8379C49.9374 47.0966 50.0903 47.2141 50.1608 47.1671Z" fill="#000813" stroke="#000813" stroke-miterlimit="10"/>
<path d="M38.2134 41.2285C38.0135 42.1692 37.8018 43.0982 37.6019 44.0389C36.4613 46.7787 35.3325 49.5302 34.1919 52.27C33.9096 53.8927 33.6274 55.5154 33.3452 57.1381C33.0983 58.3963 32.8984 59.9014 32.8514 61.6065C32.8161 63.0998 32.8984 64.4521 33.0513 65.6044C32.8749 66.0748 32.6985 66.5451 32.5221 67.0155C32.4163 67.0743 32.0165 67.3095 31.4873 67.2154C31.1934 67.1684 30.9935 67.0037 30.4643 66.5334C30.1586 66.2512 29.7706 65.8866 29.3237 65.4516C29.0768 64.3345 28.8651 62.7353 29.0062 60.8304C29.065 60.0308 29.2179 59.6192 30.0998 56.1386C30.9229 52.8932 30.8288 53.2107 30.9229 52.8697C31.8989 49.4479 33.0983 47.0726 33.4158 46.4494C35.0267 43.2981 36.1673 42.3456 37.061 41.8047C37.5313 41.5107 37.9311 41.3343 38.2134 41.2285Z" fill="url(#paint0_linear)"/>
<path d="M69.7383 43.6504C70.0205 44.6146 70.3145 45.5788 70.5967 46.5548C71.314 48.9301 72.0312 51.3171 72.7485 53.6924L73.5716 58.8662C73.8186 60.1244 74.0185 61.6296 74.0655 63.3346C74.1008 64.8279 74.0185 66.1802 73.8656 67.3326C74.042 67.8029 74.2184 68.2733 74.3948 68.7436C74.677 68.7319 75.0768 68.6966 75.5354 68.579C75.7352 68.532 76.1468 68.4261 76.4525 68.2497C77.1228 67.8735 77.405 67.0739 77.5696 66.3919C78.1458 64.0048 77.8166 61.5237 77.8166 61.5237C77.6167 60.0068 77.2169 57.9255 76.4055 55.4915C75.3472 53.1868 74.2772 50.882 73.2189 48.5773C72.0548 46.9311 70.9024 45.2966 69.7383 43.6504Z" fill="url(#paint1_linear)"/>
<path d="M70.3033 44.8153C71.2087 47.7785 71.973 50.777 72.7491 53.7755C72.7961 53.9636 72.8549 54.1518 72.902 54.3399C73.5252 56.4683 73.8074 58.2556 73.9485 59.5256C74.3013 62.7945 74.313 65.2286 74.313 66.3692C74.313 66.8983 74.2425 67.4157 74.3836 67.9448C74.4894 68.3329 74.6893 68.4505 75.0891 68.474C76.1591 68.5445 76.7706 67.8861 77.3703 67.1688C77.4291 67.6156 77.0175 67.8625 76.8999 68.2388C76.312 68.8385 75.5712 68.9443 74.7951 68.862C74.1719 68.8032 73.8309 68.3211 73.8192 67.545C73.8074 66.0987 73.8074 64.6406 73.7721 63.1943C73.7016 60.0665 73.0313 57.0209 72.2788 53.9989C71.5967 51.2709 70.9147 48.5428 70.0799 45.8501C69.8917 45.2504 69.8564 44.6154 69.8564 43.9922C70.0563 44.2274 69.8094 44.733 70.3033 44.8153Z" fill="#140705"/>
<path d="M33.486 53.8219C33.6742 52.6813 34.1328 51.623 34.4973 50.553C35.1323 48.7068 35.9789 46.943 36.8138 45.191C37.3782 44.0151 37.8956 42.8039 37.8603 41.4517C38.0014 41.3106 38.1543 41.1577 38.2954 41.0166C38.4012 42.9098 37.6134 44.556 36.8138 46.1905C35.8378 48.213 34.9206 50.2708 34.3209 52.4344C33.2509 56.303 32.8158 60.254 33.0039 64.2755C33.0275 64.8634 33.1215 65.4514 33.0157 66.0275C32.7452 67.4268 31.4635 67.8854 30.3347 66.9918C30.1348 66.8389 29.9584 66.6508 29.7703 66.4744C29.6527 66.3568 29.6174 66.4156 29.5821 66.5332C29.5116 66.1804 29.4175 65.8276 29.4998 65.4631C29.9231 65.8864 30.2171 66.4273 30.7345 66.7683C31.1461 67.0388 31.5694 67.0976 32.0044 66.8977C32.463 66.686 32.5453 66.2627 32.5453 65.8159C32.5453 64.593 32.6159 63.3583 32.5453 62.1354C32.4866 61.0771 32.6159 59.9835 32.8628 57.7964C32.9922 56.7028 33.1215 55.8444 33.1803 55.4917C33.2979 54.8449 33.4037 54.2805 33.486 53.8219Z" fill="#120604"/>
<path d="M64.1174 41.7104C63.6118 41.9927 63.1532 41.6869 62.6594 41.5929C63.2826 41.3694 63.9175 41.1813 64.4937 40.8873C64.4584 40.6639 64.2468 40.8638 64.1527 40.711C64.8347 40.5111 65.3991 40.1348 66.1399 39.782C65.3404 39.6644 64.6819 39.5351 64.0116 39.4763C63.4237 39.4175 62.8945 39.1941 62.3301 39.0765C62.3184 39.0765 62.3184 39.0412 62.3184 39.0294C62.3301 39.0177 62.3419 39.0059 62.3654 38.9942C63.0004 39.0765 63.5413 38.7708 64.1174 38.5944C64.2586 38.5473 64.3644 38.3827 64.5408 38.4768C65.5755 39.053 66.7279 39.2764 67.9743 39.488C66.575 40.511 65.0817 41.099 63.5295 41.6399C63.7177 41.7575 63.9293 41.6634 64.1174 41.7104Z" fill="#C8BEB8"/>
<path d="M50.8308 35.4785C49.9254 35.7725 49.1493 36.4192 48.0439 36.4074C48.5496 35.9488 49.1258 35.7489 49.5373 35.3256C50.4192 34.7142 51.2188 33.9969 52.0067 33.2796C52.5241 32.8093 53.0062 32.2801 53.5118 31.798C53.6411 31.6804 53.7235 31.4335 53.9821 31.5746C53.4177 32.5976 52.6534 33.4442 51.8185 34.2321C51.4893 34.5378 51.1718 34.8553 50.8661 35.1845C50.8073 35.2433 50.5721 35.3491 50.8308 35.4785Z" fill="#C1B6B3"/>
<path d="M59.4259 35.0075C59.179 35.1956 59.3201 35.6307 58.9556 35.7365C58.9085 34.7488 60.0138 33.079 61.0721 32.7616C61.3426 32.6792 61.6483 32.644 61.86 32.4206C62.4949 32.35 63.0946 32.5381 63.8472 32.691C62.1187 33.1496 60.4607 33.5024 59.4259 35.0075Z" fill="#BFB5AC"/>
<path d="M63.2832 38.3949C63.0951 38.1597 62.7894 38.2185 62.4131 38.0657C63.3891 37.7247 64.2475 37.3954 65.1882 36.9603C64.4356 36.784 63.7771 36.6664 63.1539 36.4312C64.2827 36.4312 65.4116 36.3254 66.6698 35.9844C65.6585 37.1132 64.5297 37.8423 63.2832 38.3949Z" fill="#C6BAB5"/>
<path d="M41.1765 35.0898C41.5645 36.5009 42.1877 37.7826 43.152 38.8997C43.246 39.0173 43.4107 39.0878 43.3989 39.276C41.541 38.7351 40.4592 36.7008 41.1765 35.0898Z" fill="#C4B9B7"/>
<path d="M77.6524 64.6638C77.5818 65.1812 77.3702 66.4512 77.0057 67.9328C76.7234 69.0734 76.5823 69.6378 76.3589 70.1669C75.524 72.1307 74.2306 73.0949 73.478 73.6711C73.478 73.6711 72.5491 74.3766 71.6554 74.3531C71.5261 74.3531 71.2556 74.3413 71.0675 74.1414C70.9616 74.0356 70.9146 73.8945 70.8911 73.8122C70.8911 73.8122 70.8205 72.8832 70.7853 72.2247C70.7382 71.4134 70.7382 70.8137 70.7382 70.4844C70.7147 65.3929 70.2914 61.6418 70.2914 61.6301C70.1973 60.8422 70.0327 59.7839 69.7035 57.6909C68.9274 52.7992 68.5511 51.3764 68.3747 50.7532C67.6927 48.3074 66.9401 46.6376 66.9284 46.6376C66.9166 46.6376 67.4575 48.0134 67.2812 48.1075C67.093 48.2015 66.2111 46.8022 66.1288 46.8375C66.0582 46.8846 66.8343 48.0134 67.4223 49.4832C67.5986 49.9183 67.8338 50.5651 68.1866 52.2466C68.6922 54.5866 68.9391 55.7624 68.9862 57.1617C68.9979 57.6203 69.0567 59.8545 68.3042 62.6178C67.9867 63.7937 67.7633 64.5933 67.1753 65.5693C66.8931 66.0279 66.0818 67.2743 64.5296 68.3326C63.9417 68.7324 63.3655 69.0263 62.8716 69.2262C62.6129 69.7436 62.2837 70.3081 61.8839 70.9077C61.5194 71.4487 61.1548 71.9072 60.8138 72.3188C60.7668 71.7073 60.7198 71.0724 60.6962 70.4021C60.6727 69.8142 60.661 69.2498 60.661 68.6971C60.3552 69.532 60.073 70.7314 60.3082 72.0954C60.3435 72.307 60.3905 72.4952 60.4375 72.6833C60.32 72.601 60.1318 72.4599 59.9202 72.26C59.438 71.8014 59.1441 71.3428 58.6972 70.6255C58.5797 70.4374 58.4033 70.1552 58.2151 69.8024C58.0975 70.6373 57.7918 71.8485 56.8629 72.895C56.7335 73.0361 56.6042 73.1772 56.4631 73.2948C56.8629 72.3894 57.2627 71.2135 57.4743 69.7907C57.5802 69.0969 57.6272 68.4502 57.639 67.8622C58.9089 67.0861 59.7791 66.2513 60.3317 65.6398C60.8373 65.0754 61.2019 64.5227 61.9192 63.4174C62.5894 62.3944 62.8834 61.8065 63.1068 61.1244C63.2361 60.7246 63.3067 60.3836 63.3537 60.1367C63.4831 60.0544 64.0122 59.6899 64.118 59.0314C64.1533 58.8315 64.1298 58.6551 64.1063 58.514C63.9417 58.9138 63.5654 59.6428 62.8011 60.1602C62.072 60.6423 61.3782 60.6894 60.4493 60.7364C60.0377 60.7599 57.7918 60.8305 56.0398 59.8427C55.7928 59.7016 54.9697 59.2078 54.2759 58.7844C53.982 58.6081 53.7468 58.4552 53.5822 58.3611C53.0295 58.6904 50.0898 60.3601 46.8914 59.4547C46.8914 59.4547 45.0923 58.9373 43.6225 57.538C42.8699 56.8207 42.6583 56.2916 42.5642 55.9741C42.3761 55.3391 42.4701 54.857 42.4113 54.857C42.3408 54.857 42.0821 55.7154 42.3761 56.5973C42.4466 56.809 42.5407 56.9736 42.6112 57.1029C42.4349 58.2553 42.3055 60.3013 43.1404 62.5708C43.5284 63.6291 44.2692 65.6516 46.2329 66.8392C46.4799 66.9921 46.7033 67.0979 46.8562 67.1685C46.6563 67.6976 46.4564 68.3679 46.3741 69.1675C46.3388 69.5085 46.327 69.8142 46.327 70.1082C46.2094 70.0729 46.0448 69.9906 45.9743 69.8377C45.9037 69.6848 45.9743 69.579 45.9743 69.3674C45.986 68.9793 45.7861 68.6265 45.7038 68.6265C45.6215 68.6383 45.6568 69.1322 45.645 69.6613C45.6333 70.8725 45.4098 72.4364 45.1394 72.4599C44.9042 72.4717 44.9395 71.2488 44.0458 69.5437C43.5872 68.6736 42.964 67.7211 42.8935 67.7446C42.8699 67.7564 42.9287 67.921 42.9875 68.0739C43.1286 68.4619 43.258 68.6265 43.2227 68.6618C43.1874 68.6971 43.0463 68.6383 42.5172 68.2503C42.4819 68.1327 42.4349 68.0151 42.3996 67.8975C42.3055 67.58 42.2467 67.286 42.1997 67.0156C42.1056 67.4272 42.0233 67.921 41.9998 68.509C41.9763 69.1557 42.0351 69.7084 42.1174 70.1552C41.7176 69.6848 41.2825 69.1087 40.8592 68.4266C40.4006 67.6741 40.0596 66.9686 39.8009 66.3453C39.1071 65.8397 38.2958 65.1342 37.5315 64.1464C37.2022 63.7231 36.9318 63.3116 36.7083 62.9353C36.7554 62.1475 36.8142 61.1715 36.9082 60.0309C36.9553 59.3959 37.0376 58.3494 37.1787 57.0089C37.4139 54.7629 37.5785 53.199 37.9665 51.2471C38.2605 49.7419 38.3663 49.6596 38.4369 48.813C38.4957 48.131 38.4957 47.543 38.7896 46.7317C38.8132 46.6729 38.9543 46.3789 39.2247 45.791C39.8244 44.4975 40.0126 44.0977 39.9655 44.0624C39.9302 44.0389 39.8127 44.2036 39.6128 44.4505C39.2482 44.9091 39.1189 45.1795 39.0601 45.156C39.0131 45.1325 39.0954 44.862 39.1777 44.4505C39.2482 44.0624 39.2835 43.7332 39.2953 43.5098C38.6603 44.9796 38.2958 46.2496 38.0724 47.1785C37.896 47.9193 37.7784 48.5308 37.6843 49.0599C37.4374 50.4475 37.3668 51.2823 37.214 52.564C37.0023 54.2808 36.8847 54.7277 36.7083 56.127C36.4967 57.8908 36.1086 61.0539 36.0263 64.8049C36.0263 64.9225 35.9558 66.4982 35.8147 69.6613C35.5913 74.7646 35.8147 69.191 35.6971 71.0724C35.6148 72.2953 35.6618 72.7186 35.309 73.0714C35.2738 73.1066 34.921 73.4594 34.3919 73.4829C33.9568 73.5064 33.5687 73.2948 33.0043 72.8009C31.9108 71.8367 31.3346 70.8607 31.3228 70.8607C30.7114 69.8259 30.0176 68.6501 29.559 66.8275C28.7006 63.4409 29.2886 60.2778 29.7707 57.832C30.3586 54.8335 31.1817 52.811 32.3576 49.9183C33.0749 48.1663 34.1567 45.744 35.9793 43.3334C36.4614 42.6867 37.1787 41.8165 38.3075 40.9816C39.1542 40.3584 40.1889 39.5941 41.6588 39.4177C42.5407 39.3237 43.3756 39.4648 43.3991 39.3237C43.4226 39.2061 42.7759 39.1708 42.1644 38.7004C41.2002 37.9714 41.0473 36.7367 41.0121 36.5251C40.918 35.8313 41.0591 35.2434 41.1884 34.8788C41.6705 35.2786 42.3878 35.7725 43.3403 36.1488C43.9165 36.3722 44.4456 36.5133 44.9042 36.5956C45.0453 36.0077 45.3863 34.9964 46.2329 34.0087C46.4093 33.797 47.1736 32.9269 48.4671 32.3272C49.0433 32.0567 49.5724 31.9391 50.6425 31.6804C51.8301 31.3982 51.9242 31.4806 52.6768 31.2336C53.9232 30.8456 54.4876 30.3752 54.617 30.5281C54.7581 30.6927 54.2289 31.3747 53.6762 32.092C53.1941 32.7035 52.665 33.3032 51.8772 34.1498C51.054 35.0317 50.7013 35.3727 50.7601 35.4433C50.8424 35.5373 51.5832 35.067 51.936 34.8553C54.7698 33.1385 57.7683 32.6447 58.6385 32.5036C60.5551 32.1861 61.7545 32.3154 62.2837 32.386C62.9304 32.4683 63.4478 32.6094 63.8123 32.7152C63.6242 32.7387 63.3537 32.7623 63.0127 32.8328C61.39 33.1621 59.3557 34.1263 59.4263 35.0082C59.4498 35.2669 59.6497 35.4433 59.8966 35.6549C60.2141 35.9254 60.6727 36.1605 62.3072 36.3017C64.071 36.4428 65.1881 36.3134 65.4585 36.2664C65.9407 36.2076 66.3287 36.1253 66.6109 36.0547C66.4698 36.2076 66.2346 36.4428 65.9289 36.7014C65.6467 36.9484 65.094 37.3952 63.8123 38.1125C62.707 38.7357 62.2837 38.8651 62.3072 38.9709C62.3542 39.1002 63.2244 39.0297 64.0122 38.6769C64.1886 38.5946 64.3415 38.5123 64.459 38.4417C64.8824 38.6652 65.2469 38.8298 65.5526 38.9474C66.3757 39.2649 67.0225 39.3825 67.2341 39.4177C67.5046 39.4648 67.7397 39.4883 67.9161 39.5118C67.6574 39.7117 67.3164 39.9586 66.8814 40.2173C66.5403 40.4172 65.9054 40.8053 65.0235 41.0992C64.071 41.4285 63.342 41.4755 63.342 41.5696C63.3537 41.6284 63.6359 41.6284 63.9652 41.6637C64.4708 41.7107 64.8471 41.6754 64.9412 41.6637C65.7878 41.5931 66.9989 42.2046 67.3282 42.3692C67.6457 42.5338 68.751 43.11 70.1268 44.6974C71.2674 46.0144 71.9023 47.2138 72.161 47.6959C74.6539 52.5053 75.9121 54.904 76.6647 57.5733C77.2643 59.5723 77.9816 62.171 77.6524 64.6638ZM77.5583 57.0794C76.747 54.0104 75.7122 52.0114 73.9131 48.5543C72.2786 45.4265 71.4202 44.3917 70.5618 43.5803C69.1273 42.2398 67.6457 41.4873 66.6227 41.0522C66.8578 40.9464 67.1165 40.8053 67.387 40.6406C68.1278 40.1703 68.6569 39.6176 69.0097 39.1708C68.5629 39.0767 68.1043 38.9709 67.6222 38.8415C66.752 38.6181 65.9407 38.3712 65.1763 38.1007C65.3174 38.0184 65.5173 37.8891 65.7643 37.7127C66.6697 37.0895 67.1283 36.772 67.387 36.2076C67.4693 36.0194 67.5751 35.7255 67.5634 35.2904C67.2929 35.3845 66.9166 35.5138 66.4463 35.6196C65.4703 35.8313 64.7177 35.796 63.9181 35.7725C63.3772 35.749 62.4013 35.6784 61.2371 35.3022C60.6492 35.114 60.4493 34.9847 60.4375 34.8318C60.414 34.5378 61.0725 34.2556 61.8721 33.9029C62.3895 33.6794 62.8246 33.5266 63.0833 33.4443C64.4708 32.9857 64.9412 32.9974 64.9647 32.8211C64.9999 32.5153 63.5301 32.0215 62.0838 31.7863C61.5664 31.704 59.7791 31.457 57.345 31.9391C56.4278 32.1155 55.1579 32.4565 53.7233 33.115C53.9114 32.8563 54.0996 32.5741 54.2877 32.2919C54.6405 31.751 54.958 31.2101 55.2284 30.7045C55.2284 30.4811 55.2284 30.2576 55.2284 30.0225C55.0403 30.0225 54.7581 30.046 54.4288 30.1165C53.9585 30.2106 53.6292 30.3635 53.5116 30.4105C52.7943 30.7162 52.0653 30.7045 51.301 30.7985C49.6783 30.9867 48.4201 31.5864 47.8557 31.8568C47.2442 32.1508 46.327 32.6682 45.5274 33.5031C45.1747 33.8676 44.9512 34.1968 44.7866 34.5613C44.5514 35.0787 44.5044 35.5491 44.4926 35.8548C44.1752 35.796 43.8224 35.702 43.4344 35.5256C42.3526 35.0552 41.6705 34.3144 41.3178 33.8441C41.0944 34.044 40.7534 34.4085 40.5535 34.9611C40.2948 35.6667 40.4241 36.2781 40.5182 36.819C40.671 37.6069 40.9885 38.2418 41.3178 38.7357C39.5304 39.0297 38.4722 39.7352 37.8725 40.2408C37.4727 40.5818 37.0964 40.9934 36.3438 41.8283C35.6265 42.6161 35.0739 43.2864 34.874 43.5333C33.4864 45.2618 32.4987 47.6018 32.1342 48.472C30.2175 53.0932 29.265 55.3979 28.7477 58.2671C28.4537 59.9368 28.0656 62.1592 28.3596 65.0636C28.583 67.2743 29.1475 69.2733 30.2175 71.1194C30.8407 72.2012 31.6403 73.2242 32.8985 73.8239C33.4041 74.0709 34.2272 74.4471 35.0151 74.1179C35.7088 73.8239 36.0263 73.1419 36.2262 72.7068C36.626 71.8249 36.6143 71.0959 36.6143 70.0258C36.6143 68.4266 36.6378 67.6858 36.6731 66.4041C36.6966 65.5222 36.7554 64.7932 36.7907 64.3111C37.1199 64.6756 37.3904 64.9696 37.5903 65.1695C37.9548 65.5457 38.2017 65.7574 38.6485 66.2278C38.8249 66.4159 38.966 66.5688 39.0601 66.6746C39.2953 67.1685 39.6245 67.7682 40.0596 68.4384C40.3183 68.8382 40.7063 69.4261 41.3295 70.1199C41.7058 70.5432 42.2232 71.0606 42.8935 71.5898C42.8699 71.4016 42.8582 71.2135 42.8347 71.0253C42.7759 70.4021 42.7288 69.8024 42.6818 69.2027C42.8699 69.3321 43.0581 69.4614 43.2462 69.5908C43.4108 69.8259 43.5872 70.0846 43.7518 70.3551C44.5162 71.6368 44.8924 72.9067 45.0923 73.9533C45.1982 73.7769 45.304 73.5888 45.3981 73.3771C46.0213 72.0719 45.9037 70.8607 46.1036 70.849C46.1389 70.849 46.1977 70.8842 46.28 71.0841C46.28 71.3546 46.2917 71.7309 46.3741 72.1777C46.4211 72.4952 46.5857 73.3771 47.0796 74.2355C48.0673 75.9405 49.8311 76.5284 50.0193 76.5872C50.3956 76.7048 51.6537 77.0811 53.1353 76.5872C54.8404 76.0228 55.6635 74.7058 55.8751 74.3531C56.0515 74.2943 56.2279 74.2237 56.4043 74.1179C57.5684 73.4476 57.9447 72.1307 58.0505 71.6486C58.2622 71.6603 58.4621 71.6721 58.6737 71.6838C58.7913 71.8837 58.9442 72.0954 59.1441 72.307C59.7673 72.9773 60.5081 73.2478 60.9432 73.3653C60.9432 73.1772 60.9432 72.9891 60.9432 72.8009C61.1431 72.6716 61.3547 72.5305 61.5664 72.3541C62.5659 71.5545 63.1538 70.5903 63.5066 69.8495C63.8946 69.6966 64.2474 69.532 64.5649 69.3438C67.9867 67.4036 69.1038 63.4292 69.48 61.6418C69.5153 62.0769 69.5624 62.5002 69.5976 62.9353C69.9151 66.5923 70.0797 70.1669 70.1268 73.6358C70.1268 73.7534 70.1385 73.9415 70.2208 74.1414C70.456 74.7176 71.0557 74.9293 71.2556 74.9998C72.2081 75.3408 73.2429 74.7646 73.7014 74.4942C76.0062 73.1654 77.0409 70.6255 77.4642 69.5202C77.6641 69.0146 78.3344 67.192 78.499 64.4051C78.6401 61.2891 78.0404 58.9138 77.5583 57.0794Z" fill="#00120B"/>
<path d="M57.4502 62.2529C57.7677 62.0766 58.0852 61.8884 58.4497 61.6768C58.3791 62.1706 58.3086 62.5939 58.2498 63.029C58.2028 63.3818 58.3321 63.5229 58.6849 63.3347C58.9553 63.1936 59.2728 63.0996 59.508 62.8997C59.9783 62.4881 60.3899 61.9942 61.1424 62.394C60.6721 63.3112 60.0254 64.2167 59.2493 65.028C59.2022 65.0868 59.0611 65.0633 58.9671 65.075C58.7437 64.8164 58.485 64.7928 58.1087 65.0868C58.3674 63.958 57.9441 63.0996 57.4502 62.2529Z" fill="#6B435C"/>
<path d="M43.9512 59.3721C44.2922 59.7248 44.5156 59.9718 44.8684 60.007C45.1506 60.0306 45.1153 60.2775 45.1623 60.4539C45.2917 60.9478 45.5033 61.3946 45.8443 61.7944C46.0325 62.0296 46.1853 62.0178 46.35 61.7826C46.5851 61.4534 46.7615 60.9007 47.0555 60.8302C47.3495 60.7596 47.4906 61.4534 47.8904 61.5827C48.1726 61.6768 48.1843 61.7826 48.1138 62.0648C47.9727 62.6528 47.9021 63.2525 47.8551 63.8522C47.8081 64.3931 47.3024 64.3225 47.0202 64.4989C46.7498 64.6636 46.7262 64.2402 46.6204 64.0639C46.4205 63.6993 46.1736 63.5229 45.7738 63.7464C45.5974 63.8522 45.4563 63.864 45.3387 63.6523C44.5861 62.3706 44.0923 61.0066 43.9512 59.3721Z" fill="#6B415A"/>
<path d="M54.2529 60.8649C54.2411 60.8532 54.2294 60.8297 54.2176 60.8179C53.5121 60.0183 52.783 59.9948 51.9246 60.665C51.3132 61.1354 50.5841 61.3118 49.9844 60.571C49.8551 60.4181 49.761 60.5122 49.6434 60.5827C49.3377 60.7709 49.0202 60.959 48.691 61.1354C48.0442 61.4764 47.7973 61.4058 47.4093 60.7944C47.3034 60.618 47.2094 60.4416 47.0683 60.1712C46.7155 60.7238 46.398 61.2177 46.057 61.7468C45.5631 61.1001 45.3162 60.4063 45.1633 59.6655C44.4461 59.9125 43.8699 59.3128 43.9522 58.3721C44.6812 58.8777 45.4103 59.3245 46.2099 59.642C48.5616 60.571 50.8311 60.3593 53.0182 59.1834C53.4886 58.9365 53.7825 58.8895 54.2646 59.2187C56.5223 60.7238 59.0152 61.4058 61.7903 60.9943C61.6492 61.5822 61.4845 61.7821 60.9672 61.9938C60.8613 62.0408 60.7085 62.1466 60.6497 62.0643C60.2264 61.5352 60.0382 62.0761 59.8383 62.2525C59.4032 62.6052 58.9329 62.8874 58.3685 63.1344C58.4625 62.6288 58.5566 62.1702 58.6389 61.7116C58.6624 61.5822 58.7095 61.4529 58.5684 61.3588C58.4273 61.253 58.3097 61.3823 58.2038 61.4411C57.9216 61.6057 57.6629 61.7939 57.3925 61.9703C56.8163 61.9232 56.6164 61.4411 56.3577 61.0884C56.1108 60.7591 55.8991 60.6298 55.5346 60.8649C55.1113 61.1354 54.688 61.1707 54.2529 60.8649Z" fill="#F9FAFA"/>
<path d="M47.5729 65.8982C46.7733 65.5807 46.3735 64.8399 45.8443 64.2285C45.762 64.1344 45.8325 64.0521 45.9149 63.9933C46.0324 63.911 46.1618 63.8287 46.2911 63.9228C46.3852 63.9816 46.4675 64.0874 46.5146 64.1814C46.738 64.6518 46.9144 65.1927 47.5493 64.5342C47.714 64.3696 47.808 64.5695 47.8433 64.7459C47.761 65.1221 47.6669 65.5102 47.5729 65.8982Z" fill="#F2F5F5"/>
<path d="M58.8618 65.0869C58.9676 65.228 59.2145 65.3456 58.897 65.5573C58.6266 65.7336 58.4032 65.9688 58.1562 66.1805C58.2033 65.6866 58.1798 65.1575 58.8618 65.0869Z" fill="#E5E6E7"/>
<path d="M48.6316 61.5475C48.4199 63.1938 48.1494 64.5107 47.9378 65.4044C47.5733 66.9918 47.3263 67.6268 47.1617 69.0261C47.0088 70.3431 46.9148 71.1309 47.1617 72.1422C47.3028 72.7066 47.6556 74.1294 48.9843 75.1407C49.2548 75.3524 50.4777 76.2695 52.0416 76.0814C54.0641 75.8345 55.1929 73.8707 55.8044 72.7889C56.5217 71.5307 56.7333 70.3078 56.9215 69.2613C57.2037 67.6974 56.9332 67.7091 57.2742 66.0276C57.4506 65.1222 57.6388 64.5813 57.4506 63.7935C57.3918 63.5583 57.2272 62.8998 56.6275 62.3236C56.0984 61.818 55.5457 61.6651 55.1577 61.5593C54.6403 61.4182 54.1582 61.2888 53.8054 61.5593C53.5585 61.7474 53.4879 62.0296 53.4526 62.206C53.5467 62.888 53.535 63.4289 53.5114 63.7935C53.4762 64.2403 53.4291 64.4167 53.2175 65.6749C53.1469 66.1335 53.0764 66.592 52.9941 67.0389C52.6883 68.9556 52.6413 69.2613 52.6295 69.2613C52.606 69.2613 52.7118 67.7444 52.9823 65.9218C53.1116 65.0164 53.1116 64.0992 53.2527 63.2055C53.3115 62.794 53.3939 62.3471 53.1587 61.9003C52.9588 61.5122 52.5119 61.1124 52.0534 61.1242C51.8887 61.1242 51.7124 61.183 51.583 61.23C51.2655 61.3359 51.1832 61.4299 50.948 61.4535C50.7129 61.477 50.5247 61.4064 50.4424 61.3829C49.9956 61.1948 49.9721 60.7832 49.7016 60.7832C49.5252 60.7832 49.5487 60.9831 49.1372 61.183C49.0314 61.2418 48.8902 61.2888 48.7374 61.4299C48.7021 61.4535 48.6551 61.5122 48.6316 61.5475Z" fill="#EB97A4"/>
<path d="M48.291 64.7815C48.8437 64.464 49.3376 64.2994 49.655 64.2053C49.9255 64.1348 52.0068 63.5704 52.6418 64.3817C52.7476 64.5111 52.8417 64.7227 52.9357 64.7109C53.0416 64.6874 53.0533 64.3935 53.0886 64.0289C53.1944 62.9707 53.3708 62.9707 53.312 62.5121C53.2885 62.3239 53.1592 61.5361 52.5595 61.2421C52.2302 61.0775 51.8775 61.1246 51.8304 61.1363C51.5482 61.1716 51.5247 61.2774 51.1837 61.3715C50.9485 61.4303 50.6075 61.5243 50.3253 61.3715C49.9725 61.1833 49.9137 60.7365 49.7256 60.7483C49.5962 60.76 49.608 60.9482 49.3728 61.101C49.1964 61.2069 49.1141 61.1716 48.9613 61.2539C48.7966 61.348 48.7026 61.5126 48.5967 61.8066C48.4086 62.3827 48.4086 62.9001 48.4086 63.0177C48.4086 63.4293 48.3968 64.0172 48.291 64.7815Z" fill="#AF5766"/>
<path d="M53.6404 64.4992C54.1578 64.4875 54.5811 64.5462 54.8751 64.6168C55.463 64.7461 56.0745 64.8873 56.5566 65.3694C56.8623 65.6751 56.9564 65.9573 57.121 65.9338C57.2621 65.8985 57.3209 65.6163 57.4032 65.1224C57.4973 64.6286 57.5326 64.3934 57.5208 64.1112C57.4738 63.4409 57.1445 62.9588 56.9917 62.7589C56.5213 62.1122 55.9334 61.8417 55.463 61.6301C55.122 61.4772 54.781 61.3714 54.393 61.3949C54.0167 61.4066 53.8521 61.5242 53.8168 61.5477C53.5228 61.7594 53.4758 62.1239 53.464 62.1945C53.4288 62.4179 53.4993 62.4767 53.5346 62.853C53.5581 63.0764 53.5463 63.2293 53.5346 63.5467C53.5228 63.8172 53.4875 64.1582 53.417 64.5698" fill="#AF5766"/>
<path d="M43.0231 57.3135C43.2583 57.5251 43.4934 57.725 43.7286 57.9367C43.6698 58.3365 43.6228 58.8774 43.6346 59.5241C43.6698 60.3708 43.8344 61.7818 44.634 63.2869C45.3161 64.5804 46.1627 65.38 46.6095 65.7916C46.8565 66.015 47.0681 66.1914 47.2327 66.3207C47.1857 66.3795 47.1151 66.4971 47.0799 66.6617C47.0446 66.8146 47.0681 66.9439 47.0799 67.0145C46.5037 66.6264 45.6923 66.0032 44.928 65.0625C44.5635 64.6157 43.7169 63.4633 43.223 61.7348C42.6821 59.8299 42.8585 58.1954 43.0231 57.3135Z" fill="url(#paint2_linear)"/>
<path d="M62.1302 60.9011C62.4594 60.7365 62.8005 60.5719 63.1297 60.3955C62.824 61.1246 62.3654 62.077 61.7069 63.1471C61.4247 63.6057 60.9661 64.3229 60.2606 65.1578C59.7079 65.8163 58.8848 66.6747 57.7324 67.5448C57.7559 67.2626 57.7795 66.9804 57.803 66.71C58.4144 66.2631 59.167 65.6282 59.896 64.7698C60.237 64.37 60.872 63.5704 61.46 62.4298C61.7657 61.8418 61.9773 61.3127 62.1302 60.9011Z" fill="url(#paint3_linear)"/>
<circle cx="21" cy="21" r="19.5" fill="#1BA27A" stroke="white" stroke-width="3"/>
<path d="M29 11H13V15.4538H19.0686V22H22.9314V15.4538H29V11Z" fill="white"/>
<path fill-rule="evenodd" clip-rule="evenodd" d="M21.0001 18C27.6275 18 33 19.2115 33 20.7061C33 22.0291 28.7904 23.1303 23.2274 23.3657V33H18.6865V23.3619C13.166 23.119 9 22.0224 9 20.7061C9 19.2115 14.3729 18 21.0001 18ZM10.3129 20.3563C10.3129 21.5154 15.098 22.455 21.0001 22.455C26.9022 22.455 31.6871 21.5154 31.6871 20.3563C31.6871 19.1973 26.9022 18.2576 21.0001 18.2576C15.0978 18.2576 10.3129 19.1973 10.3129 20.3563Z" fill="white"/>
<defs>
<linearGradient id="paint0_linear" x1="36.2868" y1="44.0535" x2="32.434" y2="57.6774" gradientUnits="userSpaceOnUse">
<stop offset="0.0319879" stop-color="#5F5644"/>
<stop offset="0.5378" stop-color="#5F5644"/>
<stop offset="0.6484" stop-color="#584A39"/>
<stop offset="0.8443" stop-color="#503A2B"/>
<stop offset="1" stop-color="#4D3526"/>
</linearGradient>
<linearGradient id="paint1_linear" x1="70.9415" y1="46.5199" x2="74.6129" y2="59.5022" gradientUnits="userSpaceOnUse">
<stop offset="0.0319879" stop-color="#5F5644"/>
<stop offset="0.5378" stop-color="#5F5644"/>
<stop offset="0.6484" stop-color="#584A39"/>
<stop offset="0.8443" stop-color="#503A2B"/>
<stop offset="1" stop-color="#4D3526"/>
</linearGradient>
<linearGradient id="paint2_linear" x1="43.1949" y1="57.6259" x2="45.2768" y2="64.1944" gradientUnits="userSpaceOnUse">
<stop stop-color="#6A5F48"/>
<stop offset="1" stop-color="#4F3B31"/>
</linearGradient>
<linearGradient id="paint3_linear" x1="62.2895" y1="61.343" x2="59.0999" y2="65.8848" gradientUnits="userSpaceOnUse">
<stop stop-color="#6A5F48"/>
<stop offset="1" stop-color="#4F3B31"/>
</linearGradient>
</defs>
</svg>
