<svg width="91" height="91" viewBox="0 0 91 91" fill="none" xmlns="http://www.w3.org/2000/svg">
<circle cx="45" cy="45" r="42.5" fill="#FFF1D9" stroke="white" stroke-width="5"/>
<path fill-rule="evenodd" clip-rule="evenodd" d="M50.4874 62.4999C46.7003 69.0593 38.3129 71.3067 31.7535 67.5196C25.1941 63.7326 22.9467 55.3451 26.7337 48.7857C30.5208 42.2263 38.9083 39.9789 45.4677 43.766C52.0271 47.553 54.2745 55.9405 50.4874 62.4999ZM33.1249 65.1443C38.3724 68.1739 45.0824 66.376 48.112 61.1285C51.1417 55.881 49.3438 49.171 44.0962 46.1413C38.8487 43.1117 32.1387 44.9096 29.1091 50.1571C26.0794 55.4046 27.8774 62.1146 33.1249 65.1443Z" fill="#482402"/>
<path fill-rule="evenodd" clip-rule="evenodd" d="M45.9739 59.8943C43.6259 63.9611 38.4257 65.3545 34.3589 63.0065C30.2921 60.6585 28.8987 55.4583 31.2466 51.3915C33.5946 47.3246 38.7949 45.9312 42.8617 48.2792C46.9285 50.6272 48.3219 55.8274 45.9739 59.8943ZM35.7303 60.6311C38.4853 62.2217 42.008 61.2778 43.5986 58.5229C45.1891 55.7679 44.2452 52.2452 41.4903 50.6546C38.7353 49.064 35.2126 50.0079 33.622 52.7629C32.0314 55.5178 32.9754 59.0406 35.7303 60.6311Z" fill="#482402"/>
<path fill-rule="evenodd" clip-rule="evenodd" d="M42.3639 49.1421C38.7735 47.0692 34.1824 48.2994 32.1095 51.8898C30.0366 55.4802 31.2668 60.0712 34.8572 62.1441C38.4476 64.2171 43.0386 62.9869 45.1115 59.3965C47.1845 55.8061 45.9543 51.215 42.3639 49.1421ZM29.109 50.1574C32.1387 44.9099 38.8487 43.112 44.0962 46.1416C49.3437 49.1713 51.1417 55.8813 48.112 61.1288C45.0823 66.3763 38.3724 68.1743 33.1248 65.1446C27.8773 62.1149 26.0794 55.405 29.109 50.1574Z" fill="#F6E6D2"/>
<path d="M61.211 32.9547C60.3207 34.4968 59.0066 35.6416 57.5008 36.3271C56.3345 36.8581 55.6154 38.8156 56.3868 39.839C59.3328 43.7469 60.6802 48.6621 60.1443 53.5216C60.0597 54.2893 60.5766 55.0035 61.2987 55.2777C61.6395 55.4071 61.9744 55.5655 62.3003 55.7537C65.58 57.6472 66.7037 61.8409 64.8101 65.1206C62.9166 68.4003 58.7229 69.524 55.4432 67.6305L24.4446 49.7335C21.1649 47.8399 20.0412 43.6462 21.9347 40.3665C23.8283 37.0868 28.022 35.9631 31.3017 37.8566C31.6276 38.0448 31.9322 38.2557 32.2147 38.4861C32.8132 38.9743 33.6902 39.0649 34.3127 38.6077C38.2532 35.7138 43.1836 34.4232 48.041 35.0205C49.3129 35.1769 50.6486 33.5754 50.5253 32.2998C50.366 30.653 50.7005 28.9425 51.5908 27.4004C53.863 23.4648 57.5241 24.4917 61.4597 26.764C61.4597 26.764 63.4833 29.0191 61.211 32.9547Z" fill="#E89B37"/>
<path d="M61.211 32.9547C60.3207 34.4968 59.0066 35.6416 57.5008 36.3271C56.3345 36.8581 55.6154 38.8156 56.3868 39.839C59.3328 43.7469 60.6802 48.6621 60.1443 53.5216C60.0597 54.2893 60.5766 55.0035 61.2987 55.2777C61.6395 55.4071 61.9744 55.5655 62.3003 55.7537C65.58 57.6472 66.7037 61.8409 64.8101 65.1206C62.9166 68.4003 58.7229 69.524 55.4432 67.6305L24.4446 49.7335C21.1649 47.8399 20.0412 43.6462 21.9347 40.3665C23.8283 37.0868 28.022 35.9631 31.3017 37.8566C31.6276 38.0448 31.9322 38.2557 32.2147 38.4861C32.8132 38.9743 33.6902 39.0649 34.3127 38.6077C38.2532 35.7138 43.1836 34.4232 48.041 35.0205C49.3129 35.1769 50.6486 33.5754 50.5253 32.2998C50.366 30.653 50.7005 28.9425 51.5908 27.4004C53.863 23.4648 57.5241 24.4917 61.4597 26.764C61.4597 26.764 63.4833 29.0191 61.211 32.9547Z" fill="url(#paint0_linear)"/>
<path d="M58.1247 52.3559C58.6606 47.4964 57.3132 42.5813 54.3672 38.6733L53.6171 39.9725C54.7507 45.3777 53.8299 45.4794 53.374 49.6131C53.2893 50.3808 53.8062 51.095 54.5283 51.3692C54.8691 51.4986 55.204 51.657 55.5299 51.8452C58.8096 53.7387 59.9333 57.9324 58.0398 61.2121C56.1463 64.4918 51.9525 65.6155 48.6728 63.722L53.4236 66.4648C56.7033 68.3584 60.897 67.2347 62.7905 63.955C64.6841 60.6753 63.5604 56.4815 60.2807 54.588C59.9548 54.3998 59.6199 54.2415 59.2791 54.1121C58.557 53.8378 58.0401 53.1237 58.1247 52.3559Z" fill="#E28432"/>
<path fill-rule="evenodd" clip-rule="evenodd" d="M56.3642 33.8307C57.3671 33.3741 58.2402 32.6142 58.8355 31.5831C60.3503 28.9594 59.4513 25.6044 56.8276 24.0896C54.2038 22.5747 50.8488 23.4737 49.334 26.0975C48.7387 27.1285 48.5172 28.2646 48.6232 29.3614C48.7791 30.9733 48.0453 32.416 47.2294 33.3391C46.431 34.2425 44.9558 35.2998 43.074 35.0684C38.9114 34.5566 34.6814 35.6637 31.3041 38.144C29.5082 39.4628 27.2473 39.0779 25.8487 37.9371C25.6797 37.7992 25.4962 37.672 25.2981 37.5576C23.3303 36.4215 20.8141 37.0957 19.6779 39.0635C18.5418 41.0313 19.216 43.5476 21.1839 44.6837L56.8144 65.255C58.7822 66.3911 61.2984 65.7169 62.4346 63.7491C63.5707 61.7813 62.8965 59.265 60.9286 58.1289C60.7305 58.0145 60.5286 57.9192 60.3247 57.8418C58.6375 57.201 57.1736 55.4354 57.4178 53.2208C57.8771 49.0558 56.721 44.8389 54.1964 41.4899C53.0551 39.976 53.2332 38.1698 53.6163 37.0266C54.0078 35.8585 54.8904 34.5016 56.3642 33.8307ZM57.5006 36.327C59.0064 35.6415 60.3205 34.4966 61.2108 32.9546C63.4831 29.0189 62.1346 23.9864 58.199 21.7142C54.2634 19.442 49.2309 20.7904 46.9586 24.726C46.0683 26.2681 45.7339 27.9786 45.8931 29.6254C46.0165 30.901 44.6807 32.5025 43.4088 32.3461C38.5514 31.7488 33.6211 33.0394 29.6806 35.9333C29.058 36.3905 28.181 36.2999 27.5825 35.8117C27.3 35.5813 26.9954 35.3704 26.6695 35.1822C23.3898 33.2887 19.1961 34.4124 17.3026 37.6921C15.409 40.9718 16.5327 45.1655 19.8124 47.0591L55.443 67.6304C58.7227 69.5239 62.9164 68.4002 64.8099 65.1205C66.7035 61.8408 65.5798 57.6471 62.3001 55.7535C61.9742 55.5654 61.6393 55.407 61.2985 55.2776C60.5764 55.0034 60.0595 54.2892 60.1441 53.5214C60.68 48.6619 59.3326 43.7468 56.3866 39.8388C55.6152 38.8155 56.3343 36.858 57.5006 36.327Z" fill="#482402"/>
<path fill-rule="evenodd" clip-rule="evenodd" d="M44.8033 40.1476C44.6201 40.8825 43.8758 41.3298 43.1408 41.1466C42.322 40.9424 40.8192 40.7927 39.168 41.0872C37.5324 41.3789 35.8282 42.0909 34.4753 43.5333C33.9572 44.0857 33.0893 44.1135 32.5368 43.5954C31.9844 43.0773 31.9566 42.2094 32.4747 41.6569C34.3277 39.6813 36.6238 38.7548 38.6864 38.3869C40.7333 38.0219 42.6264 38.1915 43.8043 38.4852C44.5392 38.6684 44.9865 39.4127 44.8033 40.1476Z" fill="#482402"/>
<circle cx="74" cy="74" r="15.5" fill="#FFF1D9" stroke="#6BB9F3" stroke-width="3"/>
<path fill-rule="evenodd" clip-rule="evenodd" d="M76.6753 80.6082C75.2433 83.0885 72.0717 83.9383 69.5914 82.5063C67.111 81.0743 66.2612 77.9027 67.6932 75.4224C69.1253 72.9421 72.2968 72.0923 74.7772 73.5243C77.2575 74.9563 78.1073 78.1279 76.6753 80.6082ZM70.1099 81.6081C72.0942 82.7537 74.6315 82.0739 75.7771 80.0896C76.9227 78.1053 76.2428 75.5681 74.2586 74.4225C72.2743 73.2769 69.7371 73.9567 68.5914 75.941C67.4458 77.9252 68.1257 80.4625 70.1099 81.6081Z" fill="#482402"/>
<path fill-rule="evenodd" clip-rule="evenodd" d="M74.9671 79.6229C74.0793 81.1607 72.1129 81.6876 70.5751 80.7997C69.0373 79.9119 68.5104 77.9455 69.3983 76.4077C70.2861 74.8699 72.2525 74.343 73.7903 75.2309C75.3281 76.1187 75.855 78.0851 74.9671 79.6229ZM71.0937 79.9015C72.1354 80.503 73.4675 80.1461 74.0689 79.1043C74.6704 78.0626 74.3134 76.7305 73.2717 76.1291C72.23 75.5276 70.8979 75.8846 70.2965 76.9263C69.695 77.968 70.0519 79.3001 71.0937 79.9015Z" fill="#482402"/>
<path fill-rule="evenodd" clip-rule="evenodd" d="M73.6018 75.5572C72.2442 74.7733 70.5082 75.2385 69.7243 76.5961C68.9405 77.9538 69.4056 79.6898 70.7633 80.4736C72.1209 81.2575 73.857 80.7923 74.6408 79.4347C75.4246 78.077 74.9595 76.341 73.6018 75.5572ZM68.5897 75.9411C69.7354 73.9568 72.2726 73.277 74.2569 74.4226C76.2411 75.5682 76.921 78.1055 75.7754 80.0897C74.6298 82.074 72.0925 82.7538 70.1083 81.6082C68.124 80.4626 67.4441 77.9253 68.5897 75.9411Z" fill="#F6E6D2"/>
<path d="M80.7288 69.4362C80.3922 70.0193 79.8953 70.4522 79.3259 70.7114C78.8848 70.9122 78.6129 71.6524 78.9046 72.0393C80.0186 73.5171 80.5281 75.3756 80.3255 77.2132C80.2934 77.5035 80.4889 77.7735 80.7619 77.8772C80.8908 77.9262 81.0175 77.9861 81.1407 78.0572C82.3808 78.7732 82.8058 80.359 82.0897 81.5992C81.3737 82.8393 79.788 83.2642 78.5478 82.5482L66.8262 75.7808C65.5861 75.0648 65.1612 73.479 65.8772 72.2388C66.5932 70.9987 68.179 70.5738 69.4191 71.2898C69.5424 71.3609 69.6575 71.4406 69.7643 71.5278C69.9907 71.7124 70.3223 71.7466 70.5577 71.5738C72.0477 70.4795 73.912 69.9915 75.7488 70.2173C76.2297 70.2765 76.7348 69.6709 76.6882 69.1885C76.628 68.5658 76.7544 67.919 77.0911 67.3359C77.9503 65.8477 79.3347 66.2361 80.8229 67.0953C80.8229 67.0953 81.588 67.948 80.7288 69.4362Z" fill="#E89B37"/>
<path d="M80.7288 69.4362C80.3922 70.0193 79.8953 70.4522 79.3259 70.7114C78.8848 70.9122 78.6129 71.6524 78.9046 72.0393C80.0186 73.5171 80.5281 75.3756 80.3255 77.2132C80.2934 77.5035 80.4889 77.7735 80.7619 77.8772C80.8908 77.9262 81.0175 77.9861 81.1407 78.0572C82.3808 78.7732 82.8058 80.359 82.0897 81.5992C81.3737 82.8393 79.788 83.2642 78.5478 82.5482L66.8262 75.7808C65.5861 75.0648 65.1612 73.479 65.8772 72.2388C66.5932 70.9987 68.179 70.5738 69.4191 71.2898C69.5424 71.3609 69.6575 71.4406 69.7643 71.5278C69.9907 71.7124 70.3223 71.7466 70.5577 71.5738C72.0477 70.4795 73.912 69.9915 75.7488 70.2173C76.2297 70.2765 76.7348 69.6709 76.6882 69.1885C76.628 68.5658 76.7544 67.919 77.0911 67.3359C77.9503 65.8477 79.3347 66.2361 80.8229 67.0953C80.8229 67.0953 81.588 67.948 80.7288 69.4362Z" fill="url(#paint1_linear)"/>
<path d="M79.5625 76.7724C79.7651 74.9349 79.2556 73.0763 78.1416 71.5986L77.858 72.0898C78.2866 74.1337 77.9384 74.1722 77.766 75.7352C77.734 76.0256 77.9295 76.2956 78.2025 76.3993C78.3314 76.4482 78.458 76.5081 78.5813 76.5793C79.8214 77.2953 80.2463 78.8811 79.5303 80.1212C78.8143 81.3614 77.2285 81.7863 75.9884 81.0703L77.7848 82.1074C79.0249 82.8235 80.6107 82.3985 81.3267 81.1584C82.0427 79.9182 81.6178 78.3324 80.3777 77.6164C80.2544 77.5453 80.1278 77.4854 79.9989 77.4365C79.7259 77.3328 79.5304 77.0627 79.5625 76.7724Z" fill="#E28432"/>
<path fill-rule="evenodd" clip-rule="evenodd" d="M78.8966 69.7674C79.2759 69.5948 79.606 69.3074 79.8311 68.9175C80.4039 67.9254 80.064 66.6568 79.0719 66.084C78.0797 65.5112 76.8111 65.8511 76.2383 66.8432C76.0132 67.2331 75.9294 67.6627 75.9695 68.0774C76.0285 68.6869 75.751 69.2325 75.4425 69.5816C75.1406 69.9231 74.5827 70.323 73.8712 70.2355C72.2972 70.0419 70.6977 70.4606 69.4206 71.3984C68.7415 71.8971 67.8866 71.7516 67.3578 71.3202C67.2938 71.268 67.2245 71.2199 67.1495 71.1767C66.4055 70.7471 65.454 71.002 65.0244 71.7461C64.5948 72.4902 64.8497 73.4417 65.5938 73.8713L79.0669 81.65C79.811 82.0796 80.7624 81.8246 81.192 81.0805C81.6216 80.3364 81.3667 79.385 80.6226 78.9554C80.5477 78.9121 80.4713 78.8761 80.3942 78.8468C79.7562 78.6045 79.2027 77.9369 79.295 77.0994C79.4687 75.5245 79.0316 73.93 78.0769 72.6636C77.6454 72.0912 77.7127 71.4082 77.8576 70.9759C78.0056 70.5342 78.3393 70.0211 78.8966 69.7674ZM79.3264 70.7114C79.8958 70.4521 80.3927 70.0192 80.7293 69.4361C81.5885 67.9479 81.0786 66.045 79.5904 65.1858C78.1022 64.3266 76.1993 64.8365 75.3401 66.3247C75.0034 66.9078 74.877 67.5545 74.9372 68.1773C74.9838 68.6596 74.4787 69.2652 73.9978 69.2061C72.161 68.9802 70.2967 69.4682 68.8067 70.5625C68.5713 70.7354 68.2397 70.7011 68.0133 70.5165C67.9065 70.4294 67.7914 70.3496 67.6681 70.2785C66.428 69.5625 64.8422 69.9874 64.1262 71.2275C63.4102 72.4677 63.8351 74.0535 65.0752 74.7695L78.5483 82.5482C79.7885 83.2642 81.3742 82.8393 82.0902 81.5991C82.8063 80.3589 82.3813 78.7732 81.1412 78.0572C81.018 77.986 80.8913 77.9261 80.7624 77.8772C80.4894 77.7735 80.2939 77.5034 80.326 77.2131C80.5286 75.3756 80.0191 73.517 78.9051 72.0393C78.6134 71.6523 78.8853 70.9121 79.3264 70.7114Z" fill="#482402"/>
<path fill-rule="evenodd" clip-rule="evenodd" d="M74.5254 72.156C74.4561 72.4339 74.1747 72.6031 73.8968 72.5338C73.5872 72.4566 73.0189 72.4 72.3945 72.5113C71.7761 72.6216 71.1316 72.8909 70.6201 73.4363C70.4242 73.6452 70.096 73.6557 69.8871 73.4598C69.6782 73.2638 69.6677 72.9357 69.8636 72.7268C70.5642 71.9797 71.4325 71.6294 72.2124 71.4903C72.9864 71.3522 73.7023 71.4164 74.1477 71.5274C74.4256 71.5967 74.5947 71.8781 74.5254 72.156Z" fill="#482402"/>
<defs>
<linearGradient id="paint0_linear" x1="24.1599" y1="36.5085" x2="65.4396" y2="60.5084" gradientUnits="userSpaceOnUse">
<stop stop-color="#EFC443"/>
<stop offset="1" stop-color="#E69536"/>
</linearGradient>
<linearGradient id="paint1_linear" x1="66.7186" y1="70.78" x2="82.3278" y2="79.8551" gradientUnits="userSpaceOnUse">
<stop stop-color="#EFC443"/>
<stop offset="1" stop-color="#E69536"/>
</linearGradient>
</defs>
</svg>
