<svg width="91" height="91" viewBox="0 0 91 91" fill="none" xmlns="http://www.w3.org/2000/svg">
<circle cx="45" cy="45" r="42.5" fill="#4ED8DD" stroke="white" stroke-width="5"/>
<path fill-rule="evenodd" clip-rule="evenodd" d="M24.7144 50.6409C24.7089 50.7605 24.7062 50.8804 24.7062 51.0007C24.7062 51.4556 24.7458 51.9048 24.823 52.3471H24.7062V53.0435C24.7062 53.3834 24.7283 53.7202 24.7717 54.0533C25.619 60.554 34.5757 65.6689 45.5 65.6689C56.4243 65.6689 65.381 60.554 66.2283 54.0533C66.2717 53.7202 66.2938 53.3834 66.2938 53.0435V52.3471H66.177C66.2542 51.9048 66.2938 51.4556 66.2938 51.0007C66.2938 50.8804 66.2911 50.7605 66.2856 50.6409C65.9719 43.8345 56.7859 38.3754 45.5 38.3754C34.2141 38.3754 25.0281 43.8345 24.7144 50.6409ZM23.0067 50.6409C23.1613 46.4881 25.9833 42.9996 29.9111 40.6148C33.9826 38.1427 39.4983 36.6692 45.5 36.6692C51.5017 36.6692 57.0174 38.1427 61.0889 40.6148C65.0167 42.9996 67.8387 46.4881 67.9933 50.6409H68V53.0435C68 57.3547 65.1296 60.9761 61.0889 63.4294C57.0174 65.9015 51.5017 67.375 45.5 67.375C39.4983 67.375 33.9826 65.9015 29.9111 63.4294C25.8704 60.9761 23 57.3547 23 53.0435V50.6409H23.0067Z" fill="#606063"/>
<path d="M66.2937 53.0438C66.2937 60.0166 56.984 65.6691 45.4999 65.6691C34.0158 65.6691 24.7061 60.0166 24.7061 53.0438V51.0452H66.2937V53.0438Z" fill="#BEBEBE"/>
<path d="M66.2937 51.0007C66.2937 57.9735 56.984 63.6261 45.4999 63.6261C34.0158 63.6261 24.7061 57.9735 24.7061 51.0007C24.7061 44.0279 34.0158 38.3754 45.4999 38.3754C56.984 38.3754 66.2937 44.0279 66.2937 51.0007Z" fill="#FAF9FA"/>
<path fill-rule="evenodd" clip-rule="evenodd" d="M27.9056 47.434C27.9056 47.4419 27.9056 47.4498 27.9056 47.4577C27.9056 48.0319 27.9888 48.5941 28.1482 49.1402H27.9054V49.8796C27.9054 50.206 27.9323 50.5285 27.9848 50.8464C28.7775 55.6469 35.4097 59.394 43.474 59.394C51.5383 59.394 58.1705 55.6469 58.9632 50.8464C59.0157 50.5285 59.0426 50.206 59.0426 49.8796V49.1402H58.8002C58.9553 48.609 59.0382 48.0625 59.0426 47.5047C59.0428 47.489 59.0428 47.4734 59.0428 47.4577C59.0428 47.4498 59.0428 47.4419 59.0428 47.434C59.0218 42.1903 52.0596 37.9434 43.4742 37.9434C34.8888 37.9434 27.9266 42.1903 27.9056 47.434ZM26.1994 47.434H26.1992V49.8796C26.1992 53.3262 28.4783 56.1703 31.5756 58.0631C34.7023 59.9739 38.9132 61.1002 43.474 61.1002C48.0348 61.1002 52.2457 59.9739 55.3724 58.0631C58.4697 56.1703 60.7488 53.3262 60.7488 49.8796V47.511C60.7489 47.4933 60.749 47.4755 60.749 47.4577C60.749 44.0111 58.4699 41.1671 55.3726 39.2742C52.2459 37.3634 48.035 36.2372 43.4742 36.2372C38.9134 36.2372 34.7025 37.3634 31.5758 39.2742C28.4856 41.1627 26.2099 43.9981 26.1994 47.434Z" fill="#633001"/>
<path d="M59.0425 49.8796C59.0425 55.1343 52.0722 59.394 43.4739 59.394C34.8756 59.394 27.9053 55.1343 27.9053 49.8796V47.6473H59.0425V49.8796Z" fill="#FEDC90"/>
<path d="M59.0425 47.4577C59.0425 52.7123 52.0722 56.9721 43.4739 56.9721C34.8756 56.9721 27.9053 52.7123 27.9053 47.4577C27.9053 42.2031 34.8756 37.9434 43.4739 37.9434C52.0722 37.9434 59.0425 42.2031 59.0425 47.4577Z" fill="#D1884F"/>
<path fill-rule="evenodd" clip-rule="evenodd" d="M32.597 42.3154C32.597 42.3233 32.597 42.3312 32.597 42.3391C32.597 42.9132 32.6802 43.4754 32.8396 44.0216H32.5968V44.7609C32.5968 45.0873 32.6237 45.4098 32.6762 45.7278C33.4689 50.5283 40.1011 54.2753 48.1654 54.2753C56.2297 54.2753 62.8619 50.5283 63.6546 45.7278C63.7071 45.4098 63.734 45.0873 63.734 44.7609V44.0216H63.4916C63.6467 43.4903 63.7296 42.9439 63.734 42.386C63.7342 42.3704 63.7342 42.3547 63.7342 42.3391C63.7342 42.3312 63.7342 42.3233 63.7342 42.3154C63.7132 37.0716 56.751 32.8247 48.1656 32.8247C39.5802 32.8247 32.6179 37.0716 32.597 42.3154ZM30.8908 42.3154H30.8906V44.7609C30.8906 48.2076 33.1697 51.0516 36.267 52.9445C39.3937 54.8552 43.6046 55.9815 48.1654 55.9815C52.7262 55.9815 56.9371 54.8552 60.0638 52.9445C63.1611 51.0516 65.4402 48.2076 65.4402 44.7609V42.3923C65.4403 42.3746 65.4404 42.3568 65.4404 42.3391C65.4404 38.8925 63.1613 36.0484 60.0639 34.1556C56.9373 32.2448 52.7264 31.1185 48.1656 31.1185C43.6048 31.1185 39.3939 32.2448 36.2672 34.1556C33.177 36.0441 30.9013 38.8794 30.8908 42.3154Z" fill="#633001"/>
<path d="M63.7349 44.7611C63.7349 50.0157 56.7646 54.2755 48.1663 54.2755C39.568 54.2755 32.5977 50.0157 32.5977 44.7611V42.5288H63.7349V44.7611Z" fill="#FEDC90"/>
<path d="M63.7349 42.3392C63.7349 47.5938 56.7646 51.8535 48.1663 51.8535C39.568 51.8535 32.5977 47.5938 32.5977 42.3392C32.5977 37.0846 39.568 32.8248 48.1663 32.8248C56.7646 32.8248 63.7349 37.0846 63.7349 42.3392Z" fill="#D1884F"/>
<path fill-rule="evenodd" clip-rule="evenodd" d="M27.9056 37.1968C27.9056 37.2047 27.9056 37.2126 27.9056 37.2206C27.9056 37.7947 27.9888 38.3569 28.1482 38.903H27.9054V39.6424C27.9054 39.9688 27.9323 40.2913 27.9848 40.6092C28.7775 45.4098 35.4097 49.1568 43.474 49.1568C51.5383 49.1568 58.1705 45.4098 58.9632 40.6092C59.0157 40.2913 59.0426 39.9688 59.0426 39.6424V38.903H58.8002C58.9553 38.3718 59.0382 37.8253 59.0426 37.2675C59.0428 37.2519 59.0428 37.2362 59.0428 37.2206C59.0428 37.2126 59.0428 37.2047 59.0428 37.1968C59.0218 31.9531 52.0596 27.7062 43.4742 27.7062C34.8888 27.7062 27.9266 31.9531 27.9056 37.1968ZM26.1994 37.1968H26.1992V39.6424C26.1992 43.089 28.4783 45.9331 31.5756 47.8259C34.7023 49.7367 38.9132 50.863 43.474 50.863C48.0348 50.863 52.2457 49.7367 55.3724 47.8259C58.4697 45.9331 60.7488 43.089 60.7488 39.6424V37.2738C60.7489 37.2561 60.749 37.2383 60.749 37.2206C60.749 33.7739 58.4699 30.9299 55.3726 29.037C52.2459 27.1263 48.035 26 43.4742 26C38.9134 26 34.7025 27.1263 31.5758 29.037C28.4856 30.9255 26.2099 33.7609 26.1994 37.1968Z" fill="#633001"/>
<path d="M59.0425 39.6425C59.0425 44.8971 52.0722 49.1568 43.4739 49.1568C34.8756 49.1568 27.9053 44.8971 27.9053 39.6425V37.4102H59.0425V39.6425Z" fill="#FEDC90"/>
<path d="M59.0425 37.2205C59.0425 42.4752 52.0722 46.7349 43.4739 46.7349C34.8756 46.7349 27.9053 42.4752 27.9053 37.2205C27.9053 31.9659 34.8756 27.7062 43.4739 27.7062C52.0722 27.7062 59.0425 31.9659 59.0425 37.2205Z" fill="#D1884F"/>
<path fill-rule="evenodd" clip-rule="evenodd" d="M31.5879 37.8125C31.5879 39.5668 32.8627 41.138 34.8737 42.1952L33.4803 44.6086L33.4806 44.6088H33.4803V50.7167C33.4803 51.5244 34.1351 52.1791 34.9428 52.1791C35.7504 52.1791 36.4052 51.5244 36.4052 50.7167V45.8591L37.9043 43.2626C38.8628 43.4659 39.8917 43.5763 40.9626 43.5763C46.14 43.5763 50.3372 40.9957 50.3372 37.8125C50.3372 34.6292 46.14 32.0487 40.9626 32.0487C35.7851 32.0487 31.5879 34.6292 31.5879 37.8125Z" fill="url(#paint0_linear)"/>
<path fill-rule="evenodd" clip-rule="evenodd" d="M34.8734 42.1952C34.6506 42.0781 34.4369 41.9547 34.2329 41.8254C32.5956 40.7877 31.5876 39.3725 31.5876 37.8125C31.5876 34.6292 35.7848 32.0487 40.9622 32.0487C46.1397 32.0487 50.3369 34.6292 50.3369 37.8125C50.3369 40.9957 46.1397 43.5763 40.9622 43.5763C39.8914 43.5763 38.8625 43.4659 37.9039 43.2626L36.4049 45.8591V50.7167C36.4049 51.5244 35.7501 52.1791 34.9425 52.1791C34.1348 52.1791 33.48 51.5244 33.48 50.7167V44.6088L34.8734 42.1952ZM31.9871 44.6345V50.7167C31.9871 52.3489 33.3103 53.672 34.9425 53.672C36.5746 53.672 37.8978 52.3489 37.8978 50.7167V46.2591L38.6753 44.9124C39.4138 45.0153 40.1791 45.0692 40.9622 45.0692C43.7815 45.0692 46.4054 44.3696 48.373 43.1599C50.3163 41.9651 51.8298 40.1166 51.8298 37.8125C51.8298 35.5084 50.3163 33.6599 48.373 32.4651C46.4054 31.2554 43.7815 30.5558 40.9622 30.5558C38.143 30.5558 35.5191 31.2554 33.5515 32.4651C31.6082 33.6599 30.0947 35.5084 30.0947 37.8125C30.0947 39.8347 31.2529 41.4999 32.8621 42.693L32.1975 43.8443C32.1341 43.9504 32.0835 44.065 32.0479 44.186C32.0042 44.3335 31.9844 44.4847 31.9871 44.6345Z" fill="#633001"/>
<path d="M34.5166 35.384C34.5166 37.0331 36.6173 38.3699 39.2085 38.3699C41.7998 38.3699 43.9005 37.0331 43.9005 35.384C43.9005 33.735 41.7998 32.3982 39.2085 32.3982C36.6173 32.3982 34.5166 33.735 34.5166 35.384Z" fill="#9E7200"/>
<path d="M34.5166 34.1045H43.9005V35.3841H34.5166V34.1045Z" fill="#9E7200"/>
<path d="M34.5166 34.1044C34.5166 35.7534 36.6173 37.0902 39.2085 37.0902C41.7998 37.0902 43.9005 35.7534 43.9005 34.1044C43.9005 32.4553 41.7998 31.1185 39.2085 31.1185C36.6173 31.1185 34.5166 32.4553 34.5166 34.1044Z" fill="#F0B90B"/>
<path d="M37.428 33.7445L38.7505 32.9029C39.0299 32.7251 39.3871 32.7251 39.6665 32.9029L40.989 33.7445C41.2524 33.9121 41.2524 34.2966 40.989 34.4642L39.6665 35.3058C39.3871 35.4837 39.0299 35.4837 38.7505 35.3058L37.428 34.4642C37.1646 34.2966 37.1646 33.9121 37.428 33.7445Z" fill="#9E7200"/>
<path fill-rule="evenodd" clip-rule="evenodd" d="M35.0891 30.7335C36.2122 30.0188 37.6725 29.6256 39.2083 29.6256C40.744 29.6256 42.2044 30.0188 43.3275 30.7335C44.4328 31.437 45.3931 32.5924 45.3931 34.1044V35.384C45.3931 36.896 44.4328 38.0514 43.3275 38.7549C42.2044 39.4696 40.744 39.8628 39.2083 39.8628C37.6725 39.8628 36.2122 39.4696 35.0891 38.7549C33.9837 38.0514 33.0234 36.896 33.0234 35.384V34.1044C33.0234 32.5924 33.9837 31.437 35.0891 30.7335ZM39.2083 31.1185C36.617 31.1185 34.5163 32.4553 34.5163 34.1044V35.384C34.5163 37.0331 36.617 38.3699 39.2083 38.3699C41.7995 38.3699 43.9002 37.0331 43.9002 35.384V34.1044C43.9002 32.4553 41.7995 31.1185 39.2083 31.1185Z" fill="#633001"/>
<circle cx="74" cy="74" r="15.5" fill="#FFF1D9" stroke="#6BB9F3" stroke-width="3"/>
<path fill-rule="evenodd" clip-rule="evenodd" d="M76.6753 80.6082C75.2433 83.0885 72.0717 83.9383 69.5914 82.5063C67.111 81.0743 66.2612 77.9027 67.6932 75.4224C69.1253 72.9421 72.2968 72.0923 74.7772 73.5243C77.2575 74.9563 78.1073 78.1279 76.6753 80.6082ZM70.1099 81.6081C72.0942 82.7537 74.6315 82.0739 75.7771 80.0896C76.9227 78.1053 76.2428 75.5681 74.2586 74.4225C72.2743 73.2769 69.7371 73.9567 68.5914 75.941C67.4458 77.9252 68.1257 80.4625 70.1099 81.6081Z" fill="#482402"/>
<path fill-rule="evenodd" clip-rule="evenodd" d="M74.9671 79.6229C74.0793 81.1607 72.1129 81.6876 70.5751 80.7997C69.0373 79.9119 68.5104 77.9455 69.3983 76.4077C70.2861 74.8699 72.2525 74.343 73.7903 75.2309C75.3281 76.1187 75.855 78.0851 74.9671 79.6229ZM71.0937 79.9015C72.1354 80.503 73.4675 80.1461 74.0689 79.1043C74.6704 78.0626 74.3134 76.7305 73.2717 76.1291C72.23 75.5276 70.8979 75.8846 70.2965 76.9263C69.695 77.968 70.0519 79.3001 71.0937 79.9015Z" fill="#482402"/>
<path fill-rule="evenodd" clip-rule="evenodd" d="M73.6018 75.5572C72.2442 74.7733 70.5082 75.2385 69.7243 76.5961C68.9405 77.9538 69.4056 79.6898 70.7633 80.4736C72.1209 81.2575 73.857 80.7923 74.6408 79.4347C75.4246 78.077 74.9595 76.341 73.6018 75.5572ZM68.5897 75.9411C69.7354 73.9568 72.2726 73.277 74.2569 74.4226C76.2411 75.5682 76.921 78.1055 75.7754 80.0897C74.6298 82.074 72.0925 82.7538 70.1083 81.6082C68.124 80.4626 67.4441 77.9253 68.5897 75.9411Z" fill="#F6E6D2"/>
<path d="M80.7288 69.4362C80.3922 70.0193 79.8953 70.4522 79.3259 70.7114C78.8848 70.9122 78.6129 71.6524 78.9046 72.0393C80.0186 73.5171 80.5281 75.3756 80.3255 77.2132C80.2934 77.5035 80.4889 77.7735 80.7619 77.8772C80.8908 77.9262 81.0175 77.9861 81.1407 78.0572C82.3808 78.7732 82.8058 80.359 82.0897 81.5992C81.3737 82.8393 79.788 83.2642 78.5478 82.5482L66.8262 75.7808C65.5861 75.0648 65.1612 73.479 65.8772 72.2388C66.5932 70.9987 68.179 70.5738 69.4191 71.2898C69.5424 71.3609 69.6575 71.4406 69.7643 71.5278C69.9907 71.7124 70.3223 71.7466 70.5577 71.5738C72.0477 70.4795 73.912 69.9915 75.7488 70.2173C76.2297 70.2765 76.7348 69.6709 76.6882 69.1885C76.628 68.5658 76.7544 67.919 77.0911 67.3359C77.9503 65.8477 79.3347 66.2361 80.8229 67.0953C80.8229 67.0953 81.588 67.948 80.7288 69.4362Z" fill="#E89B37"/>
<path d="M80.7288 69.4362C80.3922 70.0193 79.8953 70.4522 79.3259 70.7114C78.8848 70.9122 78.6129 71.6524 78.9046 72.0393C80.0186 73.5171 80.5281 75.3756 80.3255 77.2132C80.2934 77.5035 80.4889 77.7735 80.7619 77.8772C80.8908 77.9262 81.0175 77.9861 81.1407 78.0572C82.3808 78.7732 82.8058 80.359 82.0897 81.5992C81.3737 82.8393 79.788 83.2642 78.5478 82.5482L66.8262 75.7808C65.5861 75.0648 65.1612 73.479 65.8772 72.2388C66.5932 70.9987 68.179 70.5738 69.4191 71.2898C69.5424 71.3609 69.6575 71.4406 69.7643 71.5278C69.9907 71.7124 70.3223 71.7466 70.5577 71.5738C72.0477 70.4795 73.912 69.9915 75.7488 70.2173C76.2297 70.2765 76.7348 69.6709 76.6882 69.1885C76.628 68.5658 76.7544 67.919 77.0911 67.3359C77.9503 65.8477 79.3347 66.2361 80.8229 67.0953C80.8229 67.0953 81.588 67.948 80.7288 69.4362Z" fill="url(#paint1_linear)"/>
<path d="M79.5625 76.7724C79.7651 74.9349 79.2556 73.0763 78.1416 71.5986L77.858 72.0898C78.2866 74.1337 77.9384 74.1722 77.766 75.7352C77.734 76.0256 77.9295 76.2956 78.2025 76.3993C78.3314 76.4482 78.458 76.5081 78.5813 76.5793C79.8214 77.2953 80.2463 78.8811 79.5303 80.1212C78.8143 81.3614 77.2285 81.7863 75.9884 81.0703L77.7848 82.1074C79.0249 82.8235 80.6107 82.3985 81.3267 81.1584C82.0427 79.9182 81.6178 78.3324 80.3777 77.6164C80.2544 77.5453 80.1278 77.4854 79.9989 77.4365C79.7259 77.3328 79.5304 77.0627 79.5625 76.7724Z" fill="#E28432"/>
<path fill-rule="evenodd" clip-rule="evenodd" d="M78.8966 69.7674C79.2759 69.5948 79.606 69.3074 79.8311 68.9175C80.4039 67.9254 80.064 66.6568 79.0719 66.084C78.0797 65.5112 76.8111 65.8511 76.2383 66.8432C76.0132 67.2331 75.9294 67.6627 75.9695 68.0774C76.0285 68.6869 75.751 69.2325 75.4425 69.5816C75.1406 69.9231 74.5827 70.323 73.8712 70.2355C72.2972 70.0419 70.6977 70.4606 69.4206 71.3984C68.7415 71.8971 67.8866 71.7516 67.3578 71.3202C67.2938 71.268 67.2245 71.2199 67.1495 71.1767C66.4055 70.7471 65.454 71.002 65.0244 71.7461C64.5948 72.4902 64.8497 73.4417 65.5938 73.8713L79.0669 81.65C79.811 82.0796 80.7624 81.8246 81.192 81.0805C81.6216 80.3364 81.3667 79.385 80.6226 78.9554C80.5477 78.9121 80.4713 78.8761 80.3942 78.8468C79.7562 78.6045 79.2027 77.9369 79.295 77.0994C79.4687 75.5245 79.0316 73.93 78.0769 72.6636C77.6454 72.0912 77.7127 71.4082 77.8576 70.9759C78.0056 70.5342 78.3393 70.0211 78.8966 69.7674ZM79.3264 70.7114C79.8958 70.4521 80.3927 70.0192 80.7293 69.4361C81.5885 67.9479 81.0786 66.045 79.5904 65.1858C78.1022 64.3266 76.1993 64.8365 75.3401 66.3247C75.0034 66.9078 74.877 67.5545 74.9372 68.1773C74.9838 68.6596 74.4787 69.2652 73.9978 69.2061C72.161 68.9802 70.2967 69.4682 68.8067 70.5625C68.5713 70.7354 68.2397 70.7011 68.0133 70.5165C67.9065 70.4294 67.7914 70.3496 67.6681 70.2785C66.428 69.5625 64.8422 69.9874 64.1262 71.2275C63.4102 72.4677 63.8351 74.0535 65.0752 74.7695L78.5483 82.5482C79.7885 83.2642 81.3742 82.8393 82.0902 81.5991C82.8063 80.3589 82.3813 78.7732 81.1412 78.0572C81.018 77.986 80.8913 77.9261 80.7624 77.8772C80.4894 77.7735 80.2939 77.5034 80.326 77.2131C80.5286 75.3756 80.0191 73.517 78.9051 72.0393C78.6134 71.6523 78.8853 70.9121 79.3264 70.7114Z" fill="#482402"/>
<path fill-rule="evenodd" clip-rule="evenodd" d="M74.5254 72.156C74.4561 72.4339 74.1747 72.6031 73.8968 72.5338C73.5872 72.4566 73.0189 72.4 72.3945 72.5113C71.7761 72.6216 71.1316 72.8909 70.6201 73.4363C70.4242 73.6452 70.096 73.6557 69.8871 73.4598C69.6782 73.2638 69.6677 72.9357 69.8636 72.7268C70.5642 71.9797 71.4325 71.6294 72.2124 71.4903C72.9864 71.3522 73.7023 71.4164 74.1477 71.5274C74.4256 71.5967 74.5947 71.8781 74.5254 72.156Z" fill="#482402"/>
<defs>
<linearGradient id="paint0_linear" x1="41.0638" y1="32.242" x2="41.0638" y2="52.028" gradientUnits="userSpaceOnUse">
<stop stop-color="#9F4A08"/>
<stop offset="0.37" stop-color="#7D3900"/>
<stop offset="1" stop-color="#8D4104"/>
</linearGradient>
<linearGradient id="paint1_linear" x1="66.7186" y1="70.78" x2="82.3278" y2="79.8551" gradientUnits="userSpaceOnUse">
<stop stop-color="#EFC443"/>
<stop offset="1" stop-color="#E69536"/>
</linearGradient>
</defs>
</svg>
