<svg width="91" height="91" viewBox="0 0 91 91" fill="none" xmlns="http://www.w3.org/2000/svg">
<circle cx="45" cy="45" r="42.5" fill="#C2A633" stroke="white" stroke-width="5"/>
<path d="M30.9623 26H45.0391C48.2716 26 50.722 26.2506 52.3904 26.7517C54.6495 27.4257 56.5786 28.6181 58.1775 30.3288C59.7762 32.0223 60.9754 34.0787 61.7748 36.4979C62.5916 38.9172 63 41.9068 63 45.4665C63 48.5944 62.5482 51.4197 61.6445 53.9427C60.7582 56.4484 59.4461 58.5393 57.7082 60.2155C56.3701 61.477 54.5714 62.4707 52.3121 63.1964C50.6089 63.7321 48.3237 64 45.4561 64H30.9623V47.4106H27V42.5894H30.9623V26ZM38.6524 32.4284V42.5894H46.8378V47.4106H38.6524V57.5976H44.4395C46.9941 57.5976 48.8363 57.3901 49.9659 56.9755C51.4606 56.4571 52.5988 55.5066 53.3809 54.1242C54.4757 52.1714 55.0232 49.1905 55.0232 45.1815C55.0232 42.3302 54.7886 40.1355 54.3194 38.5976C53.8675 37.0423 53.1897 35.7895 52.286 34.839C51.3997 33.8886 50.2353 33.2233 48.7928 32.8431C47.6806 32.5666 45.4648 32.4284 42.1455 32.4284H38.6524Z" fill="white"/>
<circle cx="74" cy="74" r="15.5" fill="#FFF1D9" stroke="#6BB9F3" stroke-width="3"/>
<path fill-rule="evenodd" clip-rule="evenodd" d="M76.6753 80.6082C75.2433 83.0885 72.0717 83.9383 69.5914 82.5063C67.111 81.0743 66.2612 77.9027 67.6932 75.4224C69.1253 72.9421 72.2968 72.0923 74.7772 73.5243C77.2575 74.9563 78.1073 78.1279 76.6753 80.6082ZM70.1099 81.6081C72.0942 82.7537 74.6315 82.0739 75.7771 80.0896C76.9227 78.1053 76.2428 75.5681 74.2586 74.4225C72.2743 73.2769 69.7371 73.9567 68.5914 75.941C67.4458 77.9252 68.1257 80.4625 70.1099 81.6081Z" fill="#482402"/>
<path fill-rule="evenodd" clip-rule="evenodd" d="M74.9671 79.6229C74.0793 81.1607 72.1129 81.6876 70.5751 80.7997C69.0373 79.9119 68.5104 77.9455 69.3983 76.4077C70.2861 74.8699 72.2525 74.343 73.7903 75.2309C75.3281 76.1187 75.855 78.0851 74.9671 79.6229ZM71.0937 79.9015C72.1354 80.503 73.4675 80.1461 74.0689 79.1043C74.6704 78.0626 74.3134 76.7305 73.2717 76.1291C72.23 75.5276 70.8979 75.8846 70.2965 76.9263C69.695 77.968 70.0519 79.3001 71.0937 79.9015Z" fill="#482402"/>
<path fill-rule="evenodd" clip-rule="evenodd" d="M73.6018 75.5572C72.2442 74.7733 70.5082 75.2385 69.7243 76.5961C68.9405 77.9538 69.4056 79.6898 70.7633 80.4736C72.1209 81.2575 73.857 80.7923 74.6408 79.4347C75.4246 78.077 74.9595 76.341 73.6018 75.5572ZM68.5897 75.9411C69.7354 73.9568 72.2726 73.277 74.2569 74.4226C76.2411 75.5682 76.921 78.1055 75.7754 80.0897C74.6298 82.074 72.0925 82.7538 70.1083 81.6082C68.124 80.4626 67.4441 77.9253 68.5897 75.9411Z" fill="#F6E6D2"/>
<path d="M80.7288 69.4362C80.3922 70.0193 79.8953 70.4522 79.3259 70.7114C78.8848 70.9122 78.6129 71.6524 78.9046 72.0393C80.0186 73.5171 80.5281 75.3756 80.3255 77.2132C80.2934 77.5035 80.4889 77.7735 80.7619 77.8772C80.8908 77.9262 81.0175 77.9861 81.1407 78.0572C82.3808 78.7732 82.8058 80.359 82.0897 81.5992C81.3737 82.8393 79.788 83.2642 78.5478 82.5482L66.8262 75.7808C65.5861 75.0648 65.1612 73.479 65.8772 72.2388C66.5932 70.9987 68.179 70.5738 69.4191 71.2898C69.5424 71.3609 69.6575 71.4406 69.7643 71.5278C69.9907 71.7124 70.3223 71.7466 70.5577 71.5738C72.0477 70.4795 73.912 69.9915 75.7488 70.2173C76.2297 70.2765 76.7348 69.6709 76.6882 69.1885C76.628 68.5658 76.7544 67.919 77.0911 67.3359C77.9503 65.8477 79.3347 66.2361 80.8229 67.0953C80.8229 67.0953 81.588 67.948 80.7288 69.4362Z" fill="#E89B37"/>
<path d="M80.7288 69.4362C80.3922 70.0193 79.8953 70.4522 79.3259 70.7114C78.8848 70.9122 78.6129 71.6524 78.9046 72.0393C80.0186 73.5171 80.5281 75.3756 80.3255 77.2132C80.2934 77.5035 80.4889 77.7735 80.7619 77.8772C80.8908 77.9262 81.0175 77.9861 81.1407 78.0572C82.3808 78.7732 82.8058 80.359 82.0897 81.5992C81.3737 82.8393 79.788 83.2642 78.5478 82.5482L66.8262 75.7808C65.5861 75.0648 65.1612 73.479 65.8772 72.2388C66.5932 70.9987 68.179 70.5738 69.4191 71.2898C69.5424 71.3609 69.6575 71.4406 69.7643 71.5278C69.9907 71.7124 70.3223 71.7466 70.5577 71.5738C72.0477 70.4795 73.912 69.9915 75.7488 70.2173C76.2297 70.2765 76.7348 69.6709 76.6882 69.1885C76.628 68.5658 76.7544 67.919 77.0911 67.3359C77.9503 65.8477 79.3347 66.2361 80.8229 67.0953C80.8229 67.0953 81.588 67.948 80.7288 69.4362Z" fill="url(#paint0_linear)"/>
<path d="M79.5625 76.7724C79.7651 74.9349 79.2556 73.0763 78.1416 71.5986L77.858 72.0898C78.2866 74.1337 77.9384 74.1722 77.766 75.7352C77.734 76.0256 77.9295 76.2956 78.2025 76.3993C78.3314 76.4482 78.458 76.5081 78.5813 76.5793C79.8214 77.2953 80.2463 78.8811 79.5303 80.1212C78.8143 81.3614 77.2285 81.7863 75.9884 81.0703L77.7848 82.1074C79.0249 82.8235 80.6107 82.3985 81.3267 81.1584C82.0427 79.9182 81.6178 78.3324 80.3777 77.6164C80.2544 77.5453 80.1278 77.4854 79.9989 77.4365C79.7259 77.3328 79.5304 77.0627 79.5625 76.7724Z" fill="#E28432"/>
<path fill-rule="evenodd" clip-rule="evenodd" d="M78.8966 69.7674C79.2759 69.5948 79.606 69.3074 79.8311 68.9175C80.4039 67.9254 80.064 66.6568 79.0719 66.084C78.0797 65.5112 76.8111 65.8511 76.2383 66.8432C76.0132 67.2331 75.9294 67.6627 75.9695 68.0774C76.0285 68.6869 75.751 69.2325 75.4425 69.5816C75.1406 69.9231 74.5827 70.323 73.8712 70.2355C72.2972 70.0419 70.6977 70.4606 69.4206 71.3984C68.7415 71.8971 67.8866 71.7516 67.3578 71.3202C67.2938 71.268 67.2245 71.2199 67.1495 71.1767C66.4055 70.7471 65.454 71.002 65.0244 71.7461C64.5948 72.4902 64.8497 73.4417 65.5938 73.8713L79.0669 81.65C79.811 82.0796 80.7624 81.8246 81.192 81.0805C81.6216 80.3364 81.3667 79.385 80.6226 78.9554C80.5477 78.9121 80.4713 78.8761 80.3942 78.8468C79.7562 78.6045 79.2027 77.9369 79.295 77.0994C79.4687 75.5245 79.0316 73.93 78.0769 72.6636C77.6454 72.0912 77.7127 71.4082 77.8576 70.9759C78.0056 70.5342 78.3393 70.0211 78.8966 69.7674ZM79.3264 70.7114C79.8958 70.4521 80.3927 70.0192 80.7293 69.4361C81.5885 67.9479 81.0786 66.045 79.5904 65.1858C78.1022 64.3266 76.1993 64.8365 75.3401 66.3247C75.0034 66.9078 74.877 67.5545 74.9372 68.1773C74.9838 68.6596 74.4787 69.2652 73.9978 69.2061C72.161 68.9802 70.2967 69.4682 68.8067 70.5625C68.5713 70.7354 68.2397 70.7011 68.0133 70.5165C67.9065 70.4294 67.7914 70.3496 67.6681 70.2785C66.428 69.5625 64.8422 69.9874 64.1262 71.2275C63.4102 72.4677 63.8351 74.0535 65.0752 74.7695L78.5483 82.5482C79.7885 83.2642 81.3742 82.8393 82.0902 81.5991C82.8063 80.3589 82.3813 78.7732 81.1412 78.0572C81.018 77.986 80.8913 77.9261 80.7624 77.8772C80.4894 77.7735 80.2939 77.5034 80.326 77.2131C80.5286 75.3756 80.0191 73.517 78.9051 72.0393C78.6134 71.6523 78.8853 70.9121 79.3264 70.7114Z" fill="#482402"/>
<path fill-rule="evenodd" clip-rule="evenodd" d="M74.5254 72.156C74.4561 72.4339 74.1747 72.6031 73.8968 72.5338C73.5872 72.4566 73.0189 72.4 72.3945 72.5113C71.7761 72.6216 71.1316 72.8909 70.6201 73.4363C70.4242 73.6452 70.096 73.6557 69.8871 73.4598C69.6782 73.2638 69.6677 72.9357 69.8636 72.7268C70.5642 71.9797 71.4325 71.6294 72.2124 71.4903C72.9864 71.3522 73.7023 71.4164 74.1477 71.5274C74.4256 71.5967 74.5947 71.8781 74.5254 72.156Z" fill="#482402"/>
<defs>
<linearGradient id="paint0_linear" x1="66.7186" y1="70.78" x2="82.3278" y2="79.8551" gradientUnits="userSpaceOnUse">
<stop stop-color="#EFC443"/>
<stop offset="1" stop-color="#E69536"/>
</linearGradient>
</defs>
</svg>
