<svg width="91" height="99" viewBox="0 0 91 99" fill="none" xmlns="http://www.w3.org/2000/svg">
<path fill-rule="evenodd" clip-rule="evenodd" d="M24.7144 54.6406C24.7089 54.7602 24.7062 54.8801 24.7062 55.0004C24.7062 55.4553 24.7458 55.9045 24.823 56.3468H24.7062V57.0432C24.7062 57.3831 24.7283 57.7199 24.7717 58.053C25.619 64.5537 34.5757 69.6686 45.5 69.6686C56.4243 69.6686 65.381 64.5537 66.2283 58.053C66.2717 57.7199 66.2938 57.3831 66.2938 57.0432V56.3468H66.177C66.2542 55.9045 66.2938 55.4553 66.2938 55.0004C66.2938 54.8801 66.2911 54.7602 66.2856 54.6406C65.9719 47.8342 56.7859 42.3751 45.5 42.3751C34.2141 42.3751 25.0281 47.8342 24.7144 54.6406ZM23.0067 54.6406C23.1613 50.4878 25.9833 46.9993 29.9111 44.6145C33.9826 42.1424 39.4983 40.6689 45.5 40.6689C51.5017 40.6689 57.0174 42.1424 61.0889 44.6145C65.0167 46.9993 67.8387 50.4878 67.9933 54.6406H68V57.0432C68 61.3544 65.1296 64.9758 61.0889 67.4291C57.0174 69.9012 51.5017 71.3747 45.5 71.3747C39.4983 71.3747 33.9826 69.9012 29.9111 67.4291C25.8704 64.9758 23 61.3544 23 57.0432V54.6406H23.0067Z" fill="#606063"/>
<path d="M66.2937 57.0435C66.2937 64.0163 56.984 69.6688 45.4999 69.6688C34.0158 69.6688 24.7061 64.0163 24.7061 57.0435V55.0449H66.2937V57.0435Z" fill="#BEBEBE"/>
<path d="M66.2937 55.0003C66.2937 61.9731 56.984 67.6257 45.4999 67.6257C34.0158 67.6257 24.7061 61.9731 24.7061 55.0003C24.7061 48.0275 34.0158 42.375 45.4999 42.375C56.984 42.375 66.2937 48.0275 66.2937 55.0003Z" fill="#FAF9FA"/>
<path fill-rule="evenodd" clip-rule="evenodd" d="M27.9056 51.4341C27.9056 51.442 27.9056 51.4499 27.9056 51.4578C27.9056 52.032 27.9888 52.5942 28.1482 53.1403H27.9054V53.8797C27.9054 54.2061 27.9323 54.5286 27.9848 54.8465C28.7775 59.647 35.4097 63.3941 43.474 63.3941C51.5383 63.3941 58.1705 59.647 58.9632 54.8465C59.0157 54.5286 59.0426 54.2061 59.0426 53.8797V53.1403H58.8002C58.9553 52.6091 59.0382 52.0626 59.0426 51.5048C59.0428 51.4891 59.0428 51.4735 59.0428 51.4578C59.0428 51.4499 59.0428 51.442 59.0428 51.4341C59.0218 46.1904 52.0596 41.9435 43.4742 41.9435C34.8888 41.9435 27.9266 46.1904 27.9056 51.4341ZM26.1994 51.4341H26.1992V53.8797C26.1992 57.3263 28.4783 60.1704 31.5756 62.0632C34.7023 63.974 38.9132 65.1003 43.474 65.1003C48.0348 65.1003 52.2457 63.974 55.3724 62.0632C58.4697 60.1704 60.7488 57.3263 60.7488 53.8797V51.5111C60.7489 51.4934 60.749 51.4756 60.749 51.4578C60.749 48.0112 58.4699 45.1672 55.3726 43.2743C52.2459 41.3635 48.035 40.2373 43.4742 40.2373C38.9134 40.2373 34.7025 41.3635 31.5758 43.2743C28.4856 45.1628 26.2099 47.9982 26.1994 51.4341Z" fill="#633001"/>
<path d="M59.0425 53.8798C59.0425 59.1345 52.0722 63.3942 43.4739 63.3942C34.8756 63.3942 27.9053 59.1345 27.9053 53.8798V51.6475H59.0425V53.8798Z" fill="#FEDC90"/>
<path d="M59.0425 51.4577C59.0425 56.7123 52.0722 60.9721 43.4739 60.9721C34.8756 60.9721 27.9053 56.7123 27.9053 51.4577C27.9053 46.2031 34.8756 41.9434 43.4739 41.9434C52.0722 41.9434 59.0425 46.2031 59.0425 51.4577Z" fill="#D1884F"/>
<path fill-rule="evenodd" clip-rule="evenodd" d="M32.597 46.3151C32.597 46.323 32.597 46.3309 32.597 46.3388C32.597 46.9129 32.6802 47.4751 32.8396 48.0213H32.5968V48.7606C32.5968 49.087 32.6237 49.4095 32.6762 49.7275C33.4689 54.528 40.1011 58.275 48.1654 58.275C56.2297 58.275 62.8619 54.528 63.6546 49.7275C63.7071 49.4095 63.734 49.087 63.734 48.7606V48.0213H63.4916C63.6467 47.49 63.7296 46.9436 63.734 46.3857C63.7342 46.3701 63.7342 46.3544 63.7342 46.3388C63.7342 46.3309 63.7342 46.323 63.7342 46.3151C63.7132 41.0713 56.751 36.8244 48.1656 36.8244C39.5802 36.8244 32.6179 41.0713 32.597 46.3151ZM30.8908 46.3151H30.8906V48.7606C30.8906 52.2073 33.1697 55.0513 36.267 56.9442C39.3937 58.8549 43.6046 59.9812 48.1654 59.9812C52.7262 59.9812 56.9371 58.8549 60.0638 56.9442C63.1611 55.0513 65.4402 52.2073 65.4402 48.7606V46.392C65.4403 46.3743 65.4404 46.3565 65.4404 46.3388C65.4404 42.8922 63.1613 40.0481 60.0639 38.1553C56.9373 36.2445 52.7264 35.1182 48.1656 35.1182C43.6048 35.1182 39.3939 36.2445 36.2672 38.1553C33.177 40.0438 30.9013 42.8791 30.8908 46.3151Z" fill="#633001"/>
<path d="M63.7349 48.7606C63.7349 54.0152 56.7646 58.275 48.1663 58.275C39.568 58.275 32.5977 54.0152 32.5977 48.7606V46.5283H63.7349V48.7606Z" fill="#FEDC90"/>
<path d="M63.7349 46.3396C63.7349 51.5942 56.7646 55.8539 48.1663 55.8539C39.568 55.8539 32.5977 51.5942 32.5977 46.3396C32.5977 41.085 39.568 36.8252 48.1663 36.8252C56.7646 36.8252 63.7349 41.085 63.7349 46.3396Z" fill="#D1884F"/>
<path fill-rule="evenodd" clip-rule="evenodd" d="M27.9056 41.1968C27.9056 41.2047 27.9056 41.2126 27.9056 41.2206C27.9056 41.7947 27.9888 42.3569 28.1482 42.903H27.9054V43.6424C27.9054 43.9688 27.9323 44.2913 27.9848 44.6092C28.7775 49.4098 35.4097 53.1568 43.474 53.1568C51.5383 53.1568 58.1705 49.4098 58.9632 44.6092C59.0157 44.2913 59.0426 43.9688 59.0426 43.6424V42.903H58.8002C58.9553 42.3718 59.0382 41.8253 59.0426 41.2675C59.0428 41.2519 59.0428 41.2362 59.0428 41.2206C59.0428 41.2126 59.0428 41.2047 59.0428 41.1968C59.0218 35.9531 52.0596 31.7062 43.4742 31.7062C34.8888 31.7062 27.9266 35.9531 27.9056 41.1968ZM26.1994 41.1968H26.1992V43.6424C26.1992 47.089 28.4783 49.9331 31.5756 51.8259C34.7023 53.7367 38.9132 54.863 43.474 54.863C48.0348 54.863 52.2457 53.7367 55.3724 51.8259C58.4697 49.9331 60.7488 47.089 60.7488 43.6424V41.2738C60.7489 41.2561 60.749 41.2383 60.749 41.2206C60.749 37.7739 58.4699 34.9299 55.3726 33.037C52.2459 31.1263 48.035 30 43.4742 30C38.9134 30 34.7025 31.1263 31.5758 33.037C28.4856 34.9255 26.2099 37.7609 26.1994 41.1968Z" fill="#633001"/>
<path d="M59.0425 43.6425C59.0425 48.8971 52.0722 53.1568 43.4739 53.1568C34.8756 53.1568 27.9053 48.8971 27.9053 43.6425V41.4102H59.0425V43.6425Z" fill="#FEDC90"/>
<path d="M59.0425 41.2204C59.0425 46.4751 52.0722 50.7348 43.4739 50.7348C34.8756 50.7348 27.9053 46.4751 27.9053 41.2204C27.9053 35.9658 34.8756 31.7061 43.4739 31.7061C52.0722 31.7061 59.0425 35.9658 59.0425 41.2204Z" fill="#D1884F"/>
<path fill-rule="evenodd" clip-rule="evenodd" d="M31.5879 41.8126C31.5879 43.5669 32.8627 45.1381 34.8737 46.1953L33.4803 48.6087L33.4806 48.6089H33.4803V54.7168C33.4803 55.5245 34.1351 56.1792 34.9428 56.1792C35.7504 56.1792 36.4052 55.5245 36.4052 54.7168V49.8592L37.9043 47.2627C38.8628 47.466 39.8917 47.5764 40.9626 47.5764C46.14 47.5764 50.3372 44.9958 50.3372 41.8126C50.3372 38.6293 46.14 36.0488 40.9626 36.0488C35.7851 36.0488 31.5879 38.6293 31.5879 41.8126Z" fill="url(#paint0_linear)"/>
<path fill-rule="evenodd" clip-rule="evenodd" d="M34.8734 46.1951C34.6506 46.078 34.4369 45.9546 34.2329 45.8253C32.5956 44.7876 31.5876 43.3724 31.5876 41.8124C31.5876 38.6291 35.7848 36.0486 40.9622 36.0486C46.1397 36.0486 50.3369 38.6291 50.3369 41.8124C50.3369 44.9956 46.1397 47.5762 40.9622 47.5762C39.8914 47.5762 38.8625 47.4658 37.9039 47.2625L36.4049 49.859V54.7166C36.4049 55.5243 35.7501 56.179 34.9425 56.179C34.1348 56.179 33.48 55.5243 33.48 54.7166V48.6087L34.8734 46.1951ZM31.9871 48.6344V54.7166C31.9871 56.3488 33.3103 57.6719 34.9425 57.6719C36.5746 57.6719 37.8978 56.3488 37.8978 54.7166V50.259L38.6753 48.9123C39.4138 49.0152 40.1791 49.0691 40.9622 49.0691C43.7815 49.0691 46.4054 48.3695 48.373 47.1598C50.3163 45.965 51.8298 44.1165 51.8298 41.8124C51.8298 39.5083 50.3163 37.6598 48.373 36.465C46.4054 35.2553 43.7815 34.5557 40.9622 34.5557C38.143 34.5557 35.5191 35.2553 33.5515 36.465C31.6082 37.6598 30.0947 39.5083 30.0947 41.8124C30.0947 43.8346 31.2529 45.4998 32.8621 46.6929L32.1975 47.8442C32.1341 47.9503 32.0835 48.0649 32.0479 48.1859C32.0042 48.3334 31.9844 48.4846 31.9871 48.6344Z" fill="#633001"/>
<path d="M34.5166 39.3842C34.5166 41.0333 36.6173 42.3701 39.2085 42.3701C41.7998 42.3701 43.9005 41.0333 43.9005 39.3842C43.9005 37.7352 41.7998 36.3984 39.2085 36.3984C36.6173 36.3984 34.5166 37.7352 34.5166 39.3842Z" fill="#9E7200"/>
<path d="M34.5166 38.1045H43.9005V39.3841H34.5166V38.1045Z" fill="#9E7200"/>
<path d="M34.5166 38.1041C34.5166 39.7531 36.6173 41.0899 39.2085 41.0899C41.7998 41.0899 43.9005 39.7531 43.9005 38.1041C43.9005 36.455 41.7998 35.1182 39.2085 35.1182C36.6173 35.1182 34.5166 36.455 34.5166 38.1041Z" fill="#F0B90B"/>
<path d="M37.428 37.7445L38.7505 36.9029C39.0299 36.7251 39.3871 36.7251 39.6665 36.9029L40.989 37.7445C41.2524 37.9121 41.2524 38.2966 40.989 38.4642L39.6665 39.3058C39.3871 39.4837 39.0299 39.4837 38.7505 39.3058L37.428 38.4642C37.1646 38.2966 37.1646 37.9121 37.428 37.7445Z" fill="#9E7200"/>
<path fill-rule="evenodd" clip-rule="evenodd" d="M35.0891 34.7339C36.2122 34.0192 37.6725 33.626 39.2083 33.626C40.744 33.626 42.2044 34.0192 43.3275 34.7339C44.4328 35.4374 45.3931 36.5928 45.3931 38.1048V39.3844C45.3931 40.8964 44.4328 42.0518 43.3275 42.7553C42.2044 43.47 40.744 43.8632 39.2083 43.8632C37.6725 43.8632 36.2122 43.47 35.0891 42.7553C33.9837 42.0518 33.0234 40.8964 33.0234 39.3844V38.1048C33.0234 36.5928 33.9837 35.4374 35.0891 34.7339ZM39.2083 35.1189C36.617 35.1189 34.5163 36.4557 34.5163 38.1048V39.3844C34.5163 41.0335 36.617 42.3703 39.2083 42.3703C41.7995 42.3703 43.9002 41.0335 43.9002 39.3844V38.1048C43.9002 36.4557 41.7995 35.1189 39.2083 35.1189Z" fill="#633001"/>
<circle cx="45" cy="49" r="42.5" fill="white" stroke="white" stroke-width="5"/>
<path d="M14.8916 49.6103C14.8916 66.2354 28.3689 79.7128 44.9941 79.7128C61.6192 79.7128 75.0966 66.2354 75.0966 49.6103C75.0966 32.9851 61.6192 19.5078 44.9941 19.5078C28.3689 19.5078 14.8916 32.9851 14.8916 49.6103Z" fill="#FF263D"/>
<path d="M64.2081 43.6954C63.9612 43.2133 63.3262 42.0139 62.1739 40.6969C60.7981 39.1213 59.7045 38.5333 59.3753 38.3687C59.046 38.2041 57.8466 37.5926 56.9882 37.6632C56.9059 37.6749 56.5179 37.7102 56.0123 37.6632C55.6948 37.6397 55.4008 37.6279 55.389 37.5691C55.3773 37.475 56.1063 37.428 57.0706 37.0988C57.9407 36.8048 58.5874 36.4168 58.9284 36.2169C59.3518 35.9582 59.6928 35.7112 59.9632 35.5113C59.7986 35.4996 59.5634 35.4761 59.2812 35.4173C59.0695 35.382 58.4228 35.2644 57.5997 34.9469C57.3057 34.8293 56.9294 34.6765 56.5061 34.4413C56.4003 34.5118 56.2474 34.5941 56.0593 34.6765C55.2715 35.0292 54.4013 35.0998 54.3543 34.9704C54.319 34.8764 54.7423 34.747 55.8594 34.112C57.1411 33.3947 57.6938 32.9479 57.976 32.701C58.2817 32.4423 58.5051 32.2071 58.658 32.0542C58.3758 32.113 57.9877 32.1954 57.5056 32.2659C57.2352 32.3012 56.1299 32.4423 54.3543 32.3012C52.7198 32.1601 52.2612 31.9249 51.9437 31.6545C51.6968 31.4428 51.4969 31.2664 51.4734 31.0077C51.4028 30.1258 53.4371 29.1616 55.0598 28.8323C55.389 28.7618 55.6713 28.7383 55.8594 28.7148C55.4949 28.6089 54.9775 28.4796 54.3308 28.3855C53.8016 28.315 52.6022 28.1856 50.6855 28.5031C49.8154 28.6442 46.8169 29.1381 43.983 30.8549C43.6303 31.0665 42.8895 31.5369 42.8072 31.4428C42.7484 31.3722 43.1011 31.0312 43.9242 30.1493C44.7121 29.3027 45.2412 28.703 45.7233 28.0915C46.276 27.386 46.8051 26.704 46.664 26.5276C46.5347 26.3748 45.9703 26.8451 44.7238 27.2332C43.9713 27.4683 43.889 27.386 42.6896 27.68C41.6195 27.9387 41.0904 28.0563 40.5142 28.3267C39.2207 28.9147 38.4564 29.7966 38.28 30.0082C37.4452 30.996 37.1041 32.0072 36.9513 32.5952C36.5044 32.5128 35.9753 32.3835 35.3874 32.1483C34.4467 31.772 33.7294 31.2782 33.2355 30.8784C33.1062 31.2429 32.9651 31.8308 33.0591 32.5246C33.0826 32.7363 33.2473 33.9709 34.2115 34.7C34.8229 35.1703 35.4697 35.2056 35.4462 35.3232C35.4226 35.4525 34.5878 35.3114 33.7059 35.4173C32.236 35.5819 31.2012 36.3462 30.3546 36.9812C29.2258 37.816 28.5202 38.6862 28.0264 39.3329C26.2038 41.7435 25.122 44.1658 24.4047 45.9178C23.2288 48.7987 22.4057 50.833 21.8177 53.8315C21.3356 56.2773 20.7594 59.4404 21.6061 62.8269C22.0647 64.6378 22.7584 65.8137 23.3699 66.8602C23.3699 66.8602 23.9461 67.8362 25.0514 68.8004C25.6041 69.2943 25.9921 69.4942 26.4389 69.4824C26.9681 69.4589 27.3091 69.1061 27.3561 69.0708C27.6971 68.7181 27.6618 68.2948 27.7442 67.0719C27.8617 65.1905 27.6383 70.7641 27.8617 65.6608C28.0029 62.4977 28.0616 60.922 28.0734 60.8044C28.1557 57.0651 28.532 53.8903 28.7554 52.1265C28.92 50.7389 29.0494 50.2921 29.261 48.5636C29.4139 47.2936 29.4845 46.447 29.7314 45.0594C29.8255 44.5303 29.9313 43.9188 30.1194 43.178C30.3428 42.2491 30.7191 40.9909 31.3423 39.5093C31.3306 39.7327 31.2953 40.062 31.2248 40.45C31.1424 40.8616 31.0601 41.132 31.1072 41.1555C31.1542 41.1791 31.2953 40.9086 31.6598 40.45C31.8597 40.2031 31.9773 40.0385 32.0126 40.062C32.0596 40.0855 31.8715 40.497 31.2718 41.7905C31.0013 42.3784 30.8602 42.6724 30.8367 42.7312C30.5427 43.5308 30.5427 44.1187 30.484 44.8125C30.4134 45.6591 30.3076 45.7415 30.0136 47.2466C29.6373 49.1985 29.4609 50.7624 29.2258 53.0084C29.0847 54.3371 29.0023 55.3954 28.9553 56.0304C28.8612 57.1592 28.8024 58.147 28.7554 58.9348C28.9788 59.3228 29.2493 59.7344 29.5785 60.1459C30.3428 61.1337 31.166 61.8392 31.848 62.3448C32.1067 62.9563 32.4477 63.6736 32.9063 64.4261C33.3296 65.1081 33.7647 65.6843 34.1645 66.1547C34.0821 65.7078 34.0233 65.1552 34.0469 64.5084C34.0704 63.9323 34.1527 63.4266 34.2468 63.0151C34.282 63.2855 34.3526 63.5795 34.4467 63.897C34.4819 64.0146 34.529 64.1322 34.5642 64.2498C35.0934 64.6378 35.2345 64.6966 35.2698 64.6613C35.3051 64.626 35.1757 64.4614 35.0346 64.0734C34.9758 63.9205 34.917 63.7676 34.9405 63.7441C34.9993 63.7088 35.6343 64.6731 36.0929 65.5432C36.9748 67.2365 36.9513 68.4711 37.1865 68.4594C37.4451 68.4476 37.6686 66.8837 37.6921 65.6608C37.7038 65.1434 37.6686 64.6495 37.7509 64.626C37.8214 64.6143 38.0213 64.9788 38.0213 65.3668C38.0213 65.5785 37.9508 65.6843 38.0213 65.8372C38.0919 65.9901 38.2565 66.0606 38.3741 66.1076C38.3741 65.8137 38.3859 65.5079 38.4211 65.1669C38.5034 64.3673 38.7033 63.6971 38.9032 63.1679C38.7504 63.0974 38.5387 62.9916 38.28 62.8387C36.3281 61.6628 35.5873 59.6403 35.1875 58.5703C34.3526 56.3008 34.4819 54.2548 34.6583 53.1024C34.5878 52.9849 34.4937 52.8085 34.4231 52.5968C34.1292 51.7267 34.3761 50.8565 34.4584 50.8565C34.5172 50.8565 34.4231 51.3386 34.6113 51.9736C34.7054 52.2793 34.917 52.8202 35.6696 53.5375C37.1394 54.9368 38.9268 55.4424 38.9385 55.4542C42.1369 56.3714 45.0766 54.6899 45.6293 54.3606C45.7939 54.4547 46.0291 54.6076 46.323 54.7839C47.0168 55.2073 47.8399 55.7011 48.0868 55.8422C49.8389 56.8417 52.0848 56.7594 52.4964 56.7359C53.4253 56.6889 54.1191 56.6536 54.8481 56.1597C55.6242 55.6423 55.9887 54.9133 56.1534 54.5135C56.1769 54.6546 56.2004 54.831 56.1651 55.0309C56.0593 55.6894 55.5302 56.0539 55.4008 56.1362C55.3538 56.3831 55.2832 56.7241 55.1539 57.1239C54.9305 57.8059 54.6247 58.3939 53.9662 59.4169C53.2489 60.5222 52.8844 61.0631 52.3788 61.6393C51.8261 62.2508 50.9677 63.0856 49.686 63.8617C49.6743 64.4379 49.6272 65.0846 49.5214 65.7901C49.3098 67.2012 48.8982 68.3771 48.5102 69.2943C48.6395 69.1767 48.7806 69.0473 48.91 68.8945C49.8389 67.8597 50.1446 66.6485 50.2622 65.8019C50.4621 66.1547 50.6267 66.4369 50.7443 66.625C51.1912 67.3423 51.4734 67.8009 51.9672 68.2595C52.1789 68.4594 52.367 68.6005 52.4846 68.6828C52.4376 68.4947 52.3906 68.3065 52.3553 68.0949C52.1201 66.7308 52.4023 65.5315 52.708 64.6966C52.708 65.2492 52.7198 65.8137 52.7433 66.4016C52.7668 67.0601 52.8139 67.7068 52.8609 68.3183C53.2019 67.9067 53.5782 67.4481 53.931 66.9072C54.3308 66.3193 54.6482 65.7431 54.9187 65.2257C55.4243 65.0141 55.9887 64.7319 56.5767 64.3321C58.1288 63.2738 58.9402 62.0273 59.2224 61.5687C59.8103 60.5928 60.0338 59.7932 60.3513 58.6173C61.0921 55.854 61.045 53.6198 61.0333 53.1612C60.9862 51.7619 60.7393 50.5978 60.2337 48.2461C59.8809 46.5646 59.6457 45.9178 59.4693 45.4828C58.8814 44.0129 58.1053 42.8841 58.1759 42.837C58.2464 42.79 59.1283 44.2011 59.3282 44.107C59.5046 44.0129 58.9637 42.6371 58.9755 42.6371C58.9872 42.6371 59.728 44.3069 60.4218 46.7527C60.5982 47.3759 60.9745 48.7987 61.7505 53.6904C62.0798 55.7834 62.2444 56.8417 62.3385 57.6296C62.3385 57.6296 62.75 61.3924 62.7853 66.4839C62.7853 66.8132 62.7853 67.4011 62.8324 68.2242C62.8676 68.8827 62.9382 69.8116 62.9382 69.8116C62.9617 69.894 63.0087 70.0233 63.1146 70.1409C63.3027 70.329 63.5732 70.3408 63.7025 70.3525C64.5962 70.3761 65.5251 69.6823 65.5251 69.6705C66.2777 69.1061 67.5711 68.1301 68.406 66.1664C68.6294 65.6373 68.7705 65.0729 69.0527 63.9323C69.4173 62.4624 69.6289 61.1807 69.6995 60.6633C70.0287 58.1705 69.3232 55.5718 68.7588 53.5728C67.9592 50.9036 66.701 48.5048 64.2081 43.6954Z" fill="#F6EDEB"/>
<path d="M24.9336 68.2485C25.3099 68.4602 25.8155 68.6483 26.2506 68.472C26.862 68.225 27.0855 67.3549 27.2854 64.8385C27.497 62.1693 27.3912 61.3461 27.5793 59.4882C27.7557 57.7715 28.1202 55.7725 28.2849 55.7842C28.5906 55.8195 28.2849 61.6871 27.8145 66.3083C27.7204 67.1785 27.6381 67.9075 27.5793 68.4249C27.5441 68.5308 27.3912 68.9188 26.9914 69.1305C26.4858 69.4009 25.9684 69.1893 25.8155 69.1305C25.2276 68.8953 24.9924 68.3779 24.9336 68.2485Z" fill="#C4B6B3"/>
<path d="M65.7952 69.188C65.7364 69.0234 65.0074 69.3997 64.3254 69.0705C64.0314 68.9293 63.4317 68.506 63.0907 66.3659C62.8555 64.9196 62.9378 63.9084 62.9731 63.0147C63.0672 60.3337 62.7027 57.8408 62.5615 57.8408C62.3734 57.8408 62.0089 62.3209 62.5615 67.4242C62.6674 68.3884 62.785 69.1998 62.8908 69.8113C63.1495 69.9171 63.5493 70.0347 64.0432 70.0229C65.0074 69.9641 65.854 69.3762 65.7952 69.188Z" fill="#C4B6B3"/>
<path d="M59.6219 45.7883C59.5984 45.7883 59.5984 45.8706 59.6807 47.2816C59.716 47.8578 59.7395 48.6221 59.7395 49.6099C59.7395 50.1155 59.7395 51.6088 59.7395 51.6088C59.6454 51.3384 60.1628 52.0792 60.1511 52.3732C60.1511 52.5378 60.0335 52.7612 59.5631 53.0199C59.5396 53.4902 59.4808 54.2193 59.2692 55.0777C59.0693 55.9125 58.9282 56.0301 58.3873 57.547C57.7405 59.3461 57.8111 59.5225 57.4466 59.8988C57.0115 60.3456 56.3765 60.5102 55.0948 60.8395C53.2252 61.3216 52.7195 61.1099 52.0375 61.7214C51.6965 62.0389 51.6025 62.2858 51.038 62.7209C50.4031 63.203 50.1561 63.156 49.8034 63.4264C48.992 64.0614 49.3918 65.0256 48.8627 67.0128C48.4394 68.6003 47.7926 69.4116 47.9808 69.541C48.1807 69.6821 49.1802 69.0353 49.7446 68.0711C49.968 67.6831 50.0621 67.3656 50.3325 67.3068C50.4736 67.2833 50.6382 67.3303 51.3908 67.9535C52.0728 68.5179 52.2139 68.7061 52.4609 68.6943C52.5902 68.6826 52.7195 68.612 53.1429 68.0241C53.625 67.3656 53.9895 66.86 54.3305 66.0368C54.4716 65.6958 54.5657 65.4019 54.6245 65.1902C54.9184 65.0256 55.2242 64.8492 55.5416 64.6611C56.1061 64.3201 56.6234 63.9673 57.0938 63.6263C57.5171 63.3441 58.1168 62.8855 58.693 62.1682C59.4926 61.157 59.7983 60.1692 60.1511 59.0286C60.6214 57.4882 60.7508 56.2653 60.786 55.9713C61.2564 51.2208 59.7865 45.753 59.6219 45.7883Z" fill="#C4B6B3"/>
<path d="M32.6707 39.3218C32.7178 39.3453 32.5414 39.898 32.3297 40.3448C32.318 40.3683 32.3062 40.3918 32.2827 40.4389C31.9652 41.1091 31.8829 41.215 31.9299 41.262C32.0357 41.3796 32.5884 41.0503 32.6119 41.0856C32.6354 41.1209 32.1533 41.3325 31.8123 41.7323C31.4713 42.1439 31.4125 42.6142 31.3655 42.9082C30.9892 45.9773 30.9775 46.6358 30.9775 46.6475C30.9422 50.281 30.7776 50.4809 30.9422 52.2917C31.0245 53.1854 31.1421 53.9144 31.2361 54.4083C31.5889 54.8199 31.8946 55.1609 32.1181 55.4078C32.9177 56.278 33.4821 56.9012 34.2934 57.6185C34.4228 57.736 34.6109 57.8301 34.7991 58.0653C35.046 58.3828 35.093 58.6297 35.3282 59.2176C35.3282 59.2176 35.387 59.3705 35.681 59.982C36.363 61.4165 38.6442 61.8046 38.8911 63.1921C38.9734 63.6742 38.6795 63.5684 38.5971 64.6972C38.5148 65.6967 38.7147 66.2259 38.3267 66.755C38.115 67.049 37.9974 66.9784 37.7623 67.2842C37.2214 68.0015 37.4918 68.9069 37.3742 68.9304C37.2331 68.9539 36.704 67.5899 36.0808 65.5791C35.9632 65.2029 35.681 64.2974 35.2812 64.2857C35.0578 64.2857 34.9519 64.5561 34.752 64.5209C34.3875 64.4503 34.3169 63.4273 34.2464 63.4273C34.1523 63.4391 34.411 65.685 34.1288 65.7555C34.023 65.779 33.9289 65.4968 33.4233 64.7208C33.0352 64.1328 32.9764 64.1211 32.7178 63.686C32.3062 63.004 32.3297 62.8393 32.071 62.416C31.6947 61.8281 31.3185 61.6635 30.7776 61.2049C30.5424 61.0167 29.1078 59.8173 28.7433 58.2887C28.5904 57.642 28.7315 57.3245 28.9314 56.0428C29.2372 54.0908 29.002 54.326 29.3077 51.9507C29.5429 50.1281 29.731 49.5872 30.2719 46.33C30.2837 46.236 30.3895 45.6245 30.5424 44.8014C30.7188 43.8372 30.8011 43.3551 30.8599 43.1552C31.1186 42.1557 31.4831 41.4384 31.9182 40.5682C32.1768 40.1096 32.6002 39.2983 32.6707 39.3218Z" fill="#C4B6B3"/>
<path d="M48.6043 50.2331C47.0874 49.1748 45.4765 49.116 43.7949 49.7627C43.7244 49.5275 43.9243 49.504 44.0536 49.4099C44.7474 48.9631 45.4765 48.6103 46.3466 48.6926C47.3814 48.7867 48.2045 49.2218 48.7454 50.1155C48.6984 50.1507 48.6513 50.186 48.6043 50.2331Z" fill="#D6C8C5"/>
<path d="M48.7448 50.0922C49.6855 51.0917 49.6385 51.4679 48.4861 52.244C46.4401 53.608 45.1937 53.5728 43.23 51.1152C42.9713 50.6448 43.1124 50.245 43.4534 49.8687C43.618 49.7276 43.7826 49.6101 43.959 49.4925C45.2525 48.9163 46.5695 48.8457 47.8747 49.4219C48.2275 49.563 48.592 49.7041 48.7448 50.0922Z" fill="#160909"/>
<path d="M43.4541 50.4335C43.8421 49.9279 44.3595 49.6575 44.9827 49.5634C46.2174 49.3635 47.3933 49.4458 48.4398 50.2219C48.7456 50.457 49.0631 50.704 49.0983 51.1391C48.9807 51.433 48.7338 51.5271 48.4634 51.5976C46.9582 51.9622 45.5001 51.7505 44.1126 51.1155C43.8069 50.9862 43.5247 50.8098 43.4541 50.4335Z" fill="#4A3132"/>
<path d="M43.4541 50.4336C43.9832 51.0215 44.6888 51.2097 45.4178 51.3861C46.4526 51.6448 47.4874 51.6918 48.5339 51.3978C48.7456 51.339 48.9337 51.2567 49.1101 51.1391C49.1571 51.633 48.7103 51.7271 48.4398 51.9387C47.9577 52.315 47.4403 52.656 46.8406 52.8324C46.2174 53.0205 45.6765 52.9618 45.1709 52.5267C44.7828 52.1857 44.336 51.9152 43.9597 51.5742C43.6305 51.2685 43.4659 50.8804 43.4541 50.4336Z" fill="#391E1D"/>
<path d="M60.1178 52.3697C60.1793 51.671 58.9495 50.992 57.3709 50.8531C55.7924 50.7142 54.4628 51.168 54.4014 51.8667C54.3399 52.5654 55.5697 53.2444 57.1483 53.3833C58.7268 53.5223 60.0564 53.0684 60.1178 52.3697Z" fill="#F68085"/>
<path d="M37.2682 49.0523C37.3297 48.3536 36.0999 47.6746 34.5213 47.5357C32.9428 47.3968 31.6132 47.8506 31.5518 48.5493C31.4903 49.248 32.7201 49.9271 34.2987 50.066C35.8772 50.2049 37.2067 49.7511 37.2682 49.0523Z" fill="#F68085"/>
<path d="M33.9055 45.7294C33.929 45.8823 34.0819 46.0117 34.2347 46.0587C34.5287 46.1528 34.7992 45.9293 35.0931 45.7647C35.4459 45.5648 35.8339 45.4825 36.5982 45.3179C37.0216 45.2356 37.7153 45.0827 38.5384 45.2591C38.9735 45.3532 40.2552 45.6119 40.5374 46.435C40.6315 46.7054 40.608 47.0111 40.8902 47.2934C40.9372 47.3404 41.1959 47.5991 41.4193 47.5285C41.7016 47.4462 41.7839 46.8818 41.7486 46.4938C41.6663 45.8 41.1019 45.3414 40.8667 45.165C39.973 44.4713 38.9735 44.4242 37.7859 44.3889C37.7859 44.3889 35.54 44.3184 34.2818 45.2356C34.1407 45.3179 33.8702 45.506 33.9055 45.7294Z" fill="#000813"/>
<path d="M51.3908 47.317C51.9788 46.6938 52.7901 46.6115 53.4251 46.5527C53.6485 46.5292 54.5657 46.4586 55.6358 46.8467C55.7533 46.8937 56.1296 47.0936 56.8704 47.4934C56.8704 47.4934 57.7759 47.9873 58.5167 48.7634C58.5872 48.8339 58.7166 48.9868 58.693 49.1514C58.6813 49.2455 58.6107 49.3513 58.5167 49.3866C58.305 49.4806 58.011 49.2337 57.8346 49.0926C57.8346 49.0926 57.7876 49.0573 56.4589 48.2342C56.1061 48.0226 55.4946 47.6345 54.6598 47.5052C54.1894 47.4346 53.4839 47.317 52.8372 47.6815C52.4844 47.8814 52.0964 48.1049 51.8377 48.5399C51.7436 48.6928 51.6613 48.8809 51.4496 48.9515C51.2615 49.0103 51.0028 48.9515 50.8852 48.7986C50.65 48.4811 50.9793 47.7521 51.3908 47.317Z" fill="#000813"/>
<path d="M52.6259 42.7784C52.6141 42.8019 52.6141 42.8725 52.5671 42.9078C52.0144 43.4016 51.4735 43.9073 50.8973 44.3776C50.7092 44.5305 50.6269 44.3776 50.6504 44.1777C50.7092 43.7191 51.9086 42.4962 52.3437 42.4609C52.5318 42.4492 52.6376 42.5432 52.6259 42.7784Z" fill="#130F0C"/>
<path d="M42.1608 43.1671C42.2784 43.0966 42.1726 42.6145 41.8904 42.2852C41.7963 42.1676 41.761 42.1794 41.5376 41.9912C40.9849 41.5444 40.9497 41.3327 40.5969 41.1916C40.5381 41.1681 40.1618 41.0388 40.0325 41.1916C39.9502 41.2975 40.0325 41.4974 40.0677 41.5444C40.4087 41.7678 40.6557 41.9795 40.8321 42.1323C41.0555 42.3322 41.2671 42.5439 41.6317 42.8379C41.9374 43.0966 42.0903 43.2141 42.1608 43.1671Z" fill="#000813" stroke="#000813" stroke-miterlimit="10"/>
<path d="M30.2134 37.2285C30.0135 38.1692 29.8018 39.0982 29.6019 40.0389C28.4613 42.7787 27.3325 45.5302 26.1919 48.27C25.9096 49.8927 25.6274 51.5154 25.3452 53.1381C25.0983 54.3963 24.8984 55.9014 24.8514 57.6065C24.8161 59.0998 24.8984 60.4521 25.0513 61.6044C24.8749 62.0748 24.6985 62.5451 24.5221 63.0155C24.4163 63.0743 24.0165 63.3095 23.4873 63.2154C23.1934 63.1684 22.9935 63.0037 22.4643 62.5334C22.1586 62.2512 21.7706 61.8866 21.3237 61.4516C21.0768 60.3345 20.8651 58.7353 21.0062 56.8304C21.065 56.0308 21.2179 55.6192 22.0998 52.1386C22.9229 48.8932 22.8288 49.2107 22.9229 48.8697C23.8989 45.4479 25.0983 43.0726 25.4158 42.4494C27.0267 39.2981 28.1673 38.3456 29.061 37.8047C29.5313 37.5107 29.9311 37.3343 30.2134 37.2285Z" fill="url(#paint1_linear)"/>
<path d="M61.7383 39.6504C62.0205 40.6146 62.3145 41.5788 62.5967 42.5548C63.314 44.9301 64.0312 47.3171 64.7485 49.6924L65.5716 54.8662C65.8186 56.1244 66.0185 57.6296 66.0655 59.3346C66.1008 60.8279 66.0185 62.1802 65.8656 63.3326C66.042 63.8029 66.2184 64.2733 66.3948 64.7436C66.677 64.7319 67.0768 64.6966 67.5354 64.579C67.7352 64.532 68.1468 64.4261 68.4525 64.2497C69.1228 63.8735 69.405 63.0739 69.5696 62.3919C70.1458 60.0048 69.8166 57.5237 69.8166 57.5237C69.6167 56.0068 69.2169 53.9255 68.4055 51.4915C67.3472 49.1868 66.2772 46.882 65.2189 44.5773C64.0548 42.9311 62.9024 41.2966 61.7383 39.6504Z" fill="url(#paint2_linear)"/>
<path d="M62.3033 40.8153C63.2087 43.7785 63.973 46.777 64.7491 49.7755C64.7961 49.9636 64.8549 50.1518 64.902 50.3399C65.5252 52.4683 65.8074 54.2556 65.9485 55.5256C66.3013 58.7945 66.313 61.2286 66.313 62.3692C66.313 62.8983 66.2425 63.4157 66.3836 63.9448C66.4894 64.3329 66.6893 64.4505 67.0891 64.474C68.1591 64.5445 68.7706 63.8861 69.3703 63.1688C69.4291 63.6156 69.0175 63.8625 68.8999 64.2388C68.312 64.8385 67.5712 64.9443 66.7951 64.862C66.1719 64.8032 65.8309 64.3211 65.8192 63.545C65.8074 62.0987 65.8074 60.6406 65.7721 59.1943C65.7016 56.0665 65.0313 53.0209 64.2788 49.9989C63.5967 47.2709 62.9147 44.5428 62.0799 41.8501C61.8917 41.2504 61.8564 40.6154 61.8564 39.9922C62.0563 40.2274 61.8094 40.733 62.3033 40.8153Z" fill="#140705"/>
<path d="M25.486 49.8219C25.6742 48.6813 26.1328 47.623 26.4973 46.553C27.1323 44.7068 27.9789 42.943 28.8138 41.191C29.3782 40.0151 29.8956 38.8039 29.8603 37.4517C30.0014 37.3106 30.1543 37.1577 30.2954 37.0166C30.4012 38.9098 29.6134 40.556 28.8138 42.1905C27.8378 44.213 26.9206 46.2708 26.3209 48.4344C25.2509 52.303 24.8158 56.254 25.0039 60.2755C25.0275 60.8634 25.1215 61.4514 25.0157 62.0275C24.7452 63.4268 23.4635 63.8854 22.3347 62.9918C22.1348 62.8389 21.9584 62.6508 21.7703 62.4744C21.6527 62.3568 21.6174 62.4156 21.5821 62.5332C21.5116 62.1804 21.4175 61.8276 21.4998 61.4631C21.9231 61.8864 22.2171 62.4273 22.7345 62.7683C23.1461 63.0388 23.5694 63.0976 24.0044 62.8977C24.463 62.686 24.5453 62.2627 24.5453 61.8159C24.5453 60.593 24.6159 59.3583 24.5453 58.1354C24.4866 57.0771 24.6159 55.9835 24.8628 53.7964C24.9922 52.7028 25.1215 51.8444 25.1803 51.4917C25.2979 50.8449 25.4037 50.2805 25.486 49.8219Z" fill="#120604"/>
<path d="M56.1174 37.7104C55.6118 37.9927 55.1532 37.6869 54.6594 37.5929C55.2826 37.3694 55.9175 37.1813 56.4937 36.8873C56.4584 36.6639 56.2468 36.8638 56.1527 36.711C56.8347 36.5111 57.3991 36.1348 58.1399 35.782C57.3404 35.6644 56.6819 35.5351 56.0116 35.4763C55.4237 35.4175 54.8945 35.1941 54.3301 35.0765C54.3184 35.0765 54.3184 35.0412 54.3184 35.0294C54.3301 35.0177 54.3419 35.0059 54.3654 34.9942C55.0004 35.0765 55.5413 34.7708 56.1174 34.5944C56.2586 34.5473 56.3644 34.3827 56.5408 34.4768C57.5755 35.053 58.7279 35.2764 59.9743 35.488C58.575 36.511 57.0817 37.099 55.5295 37.6399C55.7177 37.7575 55.9293 37.6634 56.1174 37.7104Z" fill="#C8BEB8"/>
<path d="M42.8308 31.4785C41.9254 31.7725 41.1493 32.4192 40.0439 32.4074C40.5496 31.9488 41.1258 31.7489 41.5373 31.3256C42.4192 30.7142 43.2188 29.9969 44.0067 29.2796C44.5241 28.8093 45.0062 28.2801 45.5118 27.798C45.6411 27.6804 45.7235 27.4335 45.9821 27.5746C45.4177 28.5976 44.6534 29.4442 43.8185 30.2321C43.4893 30.5378 43.1718 30.8553 42.8661 31.1845C42.8073 31.2433 42.5721 31.3491 42.8308 31.4785Z" fill="#C1B6B3"/>
<path d="M51.4259 31.0075C51.179 31.1956 51.3201 31.6307 50.9556 31.7365C50.9085 30.7488 52.0138 29.079 53.0721 28.7616C53.3426 28.6792 53.6483 28.644 53.86 28.4206C54.4949 28.35 55.0946 28.5381 55.8472 28.691C54.1187 29.1496 52.4607 29.5024 51.4259 31.0075Z" fill="#BFB5AC"/>
<path d="M55.2832 34.3949C55.0951 34.1597 54.7894 34.2185 54.4131 34.0657C55.3891 33.7247 56.2475 33.3954 57.1882 32.9603C56.4356 32.784 55.7771 32.6664 55.1539 32.4312C56.2827 32.4312 57.4116 32.3254 58.6698 31.9844C57.6585 33.1132 56.5297 33.8423 55.2832 34.3949Z" fill="#C6BAB5"/>
<path d="M33.1765 31.0898C33.5645 32.5009 34.1877 33.7826 35.152 34.8997C35.246 35.0173 35.4107 35.0878 35.3989 35.276C33.541 34.7351 32.4592 32.7008 33.1765 31.0898Z" fill="#C4B9B7"/>
<path d="M69.6524 60.6638C69.5818 61.1812 69.3702 62.4512 69.0057 63.9328C68.7234 65.0734 68.5823 65.6378 68.3589 66.1669C67.524 68.1307 66.2306 69.0949 65.478 69.6711C65.478 69.6711 64.5491 70.3766 63.6554 70.3531C63.5261 70.3531 63.2556 70.3413 63.0675 70.1414C62.9616 70.0356 62.9146 69.8945 62.8911 69.8122C62.8911 69.8122 62.8205 68.8832 62.7853 68.2247C62.7382 67.4134 62.7382 66.8137 62.7382 66.4844C62.7147 61.3929 62.2914 57.6418 62.2914 57.6301C62.1973 56.8422 62.0327 55.7839 61.7035 53.6909C60.9274 48.7992 60.5511 47.3764 60.3747 46.7532C59.6927 44.3074 58.9401 42.6376 58.9284 42.6376C58.9166 42.6376 59.4575 44.0134 59.2812 44.1075C59.093 44.2015 58.2111 42.8022 58.1288 42.8375C58.0582 42.8846 58.8343 44.0134 59.4223 45.4832C59.5986 45.9183 59.8338 46.5651 60.1866 48.2466C60.6922 50.5866 60.9391 51.7624 60.9862 53.1617C60.9979 53.6203 61.0567 55.8545 60.3042 58.6178C59.9867 59.7937 59.7633 60.5933 59.1753 61.5693C58.8931 62.0279 58.0818 63.2743 56.5296 64.3326C55.9417 64.7324 55.3655 65.0263 54.8716 65.2262C54.6129 65.7436 54.2837 66.3081 53.8839 66.9077C53.5194 67.4487 53.1548 67.9072 52.8138 68.3188C52.7668 67.7073 52.7198 67.0724 52.6962 66.4021C52.6727 65.8142 52.661 65.2498 52.661 64.6971C52.3552 65.532 52.073 66.7314 52.3082 68.0954C52.3435 68.307 52.3905 68.4952 52.4375 68.6833C52.32 68.601 52.1318 68.4599 51.9202 68.26C51.438 67.8014 51.1441 67.3428 50.6972 66.6255C50.5797 66.4374 50.4033 66.1552 50.2151 65.8024C50.0975 66.6373 49.7918 67.8485 48.8629 68.895C48.7335 69.0361 48.6042 69.1772 48.4631 69.2948C48.8629 68.3894 49.2627 67.2135 49.4743 65.7907C49.5802 65.0969 49.6272 64.4502 49.639 63.8622C50.9089 63.0861 51.7791 62.2513 52.3317 61.6398C52.8373 61.0754 53.2019 60.5227 53.9192 59.4174C54.5894 58.3944 54.8834 57.8065 55.1068 57.1244C55.2361 56.7246 55.3067 56.3836 55.3537 56.1367C55.4831 56.0544 56.0122 55.6899 56.118 55.0314C56.1533 54.8315 56.1298 54.6551 56.1063 54.514C55.9417 54.9138 55.5654 55.6428 54.8011 56.1602C54.072 56.6423 53.3782 56.6894 52.4493 56.7364C52.0377 56.7599 49.7918 56.8305 48.0398 55.8427C47.7928 55.7016 46.9697 55.2078 46.2759 54.7844C45.982 54.6081 45.7468 54.4552 45.5822 54.3611C45.0295 54.6904 42.0898 56.3601 38.8914 55.4547C38.8914 55.4547 37.0923 54.9373 35.6225 53.538C34.8699 52.8207 34.6583 52.2916 34.5642 51.9741C34.3761 51.3391 34.4701 50.857 34.4113 50.857C34.3408 50.857 34.0821 51.7154 34.3761 52.5973C34.4466 52.809 34.5407 52.9736 34.6112 53.1029C34.4349 54.2553 34.3055 56.3013 35.1404 58.5708C35.5284 59.6291 36.2692 61.6516 38.2329 62.8392C38.4799 62.9921 38.7033 63.0979 38.8562 63.1685C38.6563 63.6976 38.4564 64.3679 38.3741 65.1675C38.3388 65.5085 38.327 65.8142 38.327 66.1082C38.2094 66.0729 38.0448 65.9906 37.9743 65.8377C37.9037 65.6848 37.9743 65.579 37.9743 65.3674C37.986 64.9793 37.7861 64.6265 37.7038 64.6265C37.6215 64.6383 37.6568 65.1322 37.645 65.6613C37.6333 66.8725 37.4098 68.4364 37.1394 68.4599C36.9042 68.4717 36.9395 67.2488 36.0458 65.5437C35.5872 64.6736 34.964 63.7211 34.8935 63.7446C34.8699 63.7564 34.9287 63.921 34.9875 64.0739C35.1286 64.4619 35.258 64.6265 35.2227 64.6618C35.1874 64.6971 35.0463 64.6383 34.5172 64.2503C34.4819 64.1327 34.4349 64.0151 34.3996 63.8975C34.3055 63.58 34.2467 63.286 34.1997 63.0156C34.1056 63.4272 34.0233 63.921 33.9998 64.509C33.9763 65.1557 34.0351 65.7084 34.1174 66.1552C33.7176 65.6848 33.2825 65.1087 32.8592 64.4266C32.4006 63.6741 32.0596 62.9686 31.8009 62.3453C31.1071 61.8397 30.2958 61.1342 29.5315 60.1464C29.2022 59.7231 28.9318 59.3116 28.7083 58.9353C28.7554 58.1475 28.8142 57.1715 28.9082 56.0309C28.9553 55.3959 29.0376 54.3494 29.1787 53.0089C29.4139 50.7629 29.5785 49.199 29.9665 47.2471C30.2605 45.7419 30.3663 45.6596 30.4369 44.813C30.4957 44.131 30.4957 43.543 30.7896 42.7317C30.8132 42.6729 30.9543 42.3789 31.2247 41.791C31.8244 40.4975 32.0126 40.0977 31.9655 40.0624C31.9302 40.0389 31.8127 40.2036 31.6128 40.4505C31.2482 40.9091 31.1189 41.1795 31.0601 41.156C31.0131 41.1325 31.0954 40.862 31.1777 40.4505C31.2482 40.0624 31.2835 39.7332 31.2953 39.5098C30.6603 40.9796 30.2958 42.2496 30.0724 43.1785C29.896 43.9193 29.7784 44.5308 29.6843 45.0599C29.4374 46.4475 29.3668 47.2823 29.214 48.564C29.0023 50.2808 28.8847 50.7277 28.7083 52.127C28.4967 53.8908 28.1086 57.0539 28.0263 60.8049C28.0263 60.9225 27.9558 62.4982 27.8147 65.6613C27.5913 70.7646 27.8147 65.191 27.6971 67.0724C27.6148 68.2953 27.6618 68.7186 27.309 69.0714C27.2738 69.1066 26.921 69.4594 26.3919 69.4829C25.9568 69.5064 25.5687 69.2948 25.0043 68.8009C23.9108 67.8367 23.3346 66.8607 23.3228 66.8607C22.7114 65.8259 22.0176 64.6501 21.559 62.8275C20.7006 59.4409 21.2886 56.2778 21.7707 53.832C22.3586 50.8335 23.1817 48.811 24.3576 45.9183C25.0749 44.1663 26.1567 41.744 27.9793 39.3334C28.4614 38.6867 29.1787 37.8165 30.3075 36.9816C31.1542 36.3584 32.1889 35.5941 33.6588 35.4177C34.5407 35.3237 35.3756 35.4648 35.3991 35.3237C35.4226 35.2061 34.7759 35.1708 34.1644 34.7004C33.2002 33.9714 33.0473 32.7367 33.0121 32.5251C32.918 31.8313 33.0591 31.2434 33.1884 30.8788C33.6705 31.2786 34.3878 31.7725 35.3403 32.1488C35.9165 32.3722 36.4456 32.5133 36.9042 32.5956C37.0453 32.0077 37.3863 30.9964 38.2329 30.0087C38.4093 29.797 39.1736 28.9269 40.4671 28.3272C41.0433 28.0567 41.5724 27.9391 42.6425 27.6804C43.8301 27.3982 43.9242 27.4806 44.6768 27.2336C45.9232 26.8456 46.4876 26.3752 46.617 26.5281C46.7581 26.6927 46.2289 27.3747 45.6762 28.092C45.1941 28.7035 44.665 29.3032 43.8772 30.1498C43.054 31.0317 42.7013 31.3727 42.7601 31.4433C42.8424 31.5373 43.5832 31.067 43.936 30.8553C46.7698 29.1385 49.7683 28.6447 50.6385 28.5036C52.5551 28.1861 53.7545 28.3154 54.2837 28.386C54.9304 28.4683 55.4478 28.6094 55.8123 28.7152C55.6242 28.7387 55.3537 28.7623 55.0127 28.8328C53.39 29.1621 51.3557 30.1263 51.4263 31.0082C51.4498 31.2669 51.6497 31.4433 51.8966 31.6549C52.2141 31.9254 52.6727 32.1605 54.3072 32.3017C56.071 32.4428 57.1881 32.3134 57.4585 32.2664C57.9407 32.2076 58.3287 32.1253 58.6109 32.0547C58.4698 32.2076 58.2346 32.4428 57.9289 32.7014C57.6467 32.9484 57.094 33.3952 55.8123 34.1125C54.707 34.7357 54.2837 34.8651 54.3072 34.9709C54.3542 35.1002 55.2244 35.0297 56.0122 34.6769C56.1886 34.5946 56.3415 34.5123 56.459 34.4417C56.8824 34.6652 57.2469 34.8298 57.5526 34.9474C58.3757 35.2649 59.0225 35.3825 59.2341 35.4177C59.5046 35.4648 59.7397 35.4883 59.9161 35.5118C59.6574 35.7117 59.3164 35.9586 58.8814 36.2173C58.5403 36.4172 57.9054 36.8053 57.0235 37.0992C56.071 37.4285 55.342 37.4755 55.342 37.5696C55.3537 37.6284 55.6359 37.6284 55.9652 37.6637C56.4708 37.7107 56.8471 37.6754 56.9412 37.6637C57.7878 37.5931 58.9989 38.2046 59.3282 38.3692C59.6457 38.5338 60.751 39.11 62.1268 40.6974C63.2674 42.0144 63.9023 43.2138 64.161 43.6959C66.6539 48.5053 67.9121 50.904 68.6647 53.5733C69.2643 55.5723 69.9816 58.171 69.6524 60.6638ZM69.5583 53.0794C68.747 50.0104 67.7122 48.0114 65.9131 44.5543C64.2786 41.4265 63.4202 40.3917 62.5618 39.5803C61.1273 38.2398 59.6457 37.4873 58.6227 37.0522C58.8578 36.9464 59.1165 36.8053 59.387 36.6406C60.1278 36.1703 60.6569 35.6176 61.0097 35.1708C60.5629 35.0767 60.1043 34.9709 59.6222 34.8415C58.752 34.6181 57.9407 34.3712 57.1763 34.1007C57.3174 34.0184 57.5173 33.8891 57.7643 33.7127C58.6697 33.0895 59.1283 32.772 59.387 32.2076C59.4693 32.0194 59.5751 31.7255 59.5634 31.2904C59.2929 31.3845 58.9166 31.5138 58.4463 31.6196C57.4703 31.8313 56.7177 31.796 55.9181 31.7725C55.3772 31.749 54.4013 31.6784 53.2371 31.3022C52.6492 31.114 52.4493 30.9847 52.4375 30.8318C52.414 30.5378 53.0725 30.2556 53.8721 29.9029C54.3895 29.6794 54.8246 29.5266 55.0833 29.4443C56.4708 28.9857 56.9412 28.9974 56.9647 28.8211C56.9999 28.5153 55.5301 28.0215 54.0838 27.7863C53.5664 27.704 51.7791 27.457 49.345 27.9391C48.4278 28.1155 47.1579 28.4565 45.7233 29.115C45.9114 28.8563 46.0996 28.5741 46.2877 28.2919C46.6405 27.751 46.958 27.2101 47.2284 26.7045C47.2284 26.4811 47.2284 26.2576 47.2284 26.0225C47.0403 26.0225 46.7581 26.046 46.4288 26.1165C45.9585 26.2106 45.6292 26.3635 45.5116 26.4105C44.7943 26.7162 44.0653 26.7045 43.301 26.7985C41.6783 26.9867 40.4201 27.5864 39.8557 27.8568C39.2442 28.1508 38.327 28.6682 37.5274 29.5031C37.1747 29.8676 36.9512 30.1968 36.7866 30.5613C36.5514 31.0787 36.5044 31.5491 36.4926 31.8548C36.1752 31.796 35.8224 31.702 35.4344 31.5256C34.3526 31.0552 33.6705 30.3144 33.3178 29.8441C33.0944 30.044 32.7534 30.4085 32.5535 30.9611C32.2948 31.6667 32.4241 32.2781 32.5182 32.819C32.671 33.6069 32.9885 34.2418 33.3178 34.7357C31.5304 35.0297 30.4722 35.7352 29.8725 36.2408C29.4727 36.5818 29.0964 36.9934 28.3438 37.8283C27.6265 38.6161 27.0739 39.2864 26.874 39.5333C25.4864 41.2618 24.4987 43.6018 24.1342 44.472C22.2175 49.0932 21.265 51.3979 20.7477 54.2671C20.4537 55.9368 20.0656 58.1592 20.3596 61.0636C20.583 63.2743 21.1475 65.2733 22.2175 67.1194C22.8407 68.2012 23.6403 69.2242 24.8985 69.8239C25.4041 70.0709 26.2272 70.4471 27.0151 70.1179C27.7088 69.8239 28.0263 69.1419 28.2262 68.7068C28.626 67.8249 28.6143 67.0959 28.6143 66.0258C28.6143 64.4266 28.6378 63.6858 28.6731 62.4041C28.6966 61.5222 28.7554 60.7932 28.7907 60.3111C29.1199 60.6756 29.3904 60.9696 29.5903 61.1695C29.9548 61.5457 30.2017 61.7574 30.6485 62.2278C30.8249 62.4159 30.966 62.5688 31.0601 62.6746C31.2953 63.1685 31.6245 63.7682 32.0596 64.4384C32.3183 64.8382 32.7063 65.4261 33.3295 66.1199C33.7058 66.5432 34.2232 67.0606 34.8935 67.5898C34.8699 67.4016 34.8582 67.2135 34.8347 67.0253C34.7759 66.4021 34.7288 65.8024 34.6818 65.2027C34.8699 65.3321 35.0581 65.4614 35.2462 65.5908C35.4108 65.8259 35.5872 66.0846 35.7518 66.3551C36.5162 67.6368 36.8924 68.9067 37.0923 69.9533C37.1982 69.7769 37.304 69.5888 37.3981 69.3771C38.0213 68.0719 37.9037 66.8607 38.1036 66.849C38.1389 66.849 38.1977 66.8842 38.28 67.0841C38.28 67.3546 38.2917 67.7309 38.3741 68.1777C38.4211 68.4952 38.5857 69.3771 39.0796 70.2355C40.0673 71.9405 41.8311 72.5284 42.0193 72.5872C42.3956 72.7048 43.6537 73.0811 45.1353 72.5872C46.8404 72.0228 47.6635 70.7058 47.8751 70.3531C48.0515 70.2943 48.2279 70.2237 48.4043 70.1179C49.5684 69.4476 49.9447 68.1307 50.0505 67.6486C50.2622 67.6603 50.4621 67.6721 50.6737 67.6838C50.7913 67.8837 50.9442 68.0954 51.1441 68.307C51.7673 68.9773 52.5081 69.2478 52.9432 69.3653C52.9432 69.1772 52.9432 68.9891 52.9432 68.8009C53.1431 68.6716 53.3547 68.5305 53.5664 68.3541C54.5659 67.5545 55.1538 66.5903 55.5066 65.8495C55.8946 65.6966 56.2474 65.532 56.5649 65.3438C59.9867 63.4036 61.1038 59.4292 61.48 57.6418C61.5153 58.0769 61.5624 58.5002 61.5976 58.9353C61.9151 62.5923 62.0797 66.1669 62.1268 69.6358C62.1268 69.7534 62.1385 69.9415 62.2208 70.1414C62.456 70.7176 63.0557 70.9293 63.2556 70.9998C64.2081 71.3408 65.2429 70.7646 65.7014 70.4942C68.0062 69.1654 69.0409 66.6255 69.4642 65.5202C69.6641 65.0146 70.3344 63.192 70.499 60.4051C70.6401 57.2891 70.0404 54.9138 69.5583 53.0794Z" fill="#00120B"/>
<path d="M49.4502 58.2529C49.7677 58.0766 50.0852 57.8884 50.4497 57.6768C50.3791 58.1706 50.3086 58.5939 50.2498 59.029C50.2028 59.3818 50.3321 59.5229 50.6849 59.3347C50.9553 59.1936 51.2728 59.0996 51.508 58.8997C51.9783 58.4881 52.3899 57.9942 53.1424 58.394C52.6721 59.3112 52.0254 60.2167 51.2493 61.028C51.2022 61.0868 51.0611 61.0633 50.9671 61.075C50.7437 60.8164 50.485 60.7928 50.1087 61.0868C50.3674 59.958 49.9441 59.0996 49.4502 58.2529Z" fill="#6B435C"/>
<path d="M35.9512 55.3721C36.2922 55.7248 36.5156 55.9718 36.8684 56.007C37.1506 56.0306 37.1153 56.2775 37.1623 56.4539C37.2917 56.9478 37.5033 57.3946 37.8443 57.7944C38.0325 58.0296 38.1853 58.0178 38.35 57.7826C38.5851 57.4534 38.7615 56.9007 39.0555 56.8302C39.3495 56.7596 39.4906 57.4534 39.8904 57.5827C40.1726 57.6768 40.1843 57.7826 40.1138 58.0648C39.9727 58.6528 39.9021 59.2525 39.8551 59.8522C39.8081 60.3931 39.3024 60.3225 39.0202 60.4989C38.7498 60.6636 38.7262 60.2402 38.6204 60.0639C38.4205 59.6993 38.1736 59.5229 37.7738 59.7464C37.5974 59.8522 37.4563 59.864 37.3387 59.6523C36.5861 58.3706 36.0923 57.0066 35.9512 55.3721Z" fill="#6B415A"/>
<path d="M46.2529 56.8649C46.2411 56.8532 46.2294 56.8297 46.2176 56.8179C45.5121 56.0183 44.783 55.9948 43.9246 56.665C43.3132 57.1354 42.5841 57.3118 41.9844 56.571C41.8551 56.4181 41.761 56.5122 41.6434 56.5827C41.3377 56.7709 41.0202 56.959 40.691 57.1354C40.0442 57.4764 39.7973 57.4058 39.4093 56.7944C39.3034 56.618 39.2094 56.4416 39.0683 56.1712C38.7155 56.7238 38.398 57.2177 38.057 57.7468C37.5631 57.1001 37.3162 56.4063 37.1633 55.6655C36.4461 55.9125 35.8699 55.3128 35.9522 54.3721C36.6812 54.8777 37.4103 55.3245 38.2099 55.642C40.5616 56.571 42.8311 56.3593 45.0182 55.1834C45.4886 54.9365 45.7825 54.8895 46.2646 55.2187C48.5223 56.7238 51.0152 57.4058 53.7903 56.9943C53.6492 57.5822 53.4845 57.7821 52.9672 57.9938C52.8613 58.0408 52.7085 58.1466 52.6497 58.0643C52.2264 57.5352 52.0382 58.0761 51.8383 58.2525C51.4032 58.6052 50.9329 58.8874 50.3685 59.1344C50.4625 58.6288 50.5566 58.1702 50.6389 57.7116C50.6624 57.5822 50.7095 57.4529 50.5684 57.3588C50.4273 57.253 50.3097 57.3823 50.2038 57.4411C49.9216 57.6057 49.6629 57.7939 49.3925 57.9703C48.8163 57.9232 48.6164 57.4411 48.3577 57.0884C48.1108 56.7591 47.8991 56.6298 47.5346 56.8649C47.1113 57.1354 46.688 57.1707 46.2529 56.8649Z" fill="#F9FAFA"/>
<path d="M39.5729 61.8982C38.7733 61.5807 38.3735 60.8399 37.8443 60.2285C37.762 60.1344 37.8325 60.0521 37.9149 59.9933C38.0324 59.911 38.1618 59.8287 38.2911 59.9228C38.3852 59.9816 38.4675 60.0874 38.5146 60.1814C38.738 60.6518 38.9144 61.1927 39.5493 60.5342C39.714 60.3696 39.808 60.5695 39.8433 60.7459C39.761 61.1221 39.6669 61.5102 39.5729 61.8982Z" fill="#F2F5F5"/>
<path d="M50.8618 61.0869C50.9676 61.228 51.2145 61.3456 50.897 61.5573C50.6266 61.7336 50.4032 61.9688 50.1562 62.1805C50.2033 61.6866 50.1798 61.1575 50.8618 61.0869Z" fill="#E5E6E7"/>
<path d="M40.6316 57.5475C40.4199 59.1938 40.1494 60.5107 39.9378 61.4044C39.5733 62.9918 39.3263 63.6268 39.1617 65.0261C39.0088 66.3431 38.9148 67.1309 39.1617 68.1422C39.3028 68.7066 39.6556 70.1294 40.9843 71.1407C41.2548 71.3524 42.4777 72.2695 44.0416 72.0814C46.0641 71.8345 47.1929 69.8707 47.8044 68.7889C48.5217 67.5307 48.7333 66.3078 48.9215 65.2613C49.2037 63.6974 48.9332 63.7091 49.2742 62.0276C49.4506 61.1222 49.6388 60.5813 49.4506 59.7935C49.3918 59.5583 49.2272 58.8998 48.6275 58.3236C48.0984 57.818 47.5457 57.6651 47.1577 57.5593C46.6403 57.4182 46.1582 57.2888 45.8054 57.5593C45.5585 57.7474 45.4879 58.0296 45.4526 58.206C45.5467 58.888 45.535 59.4289 45.5114 59.7935C45.4762 60.2403 45.4291 60.4167 45.2175 61.6749C45.1469 62.1335 45.0764 62.592 44.9941 63.0389C44.6883 64.9556 44.6413 65.2613 44.6295 65.2613C44.606 65.2613 44.7118 63.7444 44.9823 61.9218C45.1116 61.0164 45.1116 60.0992 45.2527 59.2055C45.3115 58.794 45.3939 58.3471 45.1587 57.9003C44.9588 57.5122 44.5119 57.1124 44.0534 57.1242C43.8887 57.1242 43.7124 57.183 43.583 57.23C43.2655 57.3359 43.1832 57.4299 42.948 57.4535C42.7129 57.477 42.5247 57.4064 42.4424 57.3829C41.9956 57.1948 41.9721 56.7832 41.7016 56.7832C41.5252 56.7832 41.5487 56.9831 41.1372 57.183C41.0314 57.2418 40.8902 57.2888 40.7374 57.4299C40.7021 57.4535 40.6551 57.5122 40.6316 57.5475Z" fill="#EB97A4"/>
<path d="M40.291 60.7815C40.8437 60.464 41.3376 60.2994 41.655 60.2053C41.9255 60.1348 44.0068 59.5704 44.6418 60.3817C44.7476 60.5111 44.8417 60.7227 44.9357 60.7109C45.0416 60.6874 45.0533 60.3935 45.0886 60.0289C45.1944 58.9707 45.3708 58.9707 45.312 58.5121C45.2885 58.3239 45.1592 57.5361 44.5595 57.2421C44.2302 57.0775 43.8775 57.1246 43.8304 57.1363C43.5482 57.1716 43.5247 57.2774 43.1837 57.3715C42.9485 57.4303 42.6075 57.5243 42.3253 57.3715C41.9725 57.1833 41.9137 56.7365 41.7256 56.7483C41.5962 56.76 41.608 56.9482 41.3728 57.101C41.1964 57.2069 41.1141 57.1716 40.9613 57.2539C40.7966 57.348 40.7026 57.5126 40.5967 57.8066C40.4086 58.3827 40.4086 58.9001 40.4086 59.0177C40.4086 59.4293 40.3968 60.0172 40.291 60.7815Z" fill="#AF5766"/>
<path d="M45.6404 60.4992C46.1578 60.4875 46.5811 60.5462 46.8751 60.6168C47.463 60.7461 48.0745 60.8873 48.5566 61.3694C48.8623 61.6751 48.9564 61.9573 49.121 61.9338C49.2621 61.8985 49.3209 61.6163 49.4032 61.1224C49.4973 60.6286 49.5326 60.3934 49.5208 60.1112C49.4738 59.4409 49.1445 58.9588 48.9917 58.7589C48.5213 58.1122 47.9334 57.8417 47.463 57.6301C47.122 57.4772 46.781 57.3714 46.393 57.3949C46.0167 57.4066 45.8521 57.5242 45.8168 57.5477C45.5228 57.7594 45.4758 58.1239 45.464 58.1945C45.4288 58.4179 45.4993 58.4767 45.5346 58.853C45.5581 59.0764 45.5463 59.2293 45.5346 59.5467C45.5228 59.8172 45.4875 60.1582 45.417 60.5698" fill="#AF5766"/>
<path d="M35.0231 53.3135C35.2583 53.5251 35.4934 53.725 35.7286 53.9367C35.6698 54.3365 35.6228 54.8774 35.6346 55.5241C35.6698 56.3708 35.8344 57.7818 36.634 59.2869C37.3161 60.5804 38.1627 61.38 38.6095 61.7916C38.8565 62.015 39.0681 62.1914 39.2327 62.3207C39.1857 62.3795 39.1151 62.4971 39.0799 62.6617C39.0446 62.8146 39.0681 62.9439 39.0799 63.0145C38.5037 62.6264 37.6923 62.0032 36.928 61.0625C36.5635 60.6157 35.7169 59.4633 35.223 57.7348C34.6821 55.8299 34.8585 54.1954 35.0231 53.3135Z" fill="url(#paint3_linear)"/>
<path d="M54.1302 56.9011C54.4594 56.7365 54.8005 56.5719 55.1297 56.3955C54.824 57.1246 54.3654 58.077 53.7069 59.1471C53.4247 59.6057 52.9661 60.3229 52.2606 61.1578C51.7079 61.8163 50.8848 62.6747 49.7324 63.5448C49.7559 63.2626 49.7795 62.9804 49.803 62.71C50.4144 62.2631 51.167 61.6282 51.896 60.7698C52.237 60.37 52.872 59.5704 53.46 58.4298C53.7657 57.8418 53.9773 57.3127 54.1302 56.9011Z" fill="url(#paint4_linear)"/>
<circle cx="74" cy="78" r="15.5" fill="#FFF1D9" stroke="#6BB9F3" stroke-width="3"/>
<path fill-rule="evenodd" clip-rule="evenodd" d="M76.6753 84.6084C75.2433 87.0888 72.0717 87.9386 69.5914 86.5066C67.111 85.0746 66.2612 81.903 67.6932 79.4227C69.1253 76.9423 72.2968 76.0925 74.7772 77.5245C77.2575 78.9565 78.1073 82.1281 76.6753 84.6084ZM70.1099 85.6084C72.0942 86.754 74.6315 86.0741 75.7771 84.0899C76.9227 82.1056 76.2428 79.5683 74.2586 78.4227C72.2743 77.2771 69.7371 77.957 68.5914 79.9412C67.4458 81.9255 68.1257 84.4628 70.1099 85.6084Z" fill="#482402"/>
<path fill-rule="evenodd" clip-rule="evenodd" d="M74.9671 83.6227C74.0793 85.1605 72.1129 85.6874 70.5751 84.7995C69.0373 83.9117 68.5104 81.9453 69.3983 80.4075C70.2861 78.8697 72.2525 78.3428 73.7903 79.2306C75.3281 80.1185 75.855 82.0849 74.9671 83.6227ZM71.0937 83.9013C72.1354 84.5027 73.4675 84.1458 74.0689 83.1041C74.6704 82.0624 74.3134 80.7303 73.2717 80.1288C72.23 79.5274 70.8979 79.8843 70.2965 80.9261C69.695 81.9678 70.0519 83.2999 71.0937 83.9013Z" fill="#482402"/>
<path fill-rule="evenodd" clip-rule="evenodd" d="M73.6018 79.5575C72.2442 78.7737 70.5082 79.2388 69.7243 80.5965C68.9405 81.9541 69.4056 83.6902 70.7633 84.474C72.1209 85.2578 73.857 84.7927 74.6408 83.435C75.4246 82.0774 74.9595 80.3414 73.6018 79.5575ZM68.5897 79.9414C69.7354 77.9572 72.2726 77.2773 74.2569 78.4229C76.2411 79.5686 76.921 82.1058 75.7754 84.0901C74.6298 86.0743 72.0925 86.7542 70.1083 85.6086C68.124 84.463 67.4441 81.9257 68.5897 79.9414Z" fill="#F6E6D2"/>
<path d="M80.7288 73.4359C80.3922 74.019 79.8953 74.4519 79.3259 74.7111C78.8848 74.9119 78.6129 75.6521 78.9046 76.039C80.0186 77.5168 80.5281 79.3753 80.3255 81.2129C80.2934 81.5032 80.4889 81.7732 80.7619 81.8769C80.8908 81.9259 81.0175 81.9858 81.1407 82.0569C82.3808 82.7729 82.8058 84.3587 82.0897 85.5989C81.3737 86.839 79.788 87.2639 78.5478 86.5479L66.8262 79.7805C65.5861 79.0645 65.1612 77.4787 65.8772 76.2385C66.5932 74.9984 68.179 74.5735 69.4191 75.2895C69.5424 75.3606 69.6575 75.4403 69.7643 75.5275C69.9907 75.7121 70.3223 75.7463 70.5577 75.5734C72.0477 74.4792 73.912 73.9912 75.7488 74.217C76.2297 74.2762 76.7348 73.6706 76.6882 73.1882C76.628 72.5655 76.7544 71.9187 77.0911 71.3356C77.9503 69.8474 79.3347 70.2358 80.8229 71.095C80.8229 71.095 81.588 71.9477 80.7288 73.4359Z" fill="#E89B37"/>
<path d="M80.7288 73.4359C80.3922 74.019 79.8953 74.4519 79.3259 74.7111C78.8848 74.9119 78.6129 75.6521 78.9046 76.039C80.0186 77.5168 80.5281 79.3753 80.3255 81.2129C80.2934 81.5032 80.4889 81.7732 80.7619 81.8769C80.8908 81.9259 81.0175 81.9858 81.1407 82.0569C82.3808 82.7729 82.8058 84.3587 82.0897 85.5989C81.3737 86.839 79.788 87.2639 78.5478 86.5479L66.8262 79.7805C65.5861 79.0645 65.1612 77.4787 65.8772 76.2385C66.5932 74.9984 68.179 74.5735 69.4191 75.2895C69.5424 75.3606 69.6575 75.4403 69.7643 75.5275C69.9907 75.7121 70.3223 75.7463 70.5577 75.5734C72.0477 74.4792 73.912 73.9912 75.7488 74.217C76.2297 74.2762 76.7348 73.6706 76.6882 73.1882C76.628 72.5655 76.7544 71.9187 77.0911 71.3356C77.9503 69.8474 79.3347 70.2358 80.8229 71.095C80.8229 71.095 81.588 71.9477 80.7288 73.4359Z" fill="url(#paint5_linear)"/>
<path d="M79.5625 80.7725C79.7651 78.9349 79.2556 77.0764 78.1416 75.5986L77.858 76.0899C78.2866 78.1338 77.9384 78.1723 77.766 79.7353C77.734 80.0256 77.9295 80.2957 78.2025 80.3994C78.3314 80.4483 78.458 80.5082 78.5813 80.5793C79.8214 81.2953 80.2463 82.8811 79.5303 84.1213C78.8143 85.3615 77.2285 85.7864 75.9884 85.0704L77.7848 86.1075C79.0249 86.8235 80.6107 86.3986 81.3267 85.1585C82.0427 83.9183 81.6178 82.3325 80.3777 81.6165C80.2544 81.5454 80.1278 81.4855 79.9989 81.4365C79.7259 81.3328 79.5304 81.0628 79.5625 80.7725Z" fill="#E28432"/>
<path fill-rule="evenodd" clip-rule="evenodd" d="M78.8966 73.7674C79.2759 73.5948 79.606 73.3074 79.8311 72.9175C80.4039 71.9254 80.064 70.6568 79.0719 70.084C78.0797 69.5112 76.8111 69.8511 76.2383 70.8432C76.0132 71.2331 75.9294 71.6627 75.9695 72.0774C76.0285 72.6869 75.751 73.2325 75.4425 73.5816C75.1406 73.9231 74.5827 74.323 73.8712 74.2355C72.2972 74.0419 70.6977 74.4606 69.4206 75.3984C68.7415 75.8971 67.8866 75.7516 67.3578 75.3202C67.2938 75.268 67.2245 75.2199 67.1495 75.1767C66.4055 74.7471 65.454 75.002 65.0244 75.7461C64.5948 76.4902 64.8497 77.4417 65.5938 77.8713L79.0669 85.65C79.811 86.0796 80.7624 85.8246 81.192 85.0805C81.6216 84.3364 81.3667 83.385 80.6226 82.9554C80.5477 82.9121 80.4713 82.8761 80.3942 82.8468C79.7562 82.6045 79.2027 81.9369 79.295 81.0994C79.4687 79.5245 79.0316 77.93 78.0769 76.6636C77.6454 76.0912 77.7127 75.4082 77.8576 74.9759C78.0056 74.5342 78.3393 74.0211 78.8966 73.7674ZM79.3264 74.7114C79.8958 74.4521 80.3927 74.0192 80.7293 73.4361C81.5885 71.9479 81.0786 70.045 79.5904 69.1858C78.1022 68.3266 76.1993 68.8365 75.3401 70.3247C75.0034 70.9078 74.877 71.5545 74.9372 72.1773C74.9838 72.6596 74.4787 73.2652 73.9978 73.2061C72.161 72.9802 70.2967 73.4682 68.8067 74.5625C68.5713 74.7354 68.2397 74.7011 68.0133 74.5165C67.9065 74.4294 67.7914 74.3496 67.6681 74.2785C66.428 73.5625 64.8422 73.9874 64.1262 75.2275C63.4102 76.4677 63.8351 78.0535 65.0752 78.7695L78.5483 86.5482C79.7885 87.2642 81.3742 86.8393 82.0902 85.5991C82.8063 84.3589 82.3813 82.7732 81.1412 82.0572C81.018 81.986 80.8913 81.9261 80.7624 81.8772C80.4894 81.7735 80.2939 81.5034 80.326 81.2131C80.5286 79.3756 80.0191 77.517 78.9051 76.0393C78.6134 75.6523 78.8853 74.9121 79.3264 74.7114Z" fill="#482402"/>
<path fill-rule="evenodd" clip-rule="evenodd" d="M74.5254 76.1565C74.4561 76.4344 74.1747 76.6035 73.8968 76.5342C73.5872 76.457 73.0189 76.4004 72.3945 76.5118C71.7761 76.6221 71.1316 76.8913 70.6201 77.4367C70.4242 77.6456 70.096 77.6561 69.8871 77.4602C69.6782 77.2643 69.6677 76.9361 69.8636 76.7272C70.5642 75.9802 71.4325 75.6298 72.2124 75.4907C72.9864 75.3527 73.7023 75.4168 74.1477 75.5279C74.4256 75.5971 74.5947 75.8786 74.5254 76.1565Z" fill="#482402"/>
<defs>
<linearGradient id="paint0_linear" x1="41.0638" y1="36.2421" x2="41.0638" y2="56.0281" gradientUnits="userSpaceOnUse">
<stop stop-color="#9F4A08"/>
<stop offset="0.37" stop-color="#7D3900"/>
<stop offset="1" stop-color="#8D4104"/>
</linearGradient>
<linearGradient id="paint1_linear" x1="28.2868" y1="40.0535" x2="24.434" y2="53.6774" gradientUnits="userSpaceOnUse">
<stop offset="0.0319879" stop-color="#5F5644"/>
<stop offset="0.5378" stop-color="#5F5644"/>
<stop offset="0.6484" stop-color="#584A39"/>
<stop offset="0.8443" stop-color="#503A2B"/>
<stop offset="1" stop-color="#4D3526"/>
</linearGradient>
<linearGradient id="paint2_linear" x1="62.9415" y1="42.5199" x2="66.6129" y2="55.5022" gradientUnits="userSpaceOnUse">
<stop offset="0.0319879" stop-color="#5F5644"/>
<stop offset="0.5378" stop-color="#5F5644"/>
<stop offset="0.6484" stop-color="#584A39"/>
<stop offset="0.8443" stop-color="#503A2B"/>
<stop offset="1" stop-color="#4D3526"/>
</linearGradient>
<linearGradient id="paint3_linear" x1="35.1949" y1="53.6259" x2="37.2768" y2="60.1944" gradientUnits="userSpaceOnUse">
<stop stop-color="#6A5F48"/>
<stop offset="1" stop-color="#4F3B31"/>
</linearGradient>
<linearGradient id="paint4_linear" x1="54.2895" y1="57.343" x2="51.0999" y2="61.8848" gradientUnits="userSpaceOnUse">
<stop stop-color="#6A5F48"/>
<stop offset="1" stop-color="#4F3B31"/>
</linearGradient>
<linearGradient id="paint5_linear" x1="66.7186" y1="74.7797" x2="82.3278" y2="83.8548" gradientUnits="userSpaceOnUse">
<stop stop-color="#EFC443"/>
<stop offset="1" stop-color="#E69536"/>
</linearGradient>
</defs>
</svg>
